<svg version="1.1" id="Camada_1" xmlns="http://www.w3.org/2000/svg" xmlns:xlink="http://www.w3.org/1999/xlink" x="0px" y="0px" viewBox="0 0 50 30" style="enable-background:new 0 0 50 30;" xml:space="preserve">
<style type="text/css">
	.st0{fill-rule:evenodd;clip-rule:evenodd;fill:#FFFFFF;}
	.st1{fill:#161615;}
	.st2{fill:#9B3F1E;}
	.st3{fill:#A96425;}
	.st4{fill:#BF9731;}
	.st5{fill-rule:evenodd;clip-rule:evenodd;fill:#016FD0;}
	.st6{fill-rule:evenodd;clip-rule:evenodd;fill:#161615;}
	.st7{fill:#2C387D;}
	.st8{fill:#FFFFFF;}
	.st9{fill-rule:evenodd;clip-rule:evenodd;fill:#050013;stroke:#231F20;stroke-width:0.5669;stroke-miterlimit:22.9256;}
	.st10{fill-rule:evenodd;clip-rule:evenodd;fill:#009DD7;}
	.st11{fill-rule:evenodd;clip-rule:evenodd;fill:#FFF200;}
	.st12{fill-rule:evenodd;clip-rule:evenodd;fill:#E33206;}
	.st13{fill:url(#SVGID_1_);}
	.st14{fill:url(#SVGID_2_);}
	.st15{fill:url(#SVGID_3_);}
	.st16{fill:url(#SVGID_4_);}
	.st17{fill-rule:evenodd;clip-rule:evenodd;fill:#322466;}
	.st18{fill-rule:evenodd;clip-rule:evenodd;fill:#E7E740;}
	.st19{fill-rule:evenodd;clip-rule:evenodd;fill:#9A3E1C;}
	.st20{fill-rule:evenodd;clip-rule:evenodd;fill:#322466;stroke:#322466;stroke-width:0.216;stroke-miterlimit:22.9256;}
	.st21{fill-rule:evenodd;clip-rule:evenodd;fill:#FFFFFF;stroke:#161615;stroke-width:0.216;stroke-miterlimit:22.9256;}
	.st22{fill-rule:evenodd;clip-rule:evenodd;fill:url(#SVGID_5_);}
	.st23{fill-rule:evenodd;clip-rule:evenodd;fill:url(#SVGID_6_);}
	.st24{fill-rule:evenodd;clip-rule:evenodd;fill:none;stroke:#161615;stroke-width:0.216;stroke-miterlimit:22.9256;}
	.st25{fill-rule:evenodd;clip-rule:evenodd;fill:url(#SVGID_7_);}
</style>
<rect y="0" class="st0" width="50" height="30"></rect>
<polygon class="st5" points="0,0 50,0 50,16.19 50,20.58 50,30 0,30 0,14.73 0,12.65 0,0 "></polygon>
<g>
	<path class="st0" d="M10.78,23.98v-7.25h7.68l0.82,1.07l0.85-1.07H48v6.75c0,0-0.73,0.49-1.57,0.5H31l-0.93-1.14v1.14h-3.04v-1.95
		c0,0-0.42,0.27-1.31,0.27h-1.04v1.68h-4.61l-0.82-1.1l-0.84,1.1L10.78,23.98L10.78,23.98z"></path>
	<path class="st0" d="M1.81,11.26l1.73-4.04h2.99l0.98,2.26V7.22h3.72l0.58,1.63l0.57-1.63H29.1v0.82c0,0,0.88-0.82,2.32-0.82
		l5.42,0.02l0.97,2.23V7.22h3.11l0.86,1.28V7.22h3.14v7.25h-3.14l-0.82-1.29v1.29h-4.58l-0.46-1.14H34.7l-0.45,1.14h-3.1
		c-1.24,0-2.04-0.8-2.04-0.8v0.8h-4.68l-0.93-1.14v1.14H6.09l-0.46-1.14H4.41l-0.46,1.14H1.81V11.26L1.81,11.26z"></path>
	<path class="st5" d="M4.16,8.12l-2.34,5.43h1.52l0.43-1.09h2.51l0.43,1.09h1.55L5.93,8.12H4.16L4.16,8.12z M5.02,9.38l0.76,1.9
		H4.25L5.02,9.38L5.02,9.38z"></path>
	<polygon class="st5" points="8.42,13.54 8.42,8.12 10.58,8.12 11.84,11.62 13.06,8.12 15.21,8.12 15.21,13.55 13.85,13.55 
		13.85,9.54 12.41,13.55 11.22,13.55 9.78,9.54 9.78,13.55 8.42,13.54 	"></polygon>
	<polygon class="st5" points="16.14,13.54 16.14,8.12 20.57,8.12 20.57,9.33 17.51,9.33 17.51,10.26 20.49,10.26 20.49,11.4 
		17.51,11.4 17.51,12.37 20.57,12.37 20.57,13.54 16.14,13.54 	"></polygon>
	<path class="st5" d="M21.35,8.12v5.43h1.36v-1.93h0.57l1.63,1.93h1.66l-1.79-2c0.73-0.06,1.49-0.69,1.49-1.67
		c0-1.14-0.9-1.76-1.9-1.76H21.35L21.35,8.12z M22.71,9.33h1.55c0.37,0,0.64,0.29,0.64,0.57c0,0.36-0.35,0.57-0.62,0.57h-1.57
		L22.71,9.33L22.71,9.33L22.71,9.33z"></path>
	<polygon class="st5" points="28.21,13.54 26.82,13.54 26.82,8.12 28.21,8.12 28.21,13.54 	"></polygon>
	<path class="st5" d="M31.5,13.54h-0.3c-1.45,0-2.33-1.14-2.33-2.69c0-1.59,0.87-2.74,2.7-2.74h1.5V9.4h-1.56
		c-0.74,0-1.27,0.58-1.27,1.46c0,1.05,0.6,1.49,1.46,1.49h0.36L31.5,13.54L31.5,13.54z"></path>
	<path class="st5" d="M34.45,8.12l-2.34,5.43h1.52l0.43-1.09h2.5L37,13.55h1.55l-2.33-5.43H34.45L34.45,8.12z M35.31,9.38l0.76,1.9
		h-1.53L35.31,9.38L35.31,9.38z"></path>
	<polygon class="st5" points="38.71,13.54 38.71,8.12 40.44,8.12 42.64,11.53 42.64,8.12 44,8.12 44,13.54 42.33,13.54 40.07,10.04 
		40.07,13.54 38.71,13.54 	"></polygon>
	<polygon class="st5" points="11.71,23.05 11.71,17.62 16.14,17.62 16.14,18.83 13.08,18.83 13.08,19.76 16.06,19.76 16.06,20.9 
		13.08,20.9 13.08,21.87 16.14,21.87 16.14,23.05 11.71,23.05 	"></polygon>
	<polygon class="st5" points="33.41,23.05 33.41,17.62 37.84,17.62 37.84,18.83 34.78,18.83 34.78,19.76 37.75,19.76 37.75,20.9 
		34.78,20.9 34.78,21.87 37.84,21.87 37.84,23.05 33.41,23.05 	"></polygon>
	<polygon class="st5" points="16.31,23.05 18.46,20.37 16.26,17.62 17.97,17.62 19.28,19.32 20.6,17.62 22.24,17.62 20.07,20.33 
		22.23,23.05 20.52,23.05 19.24,21.37 17.99,23.05 16.31,23.05 	"></polygon>
	<path class="st5" d="M22.39,17.62v5.43h1.39v-1.71h1.43c1.21,0,2.13-0.64,2.13-1.89c0-1.03-0.72-1.83-1.95-1.83H22.39L22.39,17.62z
		 M23.78,18.85h1.5c0.39,0,0.67,0.24,0.67,0.63c0,0.36-0.28,0.63-0.67,0.63h-1.5V18.85L23.78,18.85L23.78,18.85z"></path>
	<path class="st5" d="M27.92,17.62v5.43h1.36v-1.93h0.57l1.63,1.93h1.66l-1.79-2c0.73-0.06,1.49-0.69,1.49-1.67
		c0-1.14-0.9-1.76-1.9-1.76L27.92,17.62L27.92,17.62L27.92,17.62z M29.28,18.83h1.55c0.37,0,0.64,0.29,0.64,0.57
		c0,0.36-0.35,0.57-0.62,0.57h-1.57V18.83L29.28,18.83z"></path>
	<path class="st5" d="M38.47,23.05v-1.18h2.72c0.4,0,0.58-0.22,0.58-0.46c0-0.23-0.17-0.46-0.58-0.46h-1.23
		c-1.07,0-1.66-0.65-1.66-1.63c0-0.87,0.54-1.71,2.13-1.71h2.64l-0.57,1.22h-2.29c-0.44,0-0.57,0.23-0.57,0.45
		c0,0.23,0.17,0.47,0.5,0.47h1.29c1.19,0,1.71,0.67,1.71,1.56c0,0.95-0.58,1.73-1.77,1.73L38.47,23.05L38.47,23.05z"></path>
	<path class="st5" d="M43.45,23.05v-1.18h2.6c0.4,0,0.58-0.22,0.58-0.46c0-0.23-0.17-0.46-0.58-0.46h-1.11
		c-1.07,0-1.66-0.65-1.66-1.63c0-0.87,0.54-1.71,2.13-1.71H48l-0.57,1.22h-2.23c-0.44,0-0.57,0.23-0.57,0.45
		c0,0.23,0.17,0.47,0.5,0.47h1.17c1.19,0,1.71,0.67,1.71,1.56c0,0.95-0.58,1.73-1.77,1.73L43.45,23.05L43.45,23.05z"></path>
</g>
</svg>