<svg version="1.1" id="Camada_1" xmlns="http://www.w3.org/2000/svg" xmlns:xlink="http://www.w3.org/1999/xlink" x="0px" y="0px" viewBox="0 0 50 30" style="enable-background:new 0 0 50 30;" xml:space="preserve">
<style type="text/css">
	.st0{fill-rule:evenodd;clip-rule:evenodd;fill:#FFFFFF;}
	.st1{fill:#161615;}
	.st2{fill:#9B3F1E;}
	.st3{fill:#A96425;}
	.st4{fill:#BF9731;}
	.st5{fill-rule:evenodd;clip-rule:evenodd;fill:#016FD0;}
	.st6{fill-rule:evenodd;clip-rule:evenodd;fill:#161615;}
	.st7{fill:#2C387D;}
	.st8{fill:#FFFFFF;}
	.st9{fill-rule:evenodd;clip-rule:evenodd;fill:#050013;stroke:#231F20;stroke-width:0.5669;stroke-miterlimit:22.9256;}
	.st10{fill-rule:evenodd;clip-rule:evenodd;fill:#009DD7;}
	.st11{fill-rule:evenodd;clip-rule:evenodd;fill:#FFF200;}
	.st12{fill-rule:evenodd;clip-rule:evenodd;fill:#E33206;}
	.st13{fill:url(#SVGID_1_);}
	.st14{fill:url(#SVGID_2_);}
	.st15{fill:url(#SVGID_3_);}
	.st16{fill:url(#SVGID_4_);}
	.st17{fill-rule:evenodd;clip-rule:evenodd;fill:#322466;}
	.st18{fill-rule:evenodd;clip-rule:evenodd;fill:#E7E740;}
	.st19{fill-rule:evenodd;clip-rule:evenodd;fill:#9A3E1C;}
	.st20{fill-rule:evenodd;clip-rule:evenodd;fill:#322466;stroke:#322466;stroke-width:0.216;stroke-miterlimit:22.9256;}
	.st21{fill-rule:evenodd;clip-rule:evenodd;fill:#FFFFFF;stroke:#161615;stroke-width:0.216;stroke-miterlimit:22.9256;}
	.st22{fill-rule:evenodd;clip-rule:evenodd;fill:url(#SVGID_5_);}
	.st23{fill-rule:evenodd;clip-rule:evenodd;fill:url(#SVGID_6_);}
	.st24{fill-rule:evenodd;clip-rule:evenodd;fill:none;stroke:#161615;stroke-width:0.216;stroke-miterlimit:22.9256;}
	.st25{fill-rule:evenodd;clip-rule:evenodd;fill:url(#SVGID_7_);}
</style>
<rect class="st0" width="50" height="30"></rect>
<g>
	<path class="st17" d="M5.39,2.05h39.18l0.04,12.21c-4.73-1.8-19.78-6.1-39.22-0.74V2.05z"></path>
	<path class="st18" d="M5.39,27.95h39.18v-9.77c-7.07-2.37-19.63-5.91-39.18-0.89V27.95z"></path>
	<path class="st19" d="M44.57,18.18c-7.07-2.37-19.63-5.91-39.18-0.89v-3.77c19.44-5.37,34.49-1.06,39.22,0.74L44.57,18.18z"></path>
	<path class="st18" d="M17.87,11.22c0.97-2.68,3.19-4.99,7.04-4.96c3.86,0.03,6.43,2.22,7.12,5.11
		C27.07,10.84,23.75,10.76,17.87,11.22z"></path>
	<path class="st20" d="M14.14,23l2.62-3.91h0.97l2.8,3.91H19.5l-0.8-1.18h-2.86L15.1,23H14.14L14.14,23z M16.11,21.4h2.32
		l-0.71-1.08c-0.22-0.33-0.38-0.6-0.48-0.81c-0.09,0.25-0.21,0.5-0.37,0.75L16.11,21.4L16.11,21.4z M25.12,23v-0.42
		c-0.39,0.32-0.91,0.48-1.57,0.48c-0.29,0-0.56-0.03-0.82-0.1c-0.25-0.06-0.44-0.14-0.56-0.24c-0.12-0.1-0.21-0.22-0.26-0.36
		c-0.03-0.09-0.05-0.24-0.05-0.45v-1.75h0.84v1.57c0,0.25,0.02,0.42,0.05,0.51c0.05,0.13,0.17,0.22,0.34,0.3
		c0.17,0.07,0.38,0.11,0.63,0.11c0.25,0,0.49-0.04,0.71-0.11c0.22-0.07,0.38-0.17,0.47-0.3c0.09-0.13,0.14-0.31,0.14-0.55v-1.52
		h0.84V23H25.12L25.12,23z M27.91,23v-2.83h0.75v0.43c0.19-0.2,0.37-0.33,0.53-0.4c0.16-0.06,0.34-0.1,0.54-0.1
		c0.28,0,0.57,0.05,0.86,0.15l-0.29,0.45c-0.2-0.07-0.41-0.1-0.61-0.1c-0.18,0-0.35,0.03-0.49,0.09c-0.15,0.06-0.25,0.15-0.31,0.26
		c-0.09,0.17-0.14,0.36-0.14,0.56V23H27.91L27.91,23z M35.06,22.65c-0.31,0.15-0.61,0.26-0.9,0.32c-0.29,0.06-0.6,0.09-0.93,0.09
		c-0.54,0-0.96-0.08-1.25-0.23c-0.29-0.15-0.44-0.35-0.44-0.58c0-0.14,0.05-0.27,0.17-0.38c0.11-0.11,0.25-0.21,0.43-0.28
		c0.18-0.07,0.38-0.12,0.6-0.16c0.16-0.02,0.41-0.05,0.74-0.07c0.68-0.05,1.18-0.1,1.5-0.17c0-0.07,0-0.11,0-0.12
		c0-0.2-0.08-0.33-0.24-0.41c-0.21-0.11-0.53-0.16-0.95-0.16c-0.39,0-0.69,0.04-0.87,0.12c-0.19,0.08-0.33,0.22-0.42,0.42
		l-0.82-0.06c0.07-0.2,0.2-0.36,0.37-0.49c0.17-0.12,0.42-0.22,0.74-0.29c0.32-0.07,0.7-0.1,1.12-0.1c0.42,0,0.77,0.03,1.03,0.09
		c0.26,0.06,0.46,0.13,0.58,0.21c0.12,0.09,0.21,0.19,0.26,0.33c0.03,0.08,0.04,0.23,0.04,0.44v0.64c0,0.45,0.02,0.73,0.05,0.85
		c0.03,0.12,0.11,0.23,0.21,0.34h-0.88C35.14,22.9,35.08,22.79,35.06,22.65L35.06,22.65z M34.98,21.58
		c-0.31,0.07-0.76,0.13-1.37,0.18c-0.35,0.03-0.59,0.06-0.73,0.1c-0.14,0.04-0.25,0.09-0.33,0.16c-0.08,0.07-0.12,0.14-0.12,0.23
		c0,0.13,0.09,0.23,0.25,0.32c0.17,0.08,0.42,0.13,0.74,0.13c0.32,0,0.61-0.04,0.86-0.12c0.25-0.08,0.44-0.19,0.55-0.33
		c0.09-0.11,0.14-0.27,0.14-0.48V21.58z"></path>
</g>
</svg>