<svg version="1.1" id="Camada_1" xmlns="http://www.w3.org/2000/svg" xmlns:xlink="http://www.w3.org/1999/xlink" x="0px" y="0px" viewBox="0 0 50 30" style="enable-background:new 0 0 50 30;" xml:space="preserve">
<style type="text/css">
	.st0{fill-rule:evenodd;clip-rule:evenodd;fill:#FFFFFF;}
	.st1{fill:#161615;}
	.st2{fill:#9B3F1E;}
	.st3{fill:#A96425;}
	.st4{fill:#BF9731;}
	.st5{fill-rule:evenodd;clip-rule:evenodd;fill:#016FD0;}
	.st6{fill-rule:evenodd;clip-rule:evenodd;fill:#161615;}
	.st7{fill:#2C387D;}
	.st8{fill:#FFFFFF;}
	.st9{fill-rule:evenodd;clip-rule:evenodd;fill:#050013;stroke:#231F20;stroke-width:0.5669;stroke-miterlimit:22.9256;}
	.st10{fill-rule:evenodd;clip-rule:evenodd;fill:#009DD7;}
	.st11{fill-rule:evenodd;clip-rule:evenodd;fill:#FFF200;}
	.st12{fill-rule:evenodd;clip-rule:evenodd;fill:#E33206;}
	.st13{fill:url(#SVGID_1_);}
	.st14{fill:url(#SVGID_2_);}
	.st15{fill:url(#SVGID_3_);}
	.st16{fill:url(#SVGID_4_);}
	.st17{fill-rule:evenodd;clip-rule:evenodd;fill:#322466;}
	.st18{fill-rule:evenodd;clip-rule:evenodd;fill:#E7E740;}
	.st19{fill-rule:evenodd;clip-rule:evenodd;fill:#9A3E1C;}
	.st20{fill-rule:evenodd;clip-rule:evenodd;fill:#322466;stroke:#322466;stroke-width:0.216;stroke-miterlimit:22.9256;}
	.st21{fill-rule:evenodd;clip-rule:evenodd;fill:#FFFFFF;stroke:#161615;stroke-width:0.216;stroke-miterlimit:22.9256;}
	.st22{fill-rule:evenodd;clip-rule:evenodd;fill:url(#SVGID_5_);}
	.st23{fill-rule:evenodd;clip-rule:evenodd;fill:url(#SVGID_6_);}
	.st24{fill-rule:evenodd;clip-rule:evenodd;fill:none;stroke:#161615;stroke-width:0.216;stroke-miterlimit:22.9256;}
	.st25{fill-rule:evenodd;clip-rule:evenodd;fill:url(#SVGID_7_);}
</style>
<rect y="0" class="st0" width="50" height="30"></rect>
<g>
	<polygon class="st6" points="5.16,4.57 7.35,4.57 7.35,25.08 5.16,25.08 5.16,4.57 	"></polygon>
	<polygon class="st6" points="8.04,4.57 8.72,4.57 8.72,25.08 8.04,25.08 8.04,4.57 	"></polygon>
	<polygon class="st6" points="9.32,4.57 10.53,4.57 10.53,25.08 9.32,25.08 9.32,4.57 	"></polygon>
	<polygon class="st6" points="11.7,4.57 12.38,4.57 12.38,25.08 11.7,25.08 11.7,4.57 	"></polygon>
	<polygon class="st6" points="12.68,4.57 13.2,4.57 13.2,25.08 12.68,25.08 12.68,4.57 	"></polygon>
	<polygon class="st6" points="3.5,4.57 4.18,4.57 4.18,25.08 3.5,25.08 3.5,4.57 	"></polygon>
	<polygon class="st6" points="2,4.57 3.22,4.57 3.22,25.08 2,25.08 2,4.57 	"></polygon>
	<polygon class="st6" points="16.83,4.57 19.02,4.57 19.02,25.08 16.83,25.08 16.83,4.57 	"></polygon>
	<polygon class="st6" points="19.71,4.57 20.39,4.57 20.39,25.08 19.71,25.08 19.71,4.57 	"></polygon>
	<polygon class="st6" points="20.98,4.57 22.2,4.57 22.2,25.08 20.98,25.08 20.98,4.57 	"></polygon>
	<polygon class="st6" points="23.37,4.57 24.05,4.57 24.05,25.08 23.37,25.08 23.37,4.57 	"></polygon>
	<polygon class="st6" points="24.34,4.57 24.87,4.57 24.87,25.08 24.34,25.08 24.34,4.57 	"></polygon>
	<polygon class="st6" points="15.16,4.57 15.84,4.57 15.84,25.08 15.16,25.08 15.16,4.57 	"></polygon>
	<polygon class="st6" points="13.67,4.57 14.88,4.57 14.88,25.08 13.67,25.08 13.67,4.57 	"></polygon>
	<polygon class="st6" points="25.73,4.57 26.94,4.57 26.94,25.08 25.73,25.08 25.73,4.57 	"></polygon>
	<polygon class="st6" points="28.11,4.57 28.79,4.57 28.79,25.08 28.11,25.08 28.11,4.57 	"></polygon>
	<polygon class="st6" points="29.09,4.57 29.61,4.57 29.61,25.08 29.09,25.08 29.09,4.57 	"></polygon>
	<polygon class="st6" points="31.57,4.57 32.25,4.57 32.25,25.08 31.57,25.08 31.57,4.57 	"></polygon>
	<polygon class="st6" points="30.08,4.57 31.29,4.57 31.29,25.08 30.08,25.08 30.08,4.57 	"></polygon>
	<polygon class="st6" points="33.16,4.57 33.83,4.57 33.83,25.08 33.16,25.08 33.16,4.57 	"></polygon>
	<polygon class="st6" points="34.13,4.57 34.65,4.57 34.65,25.08 34.13,25.08 34.13,4.57 	"></polygon>
	<polygon class="st6" points="36.62,4.57 37.3,4.57 37.3,25.08 36.62,25.08 36.62,4.57 	"></polygon>
	<polygon class="st6" points="35.12,4.57 36.33,4.57 36.33,25.08 35.12,25.08 35.12,4.57 	"></polygon>
	<polygon class="st6" points="37.89,4.57 40.08,4.57 40.08,25.08 37.89,25.08 37.89,4.57 	"></polygon>
	<polygon class="st6" points="40.77,4.57 41.45,4.57 41.45,25.08 40.77,25.08 40.77,4.57 	"></polygon>
	<polygon class="st6" points="42.04,4.57 43.25,4.57 43.25,25.08 42.04,25.08 42.04,4.57 	"></polygon>
	<polygon class="st6" points="44.43,4.57 45.11,4.57 45.11,25.08 44.43,25.08 44.43,4.57 	"></polygon>
	<polygon class="st6" points="45.4,4.57 45.92,4.57 45.92,25.08 45.4,25.08 45.4,4.57 	"></polygon>
	<polygon class="st6" points="46.78,4.57 48,4.57 48,25.08 46.78,25.08 46.78,4.57 	"></polygon>
	<polygon class="st0" points="4.48,25.13 46.48,25.13 46.48,13.63 4.48,13.63 4.48,25.13 	"></polygon>
	<path class="st1" d="M5.27,24.69v-10.4h3.9c0.79,0,1.43,0.1,1.91,0.31c0.48,0.21,0.85,0.54,1.13,0.97
		c0.27,0.44,0.41,0.89,0.41,1.37c0,0.44-0.12,0.86-0.36,1.25c-0.24,0.39-0.6,0.71-1.09,0.95c0.63,0.18,1.11,0.5,1.45,0.94
		c0.34,0.44,0.51,0.97,0.51,1.57c0,0.49-0.1,0.94-0.31,1.36c-0.21,0.42-0.46,0.74-0.76,0.97c-0.3,0.23-0.68,0.4-1.14,0.51
		c-0.46,0.12-1.02,0.17-1.68,0.17H5.27L5.27,24.69z M6.65,18.66H8.9c0.61,0,1.05-0.04,1.31-0.12c0.35-0.1,0.61-0.28,0.79-0.52
		c0.18-0.24,0.27-0.54,0.27-0.91c0-0.35-0.08-0.65-0.25-0.91c-0.16-0.26-0.4-0.45-0.71-0.54C10,15.55,9.48,15.5,8.73,15.5H6.65
		V18.66L6.65,18.66z M6.65,23.47h2.59c0.45,0,0.76-0.02,0.94-0.05c0.31-0.06,0.58-0.15,0.79-0.28c0.21-0.13,0.39-0.33,0.53-0.58
		c0.14-0.25,0.21-0.55,0.21-0.88c0-0.39-0.1-0.73-0.3-1.01c-0.2-0.29-0.47-0.49-0.83-0.61c-0.35-0.12-0.86-0.17-1.52-0.17H6.65
		V23.47L6.65,23.47z"></path>
	<path class="st1" d="M14.38,20.92c0-1.39,0.39-2.42,1.16-3.09c0.65-0.56,1.44-0.84,2.37-0.84c1.03,0,1.88,0.34,2.54,1.02
		c0.66,0.68,0.99,1.61,0.99,2.81c0,0.97-0.15,1.73-0.44,2.28c-0.29,0.55-0.71,0.99-1.27,1.29c-0.55,0.31-1.16,0.46-1.82,0.46
		c-1.06,0-1.91-0.34-2.56-1.01C14.7,23.16,14.38,22.19,14.38,20.92L14.38,20.92z M15.69,20.92c0,0.96,0.21,1.69,0.63,2.16
		c0.42,0.48,0.95,0.72,1.6,0.72c0.63,0,1.16-0.24,1.59-0.72c0.42-0.48,0.63-1.22,0.63-2.2c0-0.93-0.21-1.63-0.64-2.11
		c-0.42-0.48-0.95-0.72-1.58-0.72c-0.64,0-1.17,0.24-1.6,0.71C15.9,19.24,15.69,19.96,15.69,20.92L15.69,20.92z"></path>
	<polygon class="st1" points="22.91,24.69 22.91,14.28 24.19,14.28 24.19,24.69 22.91,24.69 	"></polygon>
	<path class="st1" d="M31.31,22.25l1.32,0.17c-0.21,0.77-0.59,1.37-1.15,1.79c-0.56,0.42-1.28,0.64-2.15,0.64
		c-1.1,0-1.97-0.34-2.62-1.02c-0.64-0.68-0.97-1.63-0.97-2.85c0-1.26,0.32-2.25,0.98-2.94c0.65-0.7,1.5-1.05,2.54-1.05
		c1,0,1.83,0.34,2.46,1.03c0.64,0.69,0.96,1.65,0.96,2.89c0,0.08,0,0.19-0.01,0.34h-5.62c0.05,0.83,0.28,1.46,0.7,1.9
		c0.42,0.44,0.94,0.66,1.57,0.66c0.47,0,0.87-0.12,1.2-0.37C30.86,23.18,31.12,22.79,31.31,22.25L31.31,22.25z M27.13,20.2h4.2
		c-0.06-0.63-0.22-1.11-0.48-1.43c-0.4-0.49-0.93-0.74-1.58-0.74c-0.59,0-1.08,0.2-1.48,0.59C27.39,19.01,27.17,19.54,27.13,20.2
		L27.13,20.2z"></path>
	<path class="st1" d="M37.02,23.55l0.17,1.13c-0.36,0.08-0.68,0.11-0.96,0.11c-0.46,0-0.82-0.07-1.08-0.22
		c-0.25-0.15-0.43-0.34-0.54-0.58c-0.1-0.24-0.15-0.74-0.15-1.51v-4.34h-0.94v-0.99h0.94v-1.86l1.28-0.77v2.63h1.28v0.99h-1.28v4.42
		c0,0.37,0.02,0.6,0.07,0.7c0.04,0.1,0.12,0.19,0.22,0.25c0.1,0.06,0.25,0.09,0.44,0.09C36.61,23.6,36.79,23.58,37.02,23.55
		L37.02,23.55z"></path>
	<path class="st1" d="M37.81,20.92c0-1.39,0.39-2.42,1.16-3.09c0.65-0.56,1.44-0.84,2.37-0.84c1.03,0,1.88,0.34,2.54,1.02
		c0.66,0.68,0.99,1.61,0.99,2.81c0,0.97-0.15,1.73-0.44,2.28c-0.29,0.55-0.71,0.99-1.27,1.29c-0.55,0.31-1.16,0.46-1.82,0.46
		c-1.06,0-1.91-0.34-2.56-1.01C38.13,23.16,37.81,22.19,37.81,20.92L37.81,20.92z M39.11,20.92c0,0.96,0.21,1.69,0.63,2.16
		c0.42,0.48,0.95,0.72,1.6,0.72c0.63,0,1.16-0.24,1.59-0.72c0.42-0.48,0.63-1.22,0.63-2.2c0-0.93-0.21-1.63-0.64-2.11
		c-0.42-0.48-0.95-0.72-1.58-0.72c-0.64,0-1.17,0.24-1.6,0.71C39.32,19.24,39.11,19.96,39.11,20.92L39.11,20.92z"></path>
</g>
</svg>