<svg version="1.1" id="Camada_1" xmlns="http://www.w3.org/2000/svg" xmlns:xlink="http://www.w3.org/1999/xlink" x="0px" y="0px" viewBox="0 0 50 30" style="enable-background:new 0 0 50 30;" xml:space="preserve">
<style type="text/css">
	.st0{fill-rule:evenodd;clip-rule:evenodd;fill:#FFFFFF;}
	.st1{fill:#161615;}
	.st2{fill:#9B3F1E;}
	.st3{fill:#A96425;}
	.st4{fill:#BF9731;}
	.st5{fill-rule:evenodd;clip-rule:evenodd;fill:#016FD0;}
	.st6{fill-rule:evenodd;clip-rule:evenodd;fill:#161615;}
	.st7{fill:#2C387D;}
	.st8{fill:#FFFFFF;}
	.st9{fill-rule:evenodd;clip-rule:evenodd;fill:#050013;stroke:#231F20;stroke-width:0.5669;stroke-miterlimit:22.9256;}
	.st10{fill-rule:evenodd;clip-rule:evenodd;fill:#009DD7;}
	.st11{fill-rule:evenodd;clip-rule:evenodd;fill:#FFF200;}
	.st12{fill-rule:evenodd;clip-rule:evenodd;fill:#E33206;}
	.st13{fill:url(#SVGID_1_);}
	.st14{fill:url(#SVGID_2_);}
	.st15{fill:url(#SVGID_3_);}
	.st16{fill:url(#SVGID_4_);}
	.st17{fill-rule:evenodd;clip-rule:evenodd;fill:#322466;}
	.st18{fill-rule:evenodd;clip-rule:evenodd;fill:#E7E740;}
	.st19{fill-rule:evenodd;clip-rule:evenodd;fill:#9A3E1C;}
	.st20{fill-rule:evenodd;clip-rule:evenodd;fill:#322466;stroke:#322466;stroke-width:0.216;stroke-miterlimit:22.9256;}
	.st21{fill-rule:evenodd;clip-rule:evenodd;fill:#FFFFFF;stroke:#161615;stroke-width:0.216;stroke-miterlimit:22.9256;}
	.st22{fill-rule:evenodd;clip-rule:evenodd;fill:url(#SVGID_5_);}
	.st23{fill-rule:evenodd;clip-rule:evenodd;fill:url(#SVGID_6_);}
	.st24{fill-rule:evenodd;clip-rule:evenodd;fill:none;stroke:#161615;stroke-width:0.216;stroke-miterlimit:22.9256;}
	.st25{fill-rule:evenodd;clip-rule:evenodd;fill:url(#SVGID_7_);}
</style>
<rect y="0" class="st0" width="50" height="30"></rect>
<g>
	<path class="st7" d="M26.55,17.07c4.12,0.02,7.88-3.36,7.88-7.47c0-4.49-3.76-7.6-7.88-7.6h-3.55c-4.17,0-7.6,3.11-7.6,7.6
		c0,4.11,3.43,7.49,7.6,7.47H26.55z"></path>
	<path class="st8" d="M24.59,13.6V5.44c1.64,0.63,2.81,2.22,2.81,4.08C27.4,11.39,26.23,12.97,24.59,13.6 M18.65,9.52
		c0-1.86,1.17-3.45,2.81-4.08v8.16C19.82,12.97,18.66,11.38,18.65,9.52 M23.02,2.62c-3.81,0-6.9,3.09-6.9,6.9
		c0,3.81,3.09,6.9,6.9,6.9c3.81,0,6.9-3.09,6.9-6.9C29.92,5.71,26.84,2.62,23.02,2.62"></path>
	<path class="st7" d="M7.7,22.21c0,0.61,0.44,0.69,0.83,0.69c1.72,0,2.29-1.3,2.29-2.49c0-1.49-0.96-2.57-2.49-2.57
		c-0.33,0-0.48,0.02-0.62,0.03V22.21z M6.92,18.48c0-0.72-0.37-0.67-0.73-0.68v-0.21c0.31,0.02,0.63,0.02,0.94,0.02
		c0.33,0,0.79-0.02,1.38-0.02c2.06,0,3.19,1.38,3.19,2.79c0,0.79-0.46,2.77-3.28,2.77c-0.41,0-0.78-0.02-1.16-0.02
		c-0.36,0-0.71,0.01-1.07,0.02v-0.21c0.48-0.05,0.71-0.06,0.73-0.61V18.48z"></path>
	<path class="st7" d="M12.83,18.29c-0.21,0-0.39-0.19-0.39-0.4c0-0.2,0.19-0.38,0.39-0.38c0.21,0,0.39,0.17,0.39,0.38
		C13.22,18.1,13.04,18.29,12.83,18.29 M11.97,22.95h0.15c0.22,0,0.38,0,0.38-0.26v-2.16c0-0.35-0.12-0.4-0.41-0.56v-0.13
		c0.37-0.11,0.82-0.26,0.85-0.29c0.06-0.03,0.1-0.04,0.14-0.04c0.04,0,0.06,0.05,0.06,0.11v3.06c0,0.26,0.18,0.26,0.4,0.26h0.14
		v0.21c-0.27,0-0.55-0.02-0.84-0.02c-0.29,0-0.57,0.01-0.87,0.02V22.95z"></path>
	<path class="st7" d="M14.43,20.57c0-0.29-0.09-0.37-0.46-0.53v-0.15c0.34-0.11,0.67-0.22,1.05-0.38c0.02,0,0.05,0.02,0.05,0.08
		v0.52c0.45-0.33,0.85-0.6,1.38-0.6c0.68,0,0.92,0.49,0.92,1.12v2.06c0,0.26,0.18,0.26,0.4,0.26h0.14v0.21
		c-0.28,0-0.56-0.02-0.84-0.02c-0.29,0-0.57,0.01-0.86,0.02v-0.21h0.14c0.22,0,0.38,0,0.38-0.26v-2.06c0-0.45-0.28-0.68-0.73-0.68
		c-0.25,0-0.66,0.21-0.92,0.38v2.36c0,0.26,0.18,0.26,0.4,0.26h0.14v0.21c-0.28,0-0.56-0.02-0.84-0.02c-0.29,0-0.57,0.01-0.86,0.02
		v-0.21h0.14c0.22,0,0.38,0,0.38-0.26V20.57z"></path>
	<path class="st7" d="M19.92,20.7c0.2,0,0.22-0.1,0.22-0.2c0-0.41-0.25-0.73-0.69-0.73c-0.49,0-0.82,0.36-0.92,0.93H19.92z
		 M18.51,20.95c-0.02,0.07-0.02,0.19,0,0.46c0.05,0.76,0.53,1.38,1.17,1.38c0.44,0,0.78-0.24,1.08-0.53l0.11,0.11
		c-0.37,0.49-0.82,0.9-1.47,0.9c-1.27,0-1.52-1.23-1.52-1.74c0-1.56,1.05-2.02,1.61-2.02c0.65,0,1.34,0.41,1.35,1.25
		c0,0.05,0,0.1-0.01,0.14l-0.07,0.05H18.51z"></path>
	<path class="st7" d="M21.02,22.95h0.22c0.22,0,0.38,0,0.38-0.26v-2.24c0-0.25-0.29-0.3-0.41-0.36v-0.12
		c0.58-0.25,0.9-0.45,0.97-0.45c0.05,0,0.07,0.02,0.07,0.1v0.72h0.02c0.2-0.31,0.53-0.82,1.02-0.82c0.2,0,0.45,0.14,0.45,0.42
		c0,0.22-0.15,0.41-0.37,0.41c-0.25,0-0.25-0.19-0.53-0.19c-0.14,0-0.58,0.18-0.58,0.66v1.87c0,0.26,0.16,0.26,0.38,0.26h0.45v0.21
		c-0.44-0.01-0.77-0.02-1.11-0.02c-0.33,0-0.66,0.01-0.95,0.02V22.95z"></path>
	<path class="st7" d="M24.08,22.05c0.1,0.53,0.42,0.97,1,0.97c0.47,0,0.64-0.29,0.64-0.57c0-0.94-1.74-0.64-1.74-1.92
		c0-0.45,0.36-1.02,1.24-1.02c0.25,0,0.6,0.07,0.91,0.23l0.06,0.81h-0.18c-0.08-0.5-0.36-0.79-0.87-0.79
		c-0.32,0-0.62,0.18-0.62,0.53c0,0.93,1.85,0.65,1.85,1.9c0,0.53-0.42,1.08-1.37,1.08c-0.32,0-0.69-0.11-0.97-0.27l-0.09-0.92
		L24.08,22.05z"></path>
	<path class="st7" d="M33.56,19.03h-0.2c-0.15-0.93-0.81-1.31-1.7-1.31c-0.92,0-2.25,0.61-2.25,2.53c0,1.61,1.15,2.77,2.37,2.77
		c0.79,0,1.44-0.54,1.6-1.38l0.18,0.05l-0.18,1.16c-0.33,0.21-1.24,0.42-1.76,0.42c-1.86,0-3.04-1.2-3.04-3
		c0-1.63,1.46-2.81,3.02-2.81c0.65,0,1.27,0.21,1.88,0.42L33.56,19.03z"></path>
	<path class="st7" d="M33.85,22.95H34c0.22,0,0.38,0,0.38-0.26v-4.44c0-0.52-0.12-0.53-0.42-0.62V17.5c0.32-0.1,0.65-0.25,0.82-0.34
		c0.09-0.05,0.15-0.09,0.17-0.09c0.05,0,0.06,0.05,0.06,0.11v5.5c0,0.26,0.18,0.26,0.4,0.26h0.13v0.21c-0.27,0-0.55-0.02-0.84-0.02
		s-0.57,0.01-0.87,0.02V22.95z"></path>
	<path class="st7" d="M38.97,22.71c0,0.14,0.09,0.15,0.22,0.15c0.1,0,0.21-0.01,0.32-0.01v0.17c-0.34,0.03-1,0.2-1.15,0.25
		l-0.04-0.02V22.6c-0.48,0.39-0.84,0.67-1.41,0.67c-0.43,0-0.88-0.28-0.88-0.95v-2.04c0-0.21-0.03-0.41-0.48-0.45v-0.15
		c0.29-0.01,0.92-0.06,1.03-0.06c0.09,0,0.09,0.06,0.09,0.23v2.06c0,0.24,0,0.92,0.69,0.92c0.27,0,0.63-0.21,0.96-0.49v-2.14
		c0-0.16-0.38-0.25-0.67-0.33v-0.14c0.72-0.05,1.16-0.11,1.24-0.11c0.06,0,0.06,0.06,0.06,0.14V22.71z"></path>
	<path class="st7" d="M40.55,22.25c0,0.3,0.29,0.81,0.82,0.81c0.85,0,1.21-0.84,1.21-1.55c0-0.86-0.65-1.58-1.27-1.58
		c-0.3,0-0.54,0.19-0.76,0.37V22.25z M40.55,20.09c0.32-0.27,0.75-0.57,1.19-0.57c0.92,0,1.48,0.81,1.48,1.67
		c0,1.04-0.76,2.09-1.9,2.09c-0.59,0-0.9-0.19-1.11-0.28l-0.24,0.18l-0.17-0.09c0.07-0.47,0.11-0.93,0.11-1.42v-3.43
		c0-0.52-0.12-0.53-0.42-0.62V17.5c0.32-0.1,0.65-0.25,0.82-0.34c0.09-0.05,0.15-0.09,0.18-0.09c0.05,0,0.06,0.05,0.06,0.11V20.09z"></path>
	<path class="st7" d="M6.18,27.79h0.06c0.16,0,0.32-0.02,0.32-0.25v-2.27c0-0.23-0.16-0.25-0.32-0.25H6.18v-0.13
		c0.17,0,0.43,0.02,0.64,0.02c0.22,0,0.48-0.02,0.68-0.02v0.13H7.44c-0.16,0-0.32,0.02-0.32,0.25v2.27c0,0.23,0.17,0.25,0.32,0.25
		H7.5v0.13c-0.21,0-0.47-0.02-0.68-0.02c-0.21,0-0.47,0.02-0.64,0.02V27.79z"></path>
	<path class="st7" d="M7.48,27.9l0-0.09H7.44c-0.15,0-0.34-0.03-0.34-0.27v-2.27C7.1,25.03,7.29,25,7.44,25h0.04v-0.09
		c-0.2,0-0.45,0.02-0.66,0.02c-0.21,0-0.46-0.02-0.62-0.02V25h0.04c0.15,0,0.34,0.03,0.34,0.27v2.27c0,0.24-0.18,0.27-0.34,0.27H6.2
		v0.09c0.17,0,0.41-0.02,0.62-0.02C7.03,27.88,7.28,27.9,7.48,27.9 M7.5,27.93c-0.21,0-0.47-0.02-0.68-0.02
		c-0.21,0-0.47,0.02-0.64,0.02H6.16v-0.02v-0.13v-0.02h0.02h0.06c0.16,0,0.3-0.02,0.3-0.23v-2.27c0-0.21-0.14-0.23-0.3-0.23H6.16
		v-0.02v-0.15h0.02c0.17,0,0.43,0.02,0.64,0.02c0.22,0,0.48-0.02,0.68-0.02h0.02v0.02v0.15H7.5H7.44c-0.16,0-0.3,0.02-0.3,0.23v2.27
		c0,0.21,0.14,0.22,0.3,0.23h0.08v0.02v0.15H7.5z"></path>
	<path class="st7" d="M10.48,27.06L10.48,27.06l0.01-1.63c0-0.36-0.25-0.41-0.38-0.41h-0.1v-0.13c0.2,0,0.4,0.02,0.61,0.02
		c0.18,0,0.36-0.02,0.53-0.02v0.13h-0.06c-0.18,0-0.39,0.03-0.39,0.55v1.97c0,0.15,0,0.3,0.03,0.44h-0.16l-2.23-2.49v1.79
		c0,0.38,0.07,0.51,0.41,0.51h0.07v0.13c-0.19,0-0.37-0.02-0.56-0.02c-0.19,0-0.39,0.02-0.59,0.02v-0.13h0.06
		c0.3,0,0.39-0.2,0.39-0.55v-1.83c0-0.24-0.2-0.39-0.39-0.39H7.67v-0.13c0.16,0,0.33,0.02,0.5,0.02c0.13,0,0.26-0.02,0.39-0.02
		L10.48,27.06z"></path>
	<path class="st7" d="M10.47,27.05L10.47,27.05L10.47,27.05L10.47,27.05z M10.48,27.06l0.01-0.01L10.48,27.06z M10.57,27.96h0.14
		c-0.02-0.13-0.02-0.27-0.02-0.42v-1.97c0-0.52,0.22-0.57,0.4-0.57h0.05v-0.09c-0.17,0-0.34,0.02-0.51,0.02
		c-0.2,0-0.39-0.02-0.59-0.02l0,0.09h0.08c0.13,0,0.4,0.06,0.4,0.43l-0.01,1.64l-0.01,0.01l-0.01,0.01l-1.93-2.18
		c-0.13,0-0.25,0.02-0.39,0.02c-0.16,0-0.32-0.02-0.48-0.02l0,0.09h0.04c0.2,0,0.41,0.16,0.41,0.41v1.83c0,0.35-0.1,0.57-0.41,0.57
		l-0.04,0v0.09c0.19,0,0.38-0.02,0.57-0.02c0.18,0,0.36,0.02,0.54,0.02v-0.09H8.74c-0.34,0-0.43-0.15-0.43-0.53v-1.84L10.57,27.96z
		 M10.73,28l-0.18-0.01l-2.2-2.45v1.74c0.01,0.38,0.06,0.48,0.39,0.49h0.09v0.02v0.15H8.81c-0.19,0-0.37-0.02-0.56-0.02
		c-0.19,0-0.39,0.02-0.59,0.02H7.65v-0.02v-0.15h0.02h0.06c0.29,0,0.37-0.19,0.37-0.53v-1.83c0-0.23-0.19-0.37-0.38-0.37H7.65v-0.02
		v-0.15h0.02c0.17,0,0.34,0.02,0.5,0.02c0.13,0,0.25-0.02,0.4-0.01l1.91,2.14v-1.59c0-0.34-0.23-0.39-0.36-0.39H10v-0.02v-0.15h0.02
		c0.2,0,0.4,0.02,0.61,0.02c0.18,0,0.35-0.02,0.53-0.02h0.02v0.02v0.15h-0.02h-0.06c-0.18,0-0.36,0.02-0.37,0.53v1.97
		c0,0.15,0,0.3,0.03,0.43l0,0.02H10.73z"></path>
	<path class="st7" d="M11.81,25.11c-0.33,0-0.34,0.08-0.4,0.39h-0.13c0.02-0.12,0.04-0.24,0.05-0.37c0.02-0.12,0.03-0.24,0.03-0.37
		h0.1c0.04,0.13,0.14,0.13,0.26,0.13h2.24c0.12,0,0.23,0,0.23-0.13l0.1,0.02c-0.02,0.12-0.03,0.23-0.05,0.35
		c-0.01,0.12-0.01,0.23-0.01,0.35l-0.13,0.05c-0.01-0.16-0.03-0.42-0.32-0.42h-0.71v2.31c0,0.33,0.15,0.37,0.36,0.37h0.08v0.13
		c-0.17,0-0.47-0.02-0.71-0.02c-0.26,0-0.56,0.02-0.73,0.02v-0.13h0.08c0.24,0,0.36-0.02,0.36-0.36v-2.32H11.81z"></path>
	<path class="st7" d="M13.51,27.93c-0.17,0-0.47-0.02-0.71-0.02c-0.26,0-0.56,0.02-0.73,0.02h-0.02v-0.02v-0.15h0.02h0.08
		c0.24-0.01,0.34-0.01,0.34-0.34v-2.3h-0.69v-0.02v-0.02h0.73v2.33c0,0.35-0.14,0.38-0.38,0.38h-0.06v0.09
		c0.17,0,0.46-0.02,0.71-0.02c0.23,0,0.52,0.02,0.69,0.02v-0.09h-0.06c-0.21,0-0.38-0.05-0.38-0.39v-2.33h0.73
		c0.29,0,0.33,0.25,0.34,0.41l0.09-0.03c0-0.11,0-0.23,0.01-0.34c0.01-0.11,0.03-0.22,0.04-0.33l-0.07-0.01
		c-0.02,0.13-0.14,0.13-0.25,0.13h-2.24h-0.02c-0.1,0-0.21,0-0.25-0.13h-0.07c0,0.12-0.01,0.24-0.03,0.35
		c-0.01,0.12-0.03,0.23-0.05,0.35h0.09c0.06-0.3,0.09-0.4,0.42-0.4v0.02v0.02c-0.32,0.01-0.31,0.06-0.38,0.38l0,0.01H11.4h-0.15
		l0-0.02c0.02-0.12,0.04-0.24,0.05-0.37c0.02-0.12,0.03-0.24,0.03-0.36v-0.02h0.02h0.12l0,0.01c0.03,0.11,0.11,0.11,0.22,0.11h0.02
		h2.24c0.12,0,0.21,0,0.22-0.12l0-0.02l0.02,0l0.12,0.02l0,0.02c-0.02,0.12-0.03,0.23-0.05,0.35c-0.01,0.12-0.01,0.23-0.01,0.35
		v0.01l-0.01,0.01l-0.15,0.06l0-0.03c-0.01-0.16-0.03-0.4-0.3-0.4h-0.69v2.29c0,0.33,0.13,0.35,0.34,0.35h0.1v0.02v0.15H13.51z"></path>
	<path class="st7" d="M14.43,27.79h0.06c0.16,0,0.32-0.02,0.32-0.25v-2.27c0-0.23-0.16-0.25-0.32-0.25h-0.06v-0.13
		c0.26,0,0.72,0.02,1.08,0.02c0.36,0,0.82-0.02,1.11-0.02c-0.01,0.19,0,0.47,0.01,0.66l-0.13,0.03c-0.02-0.28-0.07-0.51-0.53-0.51
		h-0.6v1.14h0.52c0.26,0,0.32-0.15,0.34-0.38h0.13c-0.01,0.17-0.01,0.34-0.01,0.51c0,0.16,0,0.33,0.01,0.49l-0.13,0.03
		c-0.03-0.26-0.04-0.43-0.34-0.43h-0.52v1.01c0,0.28,0.25,0.28,0.53,0.28c0.52,0,0.75-0.03,0.88-0.53l0.12,0.03
		c-0.06,0.23-0.11,0.46-0.15,0.69c-0.28,0-0.78-0.02-1.17-0.02c-0.39,0-0.91,0.02-1.15,0.02V27.79z"></path>
	<path class="st7" d="M16.73,27.9c0.04-0.22,0.09-0.44,0.14-0.66l-0.09-0.02c-0.13,0.49-0.38,0.53-0.89,0.52
		c-0.27,0-0.55,0-0.55-0.3v-1.03h0.54c0.3,0,0.33,0.18,0.35,0.43l0.09-0.02c-0.01-0.16-0.01-0.32-0.01-0.48c0-0.16,0-0.33,0.01-0.49
		h-0.09c-0.02,0.23-0.09,0.38-0.36,0.38h-0.53v-1.17h0.62c0.45,0,0.53,0.23,0.55,0.5l0.09-0.02c-0.01-0.12-0.01-0.28-0.01-0.42
		c0-0.07,0-0.14,0-0.21c-0.29,0-0.73,0.02-1.09,0.02c-0.36,0-0.79-0.02-1.06-0.02V25h0.04c0.15,0,0.34,0.03,0.34,0.27v2.27
		c0,0.24-0.19,0.27-0.34,0.27h-0.04v0.09c0.25,0,0.75-0.02,1.13-0.02C15.96,27.88,16.45,27.9,16.73,27.9 M16.75,27.93
		c-0.28,0-0.78-0.02-1.17-0.02c-0.39,0-0.91,0.02-1.15,0.02h-0.02v-0.02v-0.13v-0.02h0.02h0.06c0.16,0,0.3-0.02,0.3-0.23v-2.27
		c0-0.21-0.14-0.23-0.3-0.23h-0.08v-0.02v-0.15h0.02c0.26,0,0.72,0.02,1.08,0.02c0.36,0,0.81-0.02,1.11-0.02h0.02l0,0.02
		c0,0.07,0,0.14,0,0.22c0,0.15,0,0.31,0.01,0.44l0,0.02l-0.01,0l-0.15,0.04l0-0.02c-0.03-0.28-0.06-0.49-0.51-0.49h-0.58l0,1.1h0.5
		c0.25,0,0.29-0.13,0.32-0.36l0-0.02h0.02h0.15l0,0.02c-0.01,0.17-0.01,0.34-0.01,0.51c0,0.16,0.01,0.33,0.01,0.49l0,0.02l-0.02,0
		l-0.15,0.03l0-0.02c-0.03-0.27-0.03-0.41-0.32-0.41h-0.5v0.99c0,0.26,0.23,0.26,0.51,0.26c0.52,0,0.73-0.03,0.86-0.52l0-0.02
		l0.02,0l0.14,0.04l0,0.02c-0.06,0.23-0.11,0.46-0.15,0.69l0,0.02H16.75z"></path>
	<path class="st7" d="M18.04,26.36h0.21c0.43,0,0.67-0.16,0.67-0.68c0-0.39-0.25-0.63-0.63-0.63c-0.13,0-0.19,0.01-0.25,0.02V26.36z
		 M17.48,25.35c0-0.32-0.17-0.33-0.31-0.33h-0.08v-0.13c0.14,0,0.41,0.02,0.67,0.02c0.26,0,0.47-0.02,0.7-0.02
		c0.55,0,1.03,0.15,1.03,0.76c0,0.39-0.26,0.63-0.6,0.76l0.74,1.11c0.12,0.18,0.21,0.23,0.42,0.26v0.13c-0.14,0-0.28-0.02-0.42-0.02
		c-0.13,0-0.27,0.02-0.41,0.02c-0.33-0.44-0.62-0.91-0.9-1.41h-0.29v0.93c0,0.33,0.16,0.35,0.35,0.35h0.08v0.13
		c-0.25,0-0.5-0.02-0.75-0.02c-0.21,0-0.41,0.02-0.63,0.02v-0.13h0.08c0.16,0,0.31-0.07,0.31-0.23V25.35z"></path>
	<path class="st7" d="M18.25,26.34c0.43,0,0.65-0.15,0.65-0.66c0-0.38-0.24-0.61-0.62-0.61c-0.12,0-0.17,0.01-0.23,0.02v1.26H18.25z
		 M18.03,26.37h-0.02v-1.33l0.02,0c0.06,0,0.12-0.02,0.25-0.02c0.39,0,0.65,0.26,0.65,0.65c0,0.52-0.25,0.69-0.69,0.69H18.03z
		 M18.03,26.49h0.3l0.01,0.01c0.28,0.5,0.57,0.97,0.89,1.4c0.13,0,0.27-0.02,0.41-0.02c0.14,0,0.27,0.01,0.41,0.02V27.8
		c-0.2-0.03-0.3-0.09-0.42-0.27l-0.75-1.13l0.02-0.01c0.34-0.13,0.59-0.37,0.59-0.75c0-0.6-0.47-0.74-1.01-0.74
		c-0.23,0-0.44,0.02-0.7,0.02c-0.25,0-0.51-0.02-0.65-0.02V25h0.06c0.13,0,0.33,0.02,0.33,0.35v2.2c0,0.17-0.16,0.25-0.33,0.25
		h-0.06v0.09c0.21,0,0.41-0.02,0.61-0.02c0.24,0,0.49,0.02,0.73,0.02v-0.09h-0.06c-0.2,0-0.37-0.02-0.37-0.37v-0.95H18.03z
		 M20.06,27.93c-0.15,0-0.28-0.02-0.43-0.02c-0.13,0-0.27,0.02-0.42,0.01c-0.33-0.44-0.62-0.9-0.9-1.4h-0.26v0.91
		c0,0.33,0.14,0.32,0.34,0.33h0.1v0.02v0.15h-0.02c-0.25,0-0.5-0.02-0.75-0.02c-0.21,0-0.41,0.02-0.63,0.02h-0.02v-0.02v-0.15h0.02
		h0.08c0.16,0,0.29-0.07,0.29-0.21v-2.2c0-0.31-0.15-0.31-0.29-0.31h-0.1v-0.02v-0.15h0.02c0.14,0,0.41,0.02,0.67,0.02
		c0.26,0,0.47-0.02,0.7-0.02c0.55,0,1.05,0.15,1.05,0.78c0,0.39-0.26,0.64-0.59,0.77l0.73,1.09c0.12,0.18,0.2,0.22,0.41,0.25l0.02,0
		v0.02v0.15H20.06z"></path>
	<path class="st7" d="M23,27.06L23,27.06l0.01-1.63c0-0.36-0.25-0.41-0.38-0.41h-0.1v-0.13c0.2,0,0.4,0.02,0.61,0.02
		c0.18,0,0.35-0.02,0.53-0.02v0.13h-0.07c-0.18,0-0.39,0.03-0.39,0.55v1.97c0,0.15,0,0.3,0.03,0.44h-0.16l-2.23-2.49v1.79
		c0,0.38,0.07,0.51,0.41,0.51h0.07v0.13c-0.19,0-0.37-0.02-0.56-0.02c-0.2,0-0.4,0.02-0.59,0.02v-0.13h0.06
		c0.3,0,0.39-0.2,0.39-0.55v-1.83c0-0.24-0.2-0.39-0.39-0.39h-0.06v-0.13c0.16,0,0.33,0.02,0.5,0.02c0.13,0,0.26-0.02,0.39-0.02
		L23,27.06z"></path>
	<path class="st7" d="M22.99,27.05L22.99,27.05L22.99,27.05L22.99,27.05z M23,27.06l0.01-0.01L23,27.06z M23.09,27.96h0.14
		c-0.02-0.13-0.02-0.27-0.02-0.42v-1.97c0-0.52,0.22-0.57,0.41-0.57h0.05v-0.09c-0.17,0-0.34,0.02-0.51,0.02
		c-0.2,0-0.39-0.02-0.59-0.02V25h0.08c0.13,0,0.4,0.06,0.4,0.43l-0.01,1.64l-0.01,0.01L23,27.09l-1.93-2.18
		c-0.13,0-0.25,0.02-0.39,0.02c-0.16,0-0.32-0.02-0.48-0.02V25h0.04c0.2,0,0.41,0.15,0.41,0.41v1.83c0,0.35-0.1,0.57-0.41,0.57
		l-0.04,0v0.09c0.19,0,0.38-0.02,0.57-0.02c0.18,0,0.36,0.02,0.54,0.02v-0.09h-0.05c-0.34,0-0.43-0.15-0.43-0.53v-1.83L23.09,27.96z
		 M23.25,28l-0.18-0.01l-2.2-2.45v1.74c0.01,0.38,0.06,0.48,0.39,0.49h0.09v0.02v0.15h-0.02c-0.19,0-0.37-0.02-0.56-0.02
		c-0.19,0-0.39,0.02-0.59,0.02h-0.02v-0.02v-0.15h0.02h0.06c0.29,0,0.37-0.19,0.37-0.53v-1.83c0-0.23-0.19-0.37-0.37-0.37h-0.08
		v-0.02v-0.15h0.02c0.17,0,0.33,0.02,0.5,0.02c0.13,0,0.25-0.02,0.4-0.01l1.91,2.15v-1.59c0-0.34-0.23-0.39-0.36-0.39h-0.11v-0.02
		v-0.15h0.02c0.2,0,0.4,0.02,0.61,0.02c0.18,0,0.35-0.02,0.53-0.02h0.02v0.02v0.15h-0.02h-0.06c-0.18,0-0.36,0.02-0.37,0.53v1.97
		c0,0.15,0,0.3,0.03,0.43l0,0.02H23.25z"></path>
	<path class="st7" d="M25.01,25.38L25.01,25.38l-0.41,1.23h0.81L25.01,25.38z M24.37,27.3c-0.04,0.15-0.1,0.26-0.1,0.34
		c0,0.13,0.18,0.15,0.33,0.15h0.05v0.13c-0.17-0.01-0.35-0.02-0.53-0.02c-0.16,0-0.31,0.01-0.47,0.02v-0.13h0.03
		c0.17,0,0.31-0.1,0.38-0.28l0.69-1.99c0.06-0.16,0.13-0.38,0.16-0.54c0.14-0.05,0.31-0.13,0.39-0.19c0.01,0,0.02-0.01,0.03-0.01
		c0.01,0,0.02,0,0.03,0.01c0.01,0.03,0.03,0.07,0.04,0.11l0.8,2.27c0.05,0.15,0.1,0.31,0.16,0.44c0.05,0.12,0.14,0.17,0.29,0.17
		h0.03v0.13c-0.2-0.01-0.39-0.02-0.6-0.02c-0.21,0-0.43,0.01-0.65,0.02v-0.13h0.05c0.1,0,0.27-0.02,0.27-0.13
		c0-0.06-0.04-0.17-0.09-0.31l-0.17-0.5h-0.98L24.37,27.3z"></path>
	<path class="st7" d="M24.99,25.38L24.99,25.38L24.99,25.38z M24.62,26.58h0.76L25,25.42L24.62,26.58z M24.57,26.62l0.42-1.26H25
		h0.01v0.02l0,0l0,0v-0.02h0.01l0.41,1.26H24.57z M25.45,27.9c0.21-0.01,0.43-0.02,0.63-0.02c0.2,0,0.39,0.01,0.58,0.02v-0.09h-0.01
		c-0.15,0-0.25-0.06-0.3-0.18c-0.06-0.13-0.11-0.29-0.16-0.44l-0.8-2.27c-0.01-0.03-0.03-0.07-0.04-0.1c0,0,0,0-0.01,0h-0.01
		c-0.01,0-0.01,0-0.03,0.01c-0.08,0.05-0.26,0.14-0.39,0.17c-0.03,0.16-0.1,0.38-0.16,0.54l-0.69,1.99
		c-0.07,0.19-0.22,0.3-0.39,0.29h-0.01v0.09c0.15-0.01,0.3-0.02,0.45-0.02c0.17,0,0.34,0.01,0.5,0.02v-0.09H24.6
		c-0.14,0-0.34-0.02-0.34-0.17c0-0.09,0.05-0.2,0.1-0.34l0.02,0.01l-0.02-0.01l0.14-0.46h1.01l0.17,0.52
		c0.05,0.14,0.09,0.25,0.09,0.32c-0.01,0.13-0.19,0.14-0.29,0.14h-0.03V27.9z M26.68,27.93c-0.19-0.01-0.39-0.02-0.6-0.02
		c-0.21,0-0.43,0.01-0.65,0.02l-0.02,0v-0.02v-0.15h0.02h0.05c0.1,0,0.25-0.02,0.25-0.11c0-0.05-0.04-0.17-0.09-0.31l-0.16-0.49
		h-0.96l-0.13,0.44c-0.04,0.15-0.1,0.26-0.1,0.33c0,0.11,0.16,0.13,0.31,0.13h0.07v0.02v0.15l-0.02,0
		c-0.17-0.01-0.35-0.02-0.52-0.02c-0.16,0-0.31,0.01-0.47,0.02l-0.02,0v-0.02v-0.15h0.02h0.03c0.16,0,0.3-0.09,0.36-0.27l0.69-1.99
		c0.06-0.16,0.13-0.38,0.17-0.55c0.14-0.05,0.31-0.13,0.39-0.19c0.01,0,0.02-0.01,0.04-0.01c0.01,0,0.03,0,0.05,0.03
		c0.01,0.04,0.03,0.07,0.04,0.11l0.8,2.27c0.05,0.15,0.1,0.31,0.16,0.44c0.05,0.12,0.13,0.16,0.27,0.16h0.04v0.02v0.15L26.68,27.93z
		"></path>
	<path class="st7" d="M26.87,25.11c-0.33,0-0.34,0.08-0.4,0.39h-0.13c0.02-0.12,0.04-0.24,0.05-0.37c0.02-0.12,0.03-0.24,0.03-0.37
		h0.1c0.03,0.13,0.14,0.13,0.26,0.13h2.24c0.12,0,0.22,0,0.23-0.13l0.1,0.02c-0.02,0.12-0.03,0.23-0.05,0.35
		c-0.01,0.12-0.01,0.23-0.01,0.35l-0.13,0.05c-0.01-0.16-0.03-0.42-0.32-0.42h-0.71v2.31c0,0.33,0.15,0.37,0.36,0.37h0.08v0.13
		c-0.17,0-0.47-0.02-0.71-0.02c-0.26,0-0.56,0.02-0.73,0.02v-0.13h0.08c0.24,0,0.36-0.02,0.36-0.36v-2.32H26.87z"></path>
	<path class="st7" d="M28.58,27.93c-0.17,0-0.47-0.02-0.71-0.02c-0.26,0-0.56,0.02-0.73,0.02h-0.02v-0.02v-0.15h0.02h0.08
		c0.24-0.01,0.33-0.01,0.34-0.34l0-2.3h-0.69v-0.02v-0.02h0.73v2.33c0,0.35-0.14,0.38-0.38,0.38h-0.06v0.09
		c0.17,0,0.46-0.02,0.71-0.02c0.23,0,0.52,0.02,0.69,0.02l0-0.09H28.5c-0.21,0-0.38-0.05-0.38-0.39v-2.33h0.73
		c0.29,0,0.33,0.25,0.34,0.41l0.09-0.03c0-0.11,0-0.23,0.01-0.34c0.01-0.11,0.03-0.22,0.04-0.33l-0.07-0.01
		c-0.02,0.13-0.14,0.13-0.25,0.13h-2.24h-0.02c-0.1,0-0.21,0-0.25-0.13h-0.07c0,0.12-0.01,0.24-0.03,0.35
		c-0.01,0.12-0.03,0.23-0.05,0.35h0.09c0.06-0.3,0.09-0.4,0.42-0.4v0.02v0.02c-0.32,0.01-0.31,0.06-0.39,0.38l0,0.01h-0.01h-0.15
		l0-0.02c0.02-0.12,0.04-0.24,0.05-0.37c0.02-0.12,0.03-0.24,0.03-0.37v-0.02h0.02h0.12l0,0.01c0.03,0.11,0.11,0.11,0.22,0.11
		c0.01,0,0.01,0,0.02,0h2.24c0.12,0,0.21,0,0.21-0.12l0-0.02l0.02,0l0.12,0.02l0,0.02c-0.02,0.12-0.03,0.23-0.05,0.35
		c-0.01,0.12-0.01,0.23-0.01,0.35v0.01l-0.01,0.01l-0.15,0.06l0-0.03c-0.01-0.16-0.03-0.4-0.3-0.4h-0.69v2.29
		c0,0.33,0.13,0.35,0.34,0.35h0.1v0.02v0.15H28.58z"></path>
	<path class="st7" d="M29.52,27.79h0.06c0.16,0,0.32-0.02,0.32-0.25v-2.27c0-0.23-0.16-0.25-0.32-0.25h-0.06v-0.13
		c0.17,0,0.43,0.02,0.64,0.02c0.22,0,0.48-0.02,0.68-0.02v0.13h-0.06c-0.16,0-0.32,0.02-0.32,0.25v2.27c0,0.23,0.17,0.25,0.32,0.25
		h0.06v0.13c-0.21,0-0.47-0.02-0.68-0.02c-0.21,0-0.47,0.02-0.64,0.02V27.79z"></path>
	<path class="st7" d="M30.82,27.9v-0.09h-0.04c-0.16,0-0.34-0.03-0.34-0.27v-2.27c0-0.24,0.18-0.27,0.34-0.27h0.04v-0.09
		c-0.2,0-0.45,0.02-0.66,0.02c-0.21,0-0.45-0.02-0.62-0.02V25h0.04c0.15,0,0.34,0.03,0.34,0.27v2.27c0,0.24-0.19,0.27-0.34,0.27
		h-0.04v0.09c0.17,0,0.41-0.02,0.62-0.02C30.36,27.88,30.62,27.9,30.82,27.9 M30.84,27.93c-0.21,0-0.47-0.02-0.69-0.02
		c-0.21,0-0.47,0.02-0.64,0.02H29.5v-0.02v-0.13v-0.02h0.02h0.06c0.16,0,0.3-0.02,0.3-0.23v-2.27c0-0.21-0.14-0.23-0.3-0.23H29.5
		v-0.02v-0.15h0.02c0.17,0,0.43,0.02,0.64,0.02c0.22,0,0.48-0.02,0.68-0.02h0.02v0.02v0.15h-0.02h-0.06c-0.16,0-0.3,0.02-0.3,0.23
		v2.27c0,0.21,0.14,0.23,0.3,0.23h0.08v0.02v0.15H30.84z"></path>
	<path class="st7" d="M32.63,27.79c0.84,0,0.99-0.74,0.99-1.37c0-0.63-0.34-1.4-1.06-1.4c-0.76,0-0.98,0.68-0.98,1.26
		C31.58,27.05,31.93,27.79,32.63,27.79 M32.57,24.83c0.92,0,1.66,0.57,1.66,1.5c0,1-0.72,1.66-1.64,1.66
		c-0.92,0-1.62-0.62-1.62-1.56C30.97,25.52,31.67,24.83,32.57,24.83"></path>
	<path class="st7" d="M31.56,26.27c0-0.58,0.23-1.28,1-1.28c0.74,0,1.08,0.78,1.08,1.42c0,0.63-0.15,1.39-1.01,1.39v-0.02v-0.02
		c0.82,0,0.97-0.72,0.97-1.35c0-0.63-0.34-1.38-1.04-1.38c-0.74,0-0.96,0.66-0.97,1.24c0,0.77,0.35,1.5,1.04,1.5v0.02v0.02
		C31.91,27.81,31.56,27.05,31.56,26.27 M30.95,26.42c0-0.91,0.71-1.62,1.62-1.62v0.02v0.02c-0.89,0-1.58,0.69-1.58,1.58
		c0,0.92,0.69,1.54,1.6,1.54c0.91,0,1.62-0.65,1.62-1.64c0-0.91-0.73-1.48-1.64-1.48v-0.02v-0.02c0.93,0,1.68,0.58,1.68,1.51
		c0,1.01-0.72,1.68-1.66,1.68C31.66,28,30.95,27.37,30.95,26.42"></path>
	<path class="st7" d="M37.15,27.06L37.15,27.06l0.01-1.63c0-0.36-0.25-0.41-0.38-0.41h-0.09v-0.13c0.2,0,0.4,0.02,0.61,0.02
		c0.18,0,0.36-0.02,0.53-0.02v0.13h-0.07c-0.18,0-0.39,0.03-0.39,0.55v1.97c0,0.15,0,0.3,0.03,0.44h-0.16L35,25.49v1.79
		c0,0.38,0.07,0.51,0.41,0.51h0.07v0.13c-0.19,0-0.37-0.02-0.56-0.02c-0.2,0-0.4,0.02-0.59,0.02v-0.13h0.06
		c0.3,0,0.39-0.2,0.39-0.55v-1.83c0-0.24-0.2-0.39-0.39-0.39h-0.06v-0.13c0.17,0,0.33,0.02,0.5,0.02c0.13,0,0.26-0.02,0.39-0.02
		L37.15,27.06z"></path>
	<path class="st7" d="M37.14,27.05L37.14,27.05L37.14,27.05L37.14,27.05z M37.15,27.06l0.01-0.01L37.15,27.06z M37.24,27.96h0.14
		c-0.02-0.13-0.02-0.27-0.02-0.42v-1.97c0-0.52,0.22-0.57,0.4-0.57h0.05v-0.09c-0.17,0-0.34,0.02-0.52,0.02
		c-0.2,0-0.39-0.02-0.59-0.02V25h0.08c0.13,0,0.4,0.06,0.4,0.43l0,1.64l-0.01,0.01l-0.01,0.01l-1.93-2.18
		c-0.13,0-0.25,0.02-0.39,0.02c-0.16,0-0.32-0.02-0.48-0.02V25h0.04c0.2,0,0.41,0.15,0.41,0.41v1.83c0,0.35-0.1,0.57-0.41,0.57
		l-0.04,0v0.09c0.19,0,0.38-0.02,0.57-0.02c0.18,0,0.36,0.02,0.54,0.02v-0.09h-0.06c-0.34,0-0.43-0.15-0.43-0.53v-1.84L37.24,27.96z
		 M37.4,28l-0.18-0.01l-2.2-2.45v1.74c0.01,0.38,0.06,0.48,0.39,0.49h0.09v0.02v0.15h-0.02c-0.19,0-0.37-0.02-0.56-0.02
		c-0.19,0-0.39,0.02-0.59,0.02h-0.02v-0.02v-0.15h0.02h0.06c0.29,0,0.37-0.18,0.37-0.53v-1.83c0-0.23-0.19-0.37-0.38-0.37h-0.07
		v-0.02v-0.15h0.02c0.17,0,0.34,0.02,0.5,0.02c0.13,0,0.25-0.02,0.4-0.01l1.9,2.14v-1.59c0-0.34-0.23-0.39-0.36-0.39h-0.11v-0.02
		v-0.15h0.02c0.2,0,0.4,0.02,0.61,0.02c0.18,0,0.35-0.02,0.53-0.02h0.02v0.02v0.15h-0.02h-0.07c-0.18,0-0.36,0.02-0.37,0.53v1.97
		c0,0.15,0,0.3,0.02,0.43l0,0.02H37.4z"></path>
	<path class="st7" d="M39.16,25.38L39.16,25.38l-0.41,1.23h0.81L39.16,25.38z M38.52,27.3c-0.04,0.15-0.1,0.26-0.1,0.34
		c0,0.13,0.18,0.15,0.33,0.15h0.05v0.13c-0.17-0.01-0.35-0.02-0.53-0.02c-0.16,0-0.31,0.01-0.47,0.02v-0.13h0.02
		c0.17,0,0.31-0.1,0.38-0.28l0.69-1.99c0.06-0.16,0.13-0.38,0.16-0.54c0.14-0.05,0.31-0.13,0.4-0.19c0.01,0,0.02-0.01,0.03-0.01
		c0.01,0,0.02,0,0.03,0.01c0.01,0.03,0.03,0.07,0.04,0.11l0.8,2.27c0.05,0.15,0.1,0.31,0.16,0.44c0.05,0.12,0.14,0.17,0.29,0.17
		h0.03v0.13c-0.2-0.01-0.39-0.02-0.6-0.02c-0.21,0-0.43,0.01-0.65,0.02v-0.13h0.05c0.1,0,0.27-0.02,0.27-0.13
		c0-0.06-0.04-0.17-0.09-0.31l-0.17-0.5h-0.98L38.52,27.3z"></path>
	<path class="st7" d="M39.14,25.38L39.14,25.38L39.14,25.38z M38.77,26.58h0.76l-0.38-1.16L38.77,26.58z M38.72,26.62l0.42-1.26
		h0.01h0.01v0.02l0,0l0,0v-0.02h0.01l0.41,1.26H38.72z M39.6,27.9c0.21-0.01,0.43-0.02,0.63-0.02c0.2,0,0.39,0.01,0.58,0.02l0-0.09
		h-0.01c-0.15,0-0.25-0.06-0.3-0.18c-0.06-0.13-0.11-0.29-0.16-0.44l-0.8-2.27c-0.01-0.03-0.03-0.07-0.04-0.1
		c0-0.01,0-0.01-0.01-0.01H39.5c-0.01,0-0.01,0-0.02,0.01c-0.08,0.05-0.26,0.14-0.39,0.17c-0.03,0.16-0.11,0.38-0.16,0.54
		l-0.69,1.99c-0.07,0.19-0.22,0.3-0.39,0.29h-0.01v0.09c0.15-0.01,0.3-0.02,0.45-0.02c0.17,0,0.34,0.01,0.51,0.02v-0.09h-0.03
		c-0.14,0-0.34-0.02-0.34-0.17c0-0.09,0.05-0.2,0.1-0.34l0.02,0.01l-0.02-0.01l0.14-0.46h1.01l0.17,0.52
		c0.05,0.14,0.09,0.25,0.09,0.32c-0.01,0.13-0.19,0.14-0.29,0.14H39.6V27.9z M40.83,27.93c-0.2-0.01-0.39-0.02-0.6-0.02
		c-0.21,0-0.43,0.01-0.65,0.02l-0.02,0v-0.02v-0.15h0.02h0.05c0.1,0,0.25-0.02,0.25-0.11c0-0.05-0.04-0.17-0.09-0.31l-0.16-0.49
		h-0.96l-0.13,0.44c-0.04,0.15-0.1,0.26-0.09,0.33c0,0.11,0.16,0.13,0.31,0.13h0.07v0.02v0.15l-0.02,0
		c-0.17-0.01-0.35-0.02-0.52-0.02c-0.16,0-0.31,0.01-0.47,0.02l-0.02,0v-0.02v-0.15h0.02h0.02c0.16,0,0.3-0.09,0.36-0.27l0.69-1.99
		c0.06-0.16,0.13-0.38,0.17-0.55c0.14-0.05,0.31-0.13,0.39-0.19c0.01,0,0.02-0.01,0.04-0.01c0.01,0,0.03,0,0.05,0.03
		c0.01,0.03,0.03,0.07,0.04,0.11l0.8,2.27c0.05,0.15,0.1,0.31,0.16,0.44c0.05,0.12,0.13,0.16,0.27,0.16h0.04v0.02v0.15L40.83,27.93z
		"></path>
	<path class="st7" d="M41.93,27.49c0,0.17,0.12,0.23,0.26,0.24c0.18,0.01,0.37,0.01,0.57-0.01c0.18-0.02,0.34-0.13,0.42-0.23
		c0.07-0.1,0.11-0.22,0.13-0.31h0.13c-0.05,0.25-0.11,0.49-0.16,0.74c-0.38,0-0.76-0.02-1.14-0.02c-0.38,0-0.76,0.02-1.14,0.02
		v-0.13h0.06c0.16,0,0.33-0.02,0.33-0.29v-2.23c0-0.23-0.17-0.25-0.33-0.25h-0.06v-0.13c0.23,0,0.46,0.02,0.68,0.02
		c0.22,0,0.44-0.02,0.66-0.02v0.13h-0.11c-0.16,0-0.29,0-0.29,0.23V27.49z"></path>
	<path class="st7" d="M43.26,27.9c0.05-0.24,0.11-0.47,0.15-0.7h-0.09c-0.03,0.09-0.07,0.21-0.13,0.31
		c-0.08,0.11-0.24,0.22-0.43,0.24c-0.11,0.01-0.23,0.02-0.33,0.02c-0.08,0-0.17,0-0.24-0.01c-0.14-0.02-0.28-0.08-0.28-0.26v-2.24
		c0-0.24,0.15-0.25,0.31-0.25h0.09v-0.09c-0.21,0-0.42,0.02-0.64,0.02c-0.22,0-0.44-0.02-0.67-0.02V25h0.04
		c0.15,0,0.34,0.03,0.34,0.27v2.23c0,0.28-0.19,0.31-0.34,0.31H41v0.09c0.37,0,0.75-0.02,1.13-0.02
		C42.51,27.88,42.88,27.9,43.26,27.9 M43.28,27.93c-0.38,0-0.76-0.02-1.14-0.02c-0.38,0-0.76,0.02-1.15,0.02h-0.02v-0.02v-0.15h0.02
		h0.06c0.16,0,0.31-0.01,0.31-0.27v-2.23c0-0.21-0.15-0.23-0.31-0.23h-0.08v-0.02v-0.15h0.02c0.23,0,0.46,0.02,0.69,0.02
		c0.22,0,0.44-0.02,0.66-0.02h0.02v0.02v0.15h-0.02h-0.11c-0.17,0-0.27,0-0.28,0.22v2.24c0,0.16,0.11,0.21,0.24,0.22
		c0.08,0.01,0.16,0.01,0.24,0.01c0.11,0,0.22-0.01,0.33-0.02c0.18-0.02,0.33-0.12,0.4-0.23c0.07-0.09,0.1-0.21,0.13-0.31l0-0.01
		h0.01h0.15l0,0.02c-0.05,0.25-0.11,0.49-0.16,0.74l0,0.01H43.28z"></path>
	<path class="st7" d="M43.31,25.23h0.05c0.06,0,0.09-0.04,0.09-0.12c0-0.07-0.04-0.1-0.09-0.1h-0.05V25.23z M43.16,25.47v-0.02
		c0.06-0.01,0.07-0.01,0.07-0.04v-0.34c0-0.05-0.01-0.06-0.06-0.06v-0.02h0.23c0.08,0,0.15,0.04,0.15,0.12
		c0,0.07-0.04,0.12-0.11,0.14l0.07,0.1c0.03,0.05,0.07,0.09,0.1,0.11v0.01h-0.09c-0.04,0-0.08-0.09-0.16-0.21h-0.05v0.15
		c0,0.03,0.01,0.03,0.07,0.04v0.02H43.16z M43.38,25.6c0.2,0,0.36-0.17,0.36-0.37c0-0.2-0.15-0.37-0.36-0.37
		c-0.21,0-0.36,0.18-0.36,0.37C43.02,25.42,43.18,25.6,43.38,25.6 M43.38,24.77c0.26,0,0.46,0.2,0.46,0.46
		c0,0.26-0.2,0.46-0.46,0.46c-0.26,0-0.46-0.2-0.46-0.46C42.93,24.97,43.12,24.77,43.38,24.77"></path>
</g>
</svg>