<svg version="1.1" id="Camada_1" xmlns="http://www.w3.org/2000/svg" xmlns:xlink="http://www.w3.org/1999/xlink" x="0px" y="0px" viewBox="0 0 50 30" style="enable-background:new 0 0 50 30;" xml:space="preserve">
<style type="text/css">
	.st0{fill-rule:evenodd;clip-rule:evenodd;fill:#FFFFFF;}
	.st1{fill:#161615;}
	.st2{fill:#9B3F1E;}
	.st3{fill:#A96425;}
	.st4{fill:#BF9731;}
	.st5{fill-rule:evenodd;clip-rule:evenodd;fill:#016FD0;}
	.st6{fill-rule:evenodd;clip-rule:evenodd;fill:#161615;}
	.st7{fill:#2C387D;}
	.st8{fill:#FFFFFF;}
	.st9{fill-rule:evenodd;clip-rule:evenodd;fill:#050013;stroke:#231F20;stroke-width:0.5669;stroke-miterlimit:22.9256;}
	.st10{fill-rule:evenodd;clip-rule:evenodd;fill:#009DD7;}
	.st11{fill-rule:evenodd;clip-rule:evenodd;fill:#FFF200;}
	.st12{fill-rule:evenodd;clip-rule:evenodd;fill:#E33206;}
	.st13{fill:url(#SVGID_1_);}
	.st14{fill:url(#SVGID_2_);}
	.st15{fill:url(#SVGID_3_);}
	.st16{fill:url(#SVGID_4_);}
	.st17{fill-rule:evenodd;clip-rule:evenodd;fill:#322466;}
	.st18{fill-rule:evenodd;clip-rule:evenodd;fill:#E7E740;}
	.st19{fill-rule:evenodd;clip-rule:evenodd;fill:#9A3E1C;}
	.st20{fill-rule:evenodd;clip-rule:evenodd;fill:#322466;stroke:#322466;stroke-width:0.216;stroke-miterlimit:22.9256;}
	.st21{fill-rule:evenodd;clip-rule:evenodd;fill:#FFFFFF;stroke:#161615;stroke-width:0.216;stroke-miterlimit:22.9256;}
	.st22{fill-rule:evenodd;clip-rule:evenodd;fill:url(#SVGID_5_);}
	.st23{fill-rule:evenodd;clip-rule:evenodd;fill:url(#SVGID_6_);}
	.st24{fill-rule:evenodd;clip-rule:evenodd;fill:none;stroke:#161615;stroke-width:0.216;stroke-miterlimit:22.9256;}
	.st25{fill-rule:evenodd;clip-rule:evenodd;fill:url(#SVGID_7_);}
</style>
<rect class="st0" width="50" height="30"></rect>
<g>
	<path class="st21" d="M41.98,22.8c0,2.92-2.36,5.28-5.28,5.28H8.02V7.2c0-2.92,2.36-5.28,5.28-5.28h28.67V22.8z"></path>
	<linearGradient id="SVGID_1_" gradientUnits="userSpaceOnUse" x1="18.9603" y1="15.0003" x2="31.2297" y2="15.0003">
		<stop offset="0" style="stop-color:#432A24"></stop>
		<stop offset="0.2439" style="stop-color:#592F27"></stop>
		<stop offset="0.7415" style="stop-color:#81392D"></stop>
		<stop offset="1" style="stop-color:#903D2F"></stop>
	</linearGradient>
	<path style="fill-rule:evenodd;clip-rule:evenodd;fill:url(#SVGID_1_);" d="M20.35,26.32h5.64h0h0h0h0h0h0l0,0
		c0.01,0,0.02,0,0.04,0c0.01,0,0.02,0,0.04,0l0.04,0l0.04,0c0.01,0,0.02,0,0.04,0c0.01,0,0.02,0,0.04,0l0.04,0c0.01,0,0.02,0,0.04,0
		c0.01,0,0.02,0,0.04,0c0.01,0,0.02,0,0.04,0c0.01,0,0.02,0,0.04,0l0.04-0.01c0.01,0,0.02,0,0.04-0.01c0.01,0,0.02,0,0.04-0.01
		c0.01,0,0.02,0,0.04-0.01l0.04-0.01l0.04-0.01c0.01,0,0.02,0,0.04-0.01c0.01,0,0.02-0.01,0.04-0.01l0.04-0.01l0.04-0.01
		c0.01,0,0.02-0.01,0.04-0.01c0.01,0,0.02-0.01,0.04-0.01c0.01,0,0.02-0.01,0.04-0.01c0.01,0,0.02-0.01,0.04-0.01l0.04-0.01
		l0.04-0.01c0.01,0,0.02-0.01,0.04-0.01c0.01,0,0.02-0.01,0.04-0.01c0.01,0,0.02-0.01,0.04-0.01l0.04-0.01l0.04-0.01
		c0.01,0,0.02-0.01,0.04-0.01c0.01,0,0.02-0.01,0.04-0.01c0.01,0,0.02-0.01,0.04-0.01c0.01,0,0.02-0.01,0.04-0.01l0.04-0.01
		l0.04-0.02L27.4,26c0.01-0.01,0.02-0.01,0.04-0.02c0.01-0.01,0.02-0.01,0.04-0.02c0.01-0.01,0.02-0.01,0.04-0.02
		c0.01-0.01,0.02-0.01,0.04-0.02c0.01-0.01,0.02-0.01,0.04-0.02c0.01-0.01,0.02-0.01,0.04-0.02l0.04-0.02l0.04-0.02l0.04-0.02
		c0.01-0.01,0.02-0.01,0.04-0.02c0.01-0.01,0.02-0.01,0.04-0.02c0.01-0.01,0.02-0.01,0.04-0.02c0.01-0.01,0.02-0.02,0.04-0.02
		c0.01-0.01,0.02-0.01,0.04-0.02c0.01-0.01,0.02-0.02,0.04-0.02c0.01-0.01,0.02-0.02,0.04-0.02c0.01-0.01,0.02-0.02,0.04-0.03
		c0.01-0.01,0.02-0.02,0.04-0.03c0.01-0.01,0.02-0.02,0.04-0.03c0.01-0.01,0.02-0.02,0.04-0.03c0.01-0.01,0.02-0.02,0.04-0.03
		c0.01-0.01,0.02-0.02,0.04-0.03c0.01-0.01,0.02-0.02,0.04-0.03c0.01-0.01,0.02-0.02,0.04-0.03c0.01-0.01,0.02-0.02,0.04-0.03
		s0.02-0.02,0.04-0.03c0.01-0.01,0.02-0.02,0.04-0.03c0.01-0.01,0.02-0.02,0.04-0.03c0.01-0.01,0.02-0.02,0.04-0.03
		c0.01-0.01,0.02-0.02,0.04-0.03c0.01-0.01,0.02-0.02,0.04-0.04c0.01-0.01,0.02-0.02,0.04-0.04c0.01-0.01,0.02-0.02,0.04-0.04
		c0.01-0.01,0.02-0.03,0.04-0.04c0.01-0.01,0.02-0.03,0.04-0.04c0.01-0.01,0.02-0.03,0.04-0.04c0.01-0.01,0.02-0.03,0.04-0.04
		c0.01-0.01,0.02-0.03,0.04-0.04c0.01-0.01,0.02-0.03,0.04-0.04c0.01-0.02,0.02-0.03,0.04-0.05c0.01-0.02,0.02-0.03,0.04-0.05
		c0.01-0.02,0.02-0.03,0.04-0.05c0.01-0.02,0.02-0.03,0.04-0.05c0.01-0.02,0.02-0.03,0.04-0.05c0.01-0.02,0.02-0.04,0.04-0.05
		c0.01-0.02,0.02-0.04,0.04-0.06c0.01-0.02,0.02-0.04,0.04-0.06c0.01-0.02,0.02-0.04,0.04-0.06c0.01-0.02,0.02-0.04,0.04-0.06
		c0.01-0.02,0.02-0.04,0.04-0.07c0.01-0.02,0.02-0.05,0.04-0.07c0.01-0.02,0.02-0.05,0.04-0.08c0.01-0.03,0.02-0.05,0.04-0.08
		c0.01-0.03,0.02-0.06,0.04-0.08c0.01-0.03,0.02-0.06,0.04-0.09c0.01-0.03,0.02-0.07,0.04-0.1c0.01-0.04,0.02-0.07,0.04-0.11
		c0.01-0.04,0.02-0.08,0.04-0.12c0.01-0.05,0.03-0.09,0.04-0.14c0.01-0.06,0.03-0.11,0.04-0.17c0.01-0.07,0.03-0.15,0.04-0.23
		c0.02-0.13,0.03-0.27,0.03-0.4V3.68h-0.03h-0.04h-0.04h-0.04h-0.04h-0.04H29.4h-0.04h-0.04H29.3h-0.04h-0.04h-0.04h-0.04h-0.04
		h-0.04h-0.04H29h-0.04h-0.04H28.9h-0.04h-0.04h-0.04h-0.04h-0.04h-0.04h-0.04H28.6h-0.04h-0.04H28.5h-0.04h-0.04h-0.04h-0.04h-0.04
		h-0.04h-0.04H28.2h-0.04h-0.04H28.1h-0.04h-0.04h-0.04h-0.04h-0.04h-0.04h-0.04H27.8h-0.04h-0.04H27.7h-0.04h-0.04h-0.04h-0.04
		h-0.04h-0.04h-0.04H27.4h-0.04h-0.04H27.3h-0.04h-0.04h-0.04h-0.04h-0.04h-0.04h-0.04h-0.04h-0.04h-0.04H26.9h-0.04h-0.04h-0.04
		h-0.04h-0.04h-0.04h-0.04h-0.04h-0.04h-0.04H26.5h-0.04h-0.04h-0.04h-0.04h-0.04h-0.04h-0.04h-0.04h-0.04h-0.04H26.1h-0.04h-0.04
		h-0.04h-0.04h-0.04h-0.04h-0.04h-0.04h-0.04h-0.04H25.7h-0.04h-0.04h-0.04h-0.04h-0.04h-0.04h-0.04h-0.04h-0.04h-0.04H25.3h-0.04
		h-0.04h-0.04h-0.04h-0.04h-0.04h-0.04h-0.04h-0.04h-0.04H24.9h-0.04h-0.04h-0.04h-0.04h-0.04h-0.04h-0.04h-0.04h-0.04h-0.04H24.5
		h-0.04h-0.04h-0.04h-0.04h-0.04h-0.04h-0.04h-0.04h-0.04h-0.04h-0.02l-0.02,0c-0.01,0-0.02,0-0.04,0c-0.01,0-0.02,0-0.04,0
		c-0.01,0-0.02,0-0.04,0l-0.04,0c-0.01,0-0.02,0-0.04,0c-0.01,0-0.02,0-0.04,0c-0.01,0-0.02,0-0.04,0c-0.01,0-0.02,0-0.04,0l-0.04,0
		c-0.01,0-0.02,0-0.04,0c-0.01,0-0.02,0-0.04,0l-0.04,0l-0.04,0c-0.01,0-0.02,0-0.04,0.01c-0.01,0-0.02,0-0.04,0.01
		c-0.01,0-0.02,0-0.04,0.01l-0.04,0.01l-0.04,0.01c-0.01,0-0.02,0-0.04,0.01c-0.01,0-0.02,0-0.04,0.01c-0.01,0-0.02,0.01-0.04,0.01
		L23.3,3.77c-0.01,0-0.02,0.01-0.04,0.01c-0.01,0-0.02,0.01-0.04,0.01c-0.01,0-0.02,0.01-0.04,0.01c-0.01,0-0.02,0.01-0.04,0.01
		l-0.04,0.01c-0.01,0-0.02,0.01-0.04,0.01c-0.01,0-0.02,0.01-0.04,0.01c-0.01,0-0.02,0.01-0.04,0.01c-0.01,0-0.02,0.01-0.04,0.01
		l-0.04,0.01c-0.01,0-0.02,0.01-0.04,0.01c-0.01,0-0.02,0.01-0.04,0.01c-0.01,0-0.02,0.01-0.04,0.01c-0.01,0-0.02,0.01-0.04,0.01
		c-0.01,0-0.02,0.01-0.04,0.01c-0.01,0-0.02,0.01-0.04,0.01l-0.04,0.01c-0.01,0-0.02,0.01-0.04,0.02C22.63,3.99,22.62,3.99,22.61,4
		C22.59,4,22.58,4.01,22.57,4.01c-0.01,0.01-0.02,0.01-0.04,0.02c-0.01,0.01-0.02,0.01-0.04,0.02c-0.01,0.01-0.02,0.01-0.04,0.02
		l-0.04,0.02L22.39,4.1c-0.01,0.01-0.02,0.01-0.04,0.02c-0.01,0.01-0.02,0.01-0.04,0.02c-0.01,0.01-0.02,0.01-0.04,0.02
		c-0.01,0.01-0.02,0.01-0.04,0.02c-0.01,0.01-0.02,0.01-0.04,0.02c-0.01,0.01-0.02,0.01-0.04,0.02c-0.01,0.01-0.02,0.01-0.04,0.02
		c-0.01,0.01-0.02,0.02-0.04,0.02c-0.01,0.01-0.02,0.02-0.04,0.02c-0.01,0.01-0.02,0.02-0.04,0.02C22.01,4.33,22,4.33,21.99,4.34
		c-0.01,0.01-0.02,0.02-0.04,0.03c-0.01,0.01-0.02,0.02-0.04,0.03c-0.01,0.01-0.02,0.02-0.04,0.03c-0.01,0.01-0.02,0.02-0.04,0.03
		c-0.01,0.01-0.02,0.02-0.04,0.03c-0.01,0.01-0.02,0.02-0.04,0.03c-0.01,0.01-0.02,0.02-0.04,0.03c-0.01,0.01-0.02,0.02-0.04,0.03
		c-0.01,0.01-0.02,0.02-0.04,0.03c-0.01,0.01-0.02,0.02-0.04,0.03c-0.01,0.01-0.02,0.02-0.04,0.03c-0.01,0.01-0.02,0.02-0.04,0.03
		c-0.01,0.01-0.02,0.02-0.04,0.03c-0.01,0.01-0.02,0.02-0.04,0.04c-0.01,0.01-0.02,0.02-0.04,0.04c-0.01,0.01-0.02,0.02-0.04,0.04
		c-0.01,0.01-0.02,0.03-0.04,0.04c-0.01,0.01-0.02,0.03-0.04,0.04c-0.01,0.01-0.02,0.03-0.04,0.04c-0.01,0.01-0.02,0.03-0.04,0.04
		c-0.01,0.01-0.02,0.03-0.04,0.04c-0.01,0.01-0.02,0.03-0.04,0.04c-0.01,0.01-0.02,0.03-0.04,0.05c-0.01,0.02-0.02,0.03-0.04,0.05
		c-0.01,0.02-0.02,0.03-0.04,0.05c-0.01,0.02-0.02,0.03-0.04,0.05c-0.01,0.02-0.02,0.03-0.04,0.05c-0.01,0.02-0.02,0.04-0.04,0.05
		c-0.01,0.02-0.02,0.04-0.04,0.06c-0.01,0.02-0.02,0.04-0.04,0.06c-0.01,0.02-0.02,0.04-0.04,0.06c-0.01,0.02-0.02,0.04-0.04,0.06
		c-0.01,0.02-0.02,0.04-0.04,0.07c-0.01,0.02-0.02,0.05-0.04,0.07c-0.01,0.02-0.02,0.05-0.04,0.07c-0.01,0.03-0.02,0.05-0.04,0.08
		c-0.01,0.03-0.02,0.06-0.04,0.08c-0.01,0.03-0.02,0.06-0.04,0.09c-0.01,0.03-0.02,0.06-0.04,0.1c-0.01,0.04-0.02,0.07-0.04,0.11
		c-0.01,0.04-0.02,0.08-0.04,0.12c-0.01,0.04-0.03,0.09-0.04,0.13c-0.01,0.05-0.03,0.1-0.04,0.16c-0.05,0.25-0.08,0.5-0.08,0.77
		v4.94c0.03-0.02,0.05-0.04,0.08-0.06v0c0.01-0.01,0.02-0.02,0.04-0.03c0.01-0.01,0.02-0.02,0.04-0.03
		c0.01-0.01,0.02-0.02,0.04-0.03c0.01-0.01,0.02-0.02,0.04-0.03c0.01-0.01,0.02-0.02,0.04-0.03c0.01-0.01,0.02-0.02,0.04-0.03
		l0.04-0.02c0.01-0.01,0.02-0.02,0.04-0.02l0.04-0.02c0.01-0.01,0.02-0.02,0.04-0.02c0.01-0.01,0.02-0.02,0.04-0.02
		c0.01-0.01,0.02-0.01,0.04-0.02c0.01-0.01,0.02-0.01,0.04-0.02c0.01-0.01,0.02-0.01,0.04-0.02c0.01-0.01,0.02-0.01,0.04-0.02
		l0.04-0.02l0.04-0.02c0.01-0.01,0.02-0.01,0.04-0.02c0.01-0.01,0.02-0.01,0.04-0.02l0.04-0.02l0.04-0.02l0.04-0.02
		c0.01-0.01,0.02-0.01,0.04-0.02l0.04-0.02l0.04-0.02l0.04-0.02l0.04-0.02l0.04-0.02l0.04-0.02l0.04-0.01l0.04-0.01l0.04-0.01
		c0.01,0,0.02-0.01,0.04-0.01l0.04-0.01c0.01,0,0.02-0.01,0.04-0.01c0.01,0,0.02-0.01,0.04-0.01l0.04-0.01l0.04-0.01
		c0.01,0,0.02-0.01,0.04-0.01l0.04-0.01c0.01,0,0.02-0.01,0.04-0.01l0.04-0.01l0.04-0.01l0.04-0.01l0.04-0.01l0.04-0.01l0.04-0.01
		l0.04-0.01l0.04-0.01l0.04-0.01l0.04-0.01l0.04-0.01l0.04-0.01l0.04-0.01l0.04-0.01l0.04-0.01l0.04-0.01l0.04-0.01l0.04-0.01
		l0.04-0.01l0.04-0.01l0.04-0.01l0.04-0.01l0.04-0.01l0.04-0.01l0.04-0.01l0.04-0.01l0.04-0.01l0.04-0.01l0.04-0.01l0.04-0.01
		l0.04-0.01l0.04-0.01l0.04-0.01l0.04-0.01l0.04-0.01l0.04-0.01l0.04,0l0.04,0l0.04,0l0.04,0l0.04,0l0.04,0l0.04,0l0.04,0l0.04,0
		l0.04,0l0.04,0l0.04,0l0.04,0l0.04,0l0.04,0l0.04,0l0.04,0l0.04,0l0.04,0l0.04,0l0.04,0l0.04,0l0.04,0l0.04,0l0.04,0l0.04,0l0.04,0
		l0.04,0l0.04,0l0.04,0l0.04,0l0.04,0l0.04,0l0.04,0l0.04,0l0.04,0l0.04,0l0.04,0l0.04,0l0.04,0l0.04,0l0.04,0l0.04,0l0.04,0l0.04,0
		l0.04,0l0.04,0l0.04,0l0.04,0l0.04,0l0.04,0l0.04,0l0.04,0l0.04,0l0.04,0l0.04,0l0.04,0l0.04,0l0.04,0l0.04,0l0.04,0l0.04,0l0.04,0
		l0.04,0l0.04,0l0.04,0l0.02,0l0.02,0l0.04,0l0.04,0l0.04,0l0.04,0l0.04,0l0.04,0l0.04,0l0.04,0l0.04,0l0.04,0l0.04,0l0.04,0l0.04,0
		l0.04,0l0.04,0l0.04,0l0.04,0l0.04,0l0.04,0l0.04,0l0.04,0l0.04,0l0.04,0l0.04,0l0.04,0l0.04,0l0.04,0l0.04,0l0.04,0l0.04,0l0.04,0
		l0.04,0l0.04,0.01l0.04,0.01l0.04,0.01l0.04,0.01l0.04,0.01l0.04,0.01l0.04,0.01l0.04,0.01l0.04,0.01l0.04,0.01l0.04,0.01
		l0.04,0.01l0.04,0.01l0.04,0.01l0.04,0.01l0.04,0.01l0.04,0.01l0.04,0.01l0.04,0.01l0.04,0.01l0.04,0.01l0.04,0.01l0.04,0.01
		l0.04,0.01l0.04,0.01l0.04,0.01l0.04,0.01l0.04,0.01l0.04,0.01l0.04,0.01l0.04,0.01l0.04,0.01l0.04,0.01l0.04,0.01l0.04,0.01
		l0.04,0.01l0.04,0.01l0.04,0.01l0.04,0.01l0.04,0.01l0.04,0.01l0.04,0.01l0.04,0.01l0.04,0.01l0.04,0.01l0.04,0.01l0.04,0.01
		l0.04,0.01l0.04,0.01v1.6l-0.04-0.02l-0.04-0.02l-0.04-0.02l-0.04-0.02l-0.04-0.02l-0.04-0.02l-0.04-0.02l-0.04-0.02l-0.04-0.02
		l-0.04-0.02l-0.04-0.02l-0.04-0.02l-0.04-0.02l-0.04-0.02l-0.04-0.02l-0.04-0.02l-0.04-0.02l-0.04-0.02l-0.04-0.01l-0.04-0.01
		l-0.04-0.01l-0.04-0.01l-0.04-0.01l-0.04-0.01l-0.04-0.01l-0.04-0.01l-0.04-0.01l-0.04-0.01l-0.04-0.01l-0.04-0.01l-0.04-0.01
		l-0.04-0.01l-0.04-0.01l-0.04-0.01l-0.04-0.01l-0.04-0.01l-0.04-0.01l-0.04-0.01l-0.04-0.01l-0.04-0.01l-0.04-0.01l-0.04-0.01
		l-0.04-0.01l-0.04-0.01l-0.04-0.01l-0.04-0.01l-0.04-0.01l-0.04-0.01l-0.04-0.01l-0.04-0.01l-0.04-0.01l-0.04-0.01l-0.04-0.01
		l-0.04-0.01l-0.04-0.01l-0.04-0.01l-0.04-0.01l-0.04-0.01l-0.04-0.01l-0.04-0.01l-0.04-0.01l-0.04-0.01l-0.04-0.01l-0.04-0.01
		l-0.04-0.01l-0.04-0.01l-0.04-0.01l-0.04,0l-0.04,0l-0.04,0l-0.04,0l-0.04,0l-0.04,0l-0.04,0l-0.04,0l-0.04,0l-0.04,0l-0.04,0
		l-0.02,0l-0.01,0l-0.04,0l-0.04,0l-0.04,0l-0.04,0l-0.04,0l-0.04,0l-0.04,0l-0.04,0l-0.04,0l-0.04,0c-0.01,0-0.02,0-0.04,0l-0.04,0
		l-0.04,0l-0.04,0l-0.04,0c-0.01,0-0.02,0-0.04,0c-0.01,0-0.02,0-0.04,0l-0.04,0l-0.04,0l-0.04,0l-0.04,0c-0.01,0-0.02,0-0.04,0
		c-0.01,0-0.02,0-0.04,0l-0.04,0l-0.04,0l-0.04,0l-0.04,0l-0.04,0.01l-0.04,0.01c-0.01,0-0.02,0-0.04,0.01c-0.01,0-0.02,0-0.04,0.01
		c-0.01,0-0.02,0-0.04,0.01c-0.01,0-0.02,0-0.04,0.01c-0.01,0-0.02,0.01-0.04,0.01c-0.01,0-0.02,0-0.04,0.01
		c-0.01,0-0.02,0.01-0.04,0.01l-0.04,0.01c-0.01,0-0.02,0.01-0.04,0.01c-0.01,0-0.02,0.01-0.04,0.01c-0.01,0-0.02,0.01-0.04,0.01
		l-0.04,0.01c-0.01,0-0.02,0.01-0.04,0.01c-0.01,0-0.02,0.01-0.04,0.01c-0.01,0-0.02,0.01-0.04,0.01c-0.01,0-0.02,0.01-0.04,0.01
		c-0.01,0-0.02,0.01-0.04,0.01c-0.01,0-0.02,0.01-0.04,0.01c-0.01,0-0.02,0.01-0.04,0.01c-0.01,0-0.02,0.01-0.04,0.01
		c-0.01,0.01-0.02,0.01-0.04,0.02c-0.01,0.01-0.02,0.01-0.04,0.02c-0.01,0.01-0.02,0.01-0.04,0.02c-0.01,0.01-0.02,0.01-0.04,0.02
		c-0.01,0.01-0.02,0.01-0.04,0.02c-0.01,0.01-0.02,0.01-0.04,0.02c-0.01,0.01-0.02,0.01-0.04,0.02c-0.01,0.01-0.02,0.01-0.04,0.02
		c-0.01,0.01-0.02,0.01-0.04,0.02c-0.01,0.01-0.02,0.01-0.04,0.02c-0.01,0.01-0.02,0.02-0.04,0.02c-0.01,0.01-0.02,0.02-0.04,0.02
		c-0.01,0.01-0.02,0.02-0.04,0.02c-0.01,0.01-0.02,0.02-0.04,0.03c-0.01,0.01-0.02,0.02-0.04,0.03c-0.01,0.01-0.02,0.02-0.04,0.03
		c-0.01,0.01-0.02,0.02-0.04,0.03c-0.01,0.01-0.02,0.02-0.04,0.03c-0.01,0.01-0.02,0.02-0.04,0.03c-0.01,0.01-0.02,0.02-0.04,0.03
		c-0.01,0.01-0.02,0.02-0.04,0.03c-0.01,0.01-0.02,0.02-0.04,0.04c-0.01,0.01-0.02,0.03-0.04,0.04c-0.01,0.01-0.02,0.03-0.04,0.04
		c-0.01,0.01-0.02,0.03-0.04,0.04c-0.01,0.01-0.02,0.03-0.04,0.04c-0.01,0.02-0.02,0.03-0.04,0.05c-0.01,0.02-0.02,0.03-0.04,0.05
		c-0.01,0.02-0.02,0.04-0.04,0.05c-0.01,0.02-0.02,0.04-0.04,0.06c-0.01,0.02-0.02,0.04-0.04,0.06c-0.01,0.02-0.02,0.04-0.04,0.07
		c-0.01,0.02-0.02,0.05-0.04,0.07c-0.01,0.03-0.02,0.05-0.04,0.08c-0.01,0.03-0.02,0.06-0.04,0.09c-0.01,0.03-0.02,0.06-0.04,0.1
		c-0.01,0.04-0.02,0.07-0.04,0.11c-0.01,0.04-0.03,0.09-0.04,0.13c-0.01,0.06-0.03,0.11-0.04,0.17c-0.02,0.09-0.03,0.18-0.04,0.27
		c-0.01,0.11-0.01,0.21-0.01,0.33c0,0.11,0,0.22,0.01,0.33c0.01,0.09,0.02,0.18,0.04,0.27c0.01,0.06,0.02,0.12,0.04,0.17
		c0.01,0.05,0.02,0.09,0.04,0.13c0.01,0.04,0.02,0.07,0.04,0.11c0.01,0.03,0.02,0.07,0.04,0.1c0.01,0.03,0.02,0.06,0.04,0.09
		c0.01,0.03,0.02,0.05,0.04,0.08c0.01,0.02,0.02,0.05,0.04,0.07c0.01,0.02,0.02,0.04,0.04,0.07c0.01,0.02,0.02,0.04,0.04,0.06
		c0.01,0.02,0.02,0.04,0.04,0.06c0.01,0.02,0.02,0.04,0.04,0.05c0.01,0.02,0.02,0.03,0.04,0.05c0.01,0.02,0.02,0.03,0.04,0.05
		c0.01,0.02,0.02,0.03,0.04,0.04c0.01,0.01,0.02,0.03,0.04,0.04c0.01,0.01,0.02,0.03,0.04,0.04c0.01,0.01,0.02,0.03,0.04,0.04
		c0.01,0.01,0.02,0.02,0.04,0.04c0.01,0.01,0.02,0.02,0.04,0.03c0.01,0.01,0.02,0.02,0.04,0.03c0.01,0.01,0.02,0.02,0.04,0.03
		c0.01,0.01,0.02,0.02,0.04,0.03c0.01,0.01,0.02,0.02,0.04,0.03c0.01,0.01,0.02,0.02,0.04,0.03c0.01,0.01,0.02,0.02,0.04,0.03
		c0.01,0.01,0.02,0.02,0.04,0.03c0.01,0.01,0.02,0.02,0.04,0.02c0.01,0.01,0.02,0.02,0.04,0.02c0.01,0.01,0.02,0.02,0.04,0.02
		c0.01,0.01,0.02,0.01,0.04,0.02c0.01,0.01,0.02,0.01,0.04,0.02c0.01,0.01,0.02,0.01,0.04,0.02c0.01,0.01,0.02,0.01,0.04,0.02
		c0.01,0.01,0.02,0.01,0.04,0.02c0.01,0.01,0.02,0.01,0.04,0.02c0.01,0.01,0.02,0.01,0.04,0.02c0.01,0.01,0.02,0.01,0.04,0.02
		c0.01,0.01,0.02,0.01,0.04,0.02c0.01,0.01,0.02,0.01,0.04,0.02c0.01,0,0.02,0.01,0.04,0.01c0.01,0,0.02,0.01,0.04,0.01
		c0.01,0,0.02,0.01,0.04,0.01c0.01,0,0.02,0.01,0.04,0.01c0.01,0,0.02,0.01,0.04,0.01c0.01,0,0.02,0.01,0.04,0.01
		c0.01,0,0.02,0.01,0.04,0.01c0.01,0,0.02,0.01,0.04,0.01c0.01,0,0.02,0.01,0.04,0.01c0.01,0,0.02,0.01,0.04,0.01
		c0.01,0,0.02,0.01,0.04,0.01c0.01,0,0.02,0.01,0.04,0.01l0.04,0.01c0.01,0,0.02,0.01,0.04,0.01c0.01,0,0.02,0.01,0.04,0.01
		c0.01,0,0.02,0.01,0.04,0.01c0.01,0,0.02,0,0.04,0.01c0.01,0,0.02,0,0.04,0.01c0.01,0,0.02,0,0.04,0.01c0.01,0,0.02,0,0.04,0.01
		c0.01,0,0.02,0,0.04,0.01l0.04,0.01l0.04,0l0.04,0l0.04,0l0.04,0c0.01,0,0.02,0,0.04,0c0.01,0,0.02,0,0.04,0l0.04,0l0.04,0l0.04,0
		l0.04,0c0.01,0,0.02,0,0.04,0c0.01,0,0.02,0,0.04,0l0.04,0l0.04,0l0.04,0l0.04,0c0.01,0,0.02,0,0.04,0l0.04,0l0.04,0l0.04,0l0.04,0
		l0.04,0l0.04,0l0.04,0l0.04,0l0.04,0l0.04,0l0.01,0l0.02,0l0.04,0l0.04,0l0.04,0l0.04,0l0.04,0l0.04,0l0.04,0l0.04,0l0.04,0l0.04,0
		l0.04,0l0.04-0.01l0.04-0.01l0.04-0.01l0.04-0.01l0.04-0.01l0.04-0.01l0.04-0.01l0.04-0.01l0.04-0.01l0.04-0.01l0.04-0.01
		l0.04-0.01l0.04-0.01l0.04-0.01l0.04-0.01l0.04-0.01l0.04-0.01l0.04-0.01l0.04-0.01l0.04-0.01l0.04-0.01l0.04-0.01l0.04-0.01
		l0.04-0.01l0.04-0.01l0.04-0.01l0.04-0.01l0.04-0.01l0.04-0.01l0.04-0.01l0.04-0.01l0.04-0.01l0.04-0.01l0.04-0.01l0.04-0.01
		l0.04-0.01l0.04-0.01l0.04-0.01l0.04-0.01l0.04-0.01l0.04-0.01l0.04-0.01l0.04-0.01l0.04-0.01l0.04-0.01l0.04-0.01l0.04-0.01
		l0.04-0.01l0.04-0.01l0.04-0.02l0.04-0.02l0.04-0.02l0.04-0.02L28.13,17l0.04-0.02l0.04-0.02l0.04-0.02l0.04-0.02l0.04-0.02
		l0.04-0.02l0.04-0.02l0.04-0.02l0.04-0.02l0.04-0.02l0.04-0.02l0.04-0.02l0.04-0.02v1.6l-0.04,0.01l-0.04,0.01L28.5,18.4
		l-0.04,0.01l-0.04,0.01l-0.04,0.01l-0.04,0.01l-0.04,0.01l-0.04,0.01l-0.04,0.01l-0.04,0.01l-0.04,0.01l-0.04,0.01l-0.04,0.01
		l-0.04,0.01l-0.04,0.01l-0.04,0.01l-0.04,0.01l-0.04,0.01l-0.04,0.01l-0.04,0.01l-0.04,0.01l-0.04,0.01l-0.04,0.01l-0.04,0.01
		l-0.04,0.01l-0.04,0.01l-0.04,0.01l-0.04,0.01l-0.04,0.01l-0.04,0.01l-0.04,0.01l-0.04,0.01l-0.04,0.01l-0.04,0.01l-0.04,0.01
		l-0.04,0.01l-0.04,0.01l-0.04,0.01l-0.04,0.01l-0.04,0.01l-0.04,0.01l-0.04,0.01l-0.04,0.01l-0.04,0.01l-0.04,0.01L26.9,18.7
		l-0.04,0.01l-0.04,0.01l-0.04,0l-0.04,0l-0.04,0l-0.04,0l-0.04,0l-0.04,0l-0.04,0l-0.04,0l-0.04,0l-0.04,0l-0.04,0l-0.04,0l-0.04,0
		l-0.04,0l-0.04,0l-0.04,0l-0.04,0l-0.04,0l-0.04,0l-0.04,0l-0.04,0l-0.04,0l-0.04,0l-0.04,0l-0.04,0l-0.04,0l-0.04,0l-0.04,0
		l-0.04,0l-0.04,0l-0.04,0l-0.04,0l-0.02,0l-0.02,0l-0.04,0l-0.04,0l-0.04,0l-0.04,0l-0.04,0l-0.04,0l-0.04,0l-0.04,0l-0.04,0
		l-0.04,0l-0.04,0l-0.04,0l-0.04,0l-0.04,0l-0.04,0l-0.04,0l-0.04,0l-0.04,0l-0.04,0l-0.04,0l-0.04,0l-0.04,0l-0.04,0l-0.04,0
		l-0.04,0l-0.04,0l-0.04,0l-0.04,0l-0.04,0l-0.04,0l-0.04,0l-0.04,0l-0.04,0l-0.04,0l-0.04,0l-0.04,0l-0.04,0l-0.04,0l-0.04,0
		l-0.04,0l-0.04,0l-0.04,0l-0.04,0l-0.04,0l-0.04,0l-0.04,0l-0.04,0l-0.04,0l-0.04,0l-0.04,0l-0.04,0l-0.04,0l-0.04,0l-0.04,0
		l-0.04,0l-0.04,0l-0.04,0l-0.04,0l-0.04,0l-0.04,0l-0.04,0l-0.04,0l-0.04,0l-0.04,0l-0.04,0l-0.04,0l-0.04-0.01l-0.04-0.01
		l-0.04-0.01l-0.04-0.01l-0.04-0.01l-0.04-0.01l-0.04-0.01l-0.04-0.01l-0.04-0.01l-0.04-0.01l-0.04-0.01l-0.04-0.01l-0.04-0.01
		l-0.04-0.01l-0.04-0.01l-0.04-0.01l-0.04-0.01l-0.04-0.01l-0.04-0.01L22.5,18.6l-0.04-0.01l-0.04-0.01l-0.04-0.01l-0.04-0.01
		l-0.04-0.01l-0.04-0.01l-0.04-0.01l-0.04-0.01l-0.04-0.01l-0.04-0.01L22.1,18.5l-0.04-0.01l-0.04-0.01l-0.04-0.01l-0.04-0.01
		l-0.04-0.01c-0.01,0-0.02-0.01-0.04-0.01c-0.01,0-0.02-0.01-0.04-0.01l-0.04-0.01l-0.04-0.01c-0.01,0-0.02-0.01-0.04-0.01
		c-0.01,0-0.02-0.01-0.04-0.01l-0.04-0.01c-0.01,0-0.02-0.01-0.04-0.01l-0.04-0.01l-0.04-0.01l-0.04-0.01l-0.04-0.01l-0.04-0.02
		l-0.04-0.02l-0.04-0.02l-0.04-0.02l-0.04-0.02l-0.04-0.02c-0.01-0.01-0.02-0.01-0.04-0.02l-0.04-0.02l-0.04-0.02l-0.04-0.02
		c-0.01-0.01-0.02-0.01-0.04-0.02c-0.01-0.01-0.02-0.01-0.04-0.02l-0.04-0.02l-0.04-0.02l-0.04-0.02c-0.01-0.01-0.02-0.01-0.04-0.02
		c-0.01-0.01-0.02-0.01-0.04-0.02l-0.04-0.02c-0.01-0.01-0.02-0.01-0.04-0.02c-0.01-0.01-0.02-0.02-0.04-0.02l-0.04-0.02
		c-0.01-0.01-0.02-0.02-0.04-0.02l-0.04-0.02c-0.01-0.01-0.02-0.02-0.04-0.03c-0.01-0.01-0.02-0.02-0.04-0.03
		c-0.01-0.01-0.02-0.02-0.04-0.03c-0.01-0.01-0.02-0.02-0.04-0.03c-0.01-0.01-0.02-0.02-0.04-0.03c-0.01-0.01-0.02-0.02-0.04-0.03
		c-0.03-0.02-0.05-0.04-0.08-0.06V26.32z"></path>
	<linearGradient id="SVGID_2_" gradientUnits="userSpaceOnUse" x1="19.2932" y1="15.0003" x2="52.2521" y2="15.0003">
		<stop offset="0" style="stop-color:#3D5935"></stop>
		<stop offset="0.6576" style="stop-color:#5E813C"></stop>
		<stop offset="1" style="stop-color:#6A903E"></stop>
	</linearGradient>
	<path style="fill-rule:evenodd;clip-rule:evenodd;fill:url(#SVGID_2_);" d="M32.63,15.46h0.02h0.04h0.04h0.04h0.04h0.04h0.04h0.04
		h0.04h0.04h0.04h0.04h0.04h0.04h0.04h0.04h0.04h0.04h0.04h0.04h0.04h0.04h0.04h0.04h0.04h0.04h0.04h0.04h0.04h0.04h0.04h0.04h0.04
		h0.04h0.04h0.04h0.04H34h0.04h0.04h0.04h0.04h0.04h0.04h0.04h0.04h0.04h0.04h0.04h0.04h0.04h0.04h0.04h0.04h0.04h0.04h0.04h0.04
		h0.04h0.04h0.03l0.01,0c0.01,0,0.02,0,0.04,0c0.01,0,0.02,0,0.04,0c0.01,0,0.02,0,0.04,0c0.01,0,0.02,0,0.04,0
		c0.01,0,0.02,0,0.04,0c0.01,0,0.03,0,0.04,0.01c0.01,0,0.02,0,0.02,0l0.01,0c0.01,0,0.02,0.01,0.04,0.01
		c0.01,0,0.02,0.01,0.04,0.01c0.01,0,0.02,0.01,0.04,0.01c0.01,0,0.02,0.01,0.04,0.01c0.01,0.01,0.02,0.01,0.04,0.02
		c0.01,0.01,0.02,0.01,0.04,0.02c0.01,0.01,0.02,0.01,0.04,0.02c0.01,0.01,0.02,0.01,0.04,0.02c0.01,0.01,0.02,0.02,0.04,0.02
		c0.01,0.01,0.02,0.02,0.04,0.03c0.01,0.01,0.02,0.02,0.04,0.03c0.01,0.01,0.02,0.02,0.04,0.03c0.01,0.01,0.02,0.02,0.04,0.04
		c0.01,0.01,0.02,0.03,0.04,0.04c0.01,0.01,0.02,0.03,0.04,0.04c0.01,0.02,0.02,0.03,0.04,0.05c0.01,0.02,0.02,0.04,0.04,0.06
		c0.01,0.02,0.03,0.05,0.04,0.07c0.01,0.03,0.03,0.06,0.04,0.09c0.01,0.04,0.03,0.08,0.04,0.12c0.02,0.07,0.03,0.15,0.03,0.23
		c0,0.08-0.01,0.16-0.03,0.23c-0.01,0.04-0.02,0.08-0.04,0.12c-0.01,0.03-0.02,0.06-0.04,0.09c-0.01,0.02-0.02,0.05-0.04,0.07
		c-0.01,0.02-0.02,0.04-0.04,0.06c-0.01,0.02-0.02,0.03-0.04,0.05c-0.01,0.02-0.02,0.03-0.04,0.04c-0.01,0.01-0.02,0.03-0.04,0.04
		c-0.01,0.01-0.02,0.02-0.04,0.04c-0.01,0.01-0.02,0.02-0.04,0.03c-0.01,0.01-0.02,0.02-0.04,0.03c-0.01,0.01-0.02,0.02-0.04,0.03
		c-0.01,0.01-0.02,0.02-0.04,0.02c-0.01,0.01-0.02,0.01-0.04,0.02c-0.01,0.01-0.02,0.01-0.04,0.02c-0.01,0.01-0.02,0.01-0.04,0.02
		c-0.01,0.01-0.02,0.01-0.04,0.02c-0.01,0-0.02,0.01-0.04,0.01c-0.01,0-0.02,0.01-0.04,0.01c-0.01,0-0.02,0.01-0.04,0.01
		c-0.01,0-0.02,0.01-0.04,0.01l-0.01,0c-0.01,0-0.01,0-0.02,0c-0.01,0-0.02,0-0.04,0.01c-0.01,0-0.02,0-0.04,0
		c-0.01,0-0.02,0-0.04,0c-0.01,0-0.02,0-0.04,0c-0.01,0-0.02,0-0.04,0c-0.01,0-0.03,0-0.04,0l-0.02,0H34.8h-0.04h-0.04h-0.04h-0.04
		h-0.04h-0.04h-0.04h-0.04h-0.04h-0.04H34.4h-0.04h-0.04h-0.04h-0.04h-0.04h-0.04h-0.04H34.1h-0.04h-0.04H34h-0.04h-0.04h-0.04
		h-0.04h-0.04h-0.04h-0.04H33.7h-0.04h-0.04H33.6h-0.04h-0.04h-0.04h-0.04h-0.04h-0.04h-0.04H33.3h-0.04h-0.04h-0.04h-0.04h-0.04
		h-0.04h-0.04h-0.04h-0.04h-0.04H32.9h-0.04h-0.04h-0.04h-0.04h-0.04h-0.04h-0.04h-0.02V15.46L32.63,15.46z M30.78,26.32h5.63
		l0.02,0l0.04,0c0.01,0,0.02,0,0.04,0c0.01,0,0.02,0,0.04,0l0.04,0c0.01,0,0.02,0,0.04,0c0.01,0,0.02,0,0.04,0c0.01,0,0.02,0,0.04,0
		c0.01,0,0.02,0,0.04,0c0.01,0,0.02,0,0.04,0c0.01,0,0.02,0,0.04,0c0.01,0,0.02,0,0.04-0.01l0.04-0.01l0.04-0.01l0.04-0.01
		c0.01,0,0.02,0,0.04-0.01c0.01,0,0.02,0,0.04-0.01l0.04-0.01l0.04-0.01c0.01,0,0.02-0.01,0.04-0.01c0.01,0,0.02-0.01,0.04-0.01
		l0.04-0.01l0.04-0.01l0.04-0.01c0.01,0,0.02-0.01,0.04-0.01c0.01,0,0.02-0.01,0.04-0.01c0.01,0,0.02-0.01,0.04-0.01l0.04-0.01
		c0.01,0,0.02-0.01,0.04-0.01l0.04-0.01c0.01,0,0.02-0.01,0.04-0.01c0.01,0,0.02-0.01,0.04-0.01c0.01,0,0.02-0.01,0.04-0.01
		l0.04-0.01c0.01,0,0.02-0.01,0.04-0.01c0.01,0,0.02-0.01,0.04-0.01c0.01,0,0.02-0.01,0.04-0.01c0.01,0,0.02-0.01,0.04-0.01
		c0.01-0.01,0.02-0.01,0.04-0.02c0.01-0.01,0.02-0.01,0.04-0.02l0.04-0.02l0.04-0.02c0.01-0.01,0.02-0.01,0.04-0.02
		c0.01-0.01,0.02-0.01,0.04-0.02c0.01-0.01,0.02-0.01,0.04-0.02c0.01-0.01,0.02-0.01,0.04-0.02c0.01-0.01,0.02-0.01,0.04-0.02
		c0.01-0.01,0.02-0.01,0.04-0.02c0.01-0.01,0.02-0.01,0.04-0.02c0.01-0.01,0.02-0.01,0.04-0.02l0.04-0.02
		c0.01-0.01,0.02-0.01,0.04-0.02c0.01-0.01,0.02-0.02,0.04-0.02c0.01-0.01,0.02-0.02,0.04-0.02c0.01-0.01,0.02-0.02,0.04-0.02
		c0.01-0.01,0.02-0.02,0.04-0.02c0.01-0.01,0.02-0.02,0.04-0.03c0.01-0.01,0.02-0.02,0.04-0.03c0.01-0.01,0.02-0.02,0.04-0.03
		c0.01-0.01,0.02-0.02,0.04-0.03c0.01-0.01,0.02-0.02,0.04-0.03c0.01-0.01,0.02-0.02,0.04-0.03c0.01-0.01,0.02-0.02,0.04-0.03
		c0.01-0.01,0.02-0.02,0.04-0.03c0.01-0.01,0.02-0.02,0.04-0.03c0.01-0.01,0.02-0.02,0.04-0.03c0.01-0.01,0.02-0.02,0.04-0.03
		c0.01-0.01,0.02-0.02,0.04-0.03c0.01-0.01,0.02-0.02,0.04-0.03c0.01-0.01,0.02-0.02,0.04-0.04c0.01-0.01,0.02-0.02,0.04-0.04
		c0.01-0.01,0.02-0.02,0.04-0.04c0.01-0.01,0.02-0.02,0.04-0.04c0.01-0.01,0.02-0.03,0.04-0.04c0.01-0.01,0.02-0.03,0.04-0.04
		c0.01-0.01,0.02-0.03,0.04-0.04c0.01-0.01,0.02-0.03,0.04-0.04c0.01-0.01,0.02-0.03,0.04-0.04c0.01-0.01,0.02-0.03,0.04-0.05
		c0.01-0.02,0.02-0.03,0.04-0.05c0.01-0.02,0.02-0.03,0.04-0.05c0.01-0.02,0.02-0.03,0.04-0.05c0.01-0.02,0.02-0.03,0.04-0.05
		c0.01-0.02,0.02-0.04,0.04-0.05c0.01-0.02,0.02-0.04,0.04-0.06c0.01-0.02,0.02-0.04,0.04-0.06c0.01-0.02,0.02-0.04,0.04-0.06
		c0.01-0.02,0.02-0.04,0.04-0.06c0.01-0.02,0.02-0.04,0.04-0.07c0.01-0.02,0.02-0.05,0.04-0.07c0.01-0.02,0.02-0.05,0.04-0.07
		c0.01-0.03,0.02-0.05,0.04-0.08c0.01-0.03,0.02-0.05,0.04-0.08c0.01-0.03,0.02-0.06,0.04-0.09c0.01-0.03,0.02-0.06,0.04-0.09
		c0.01-0.03,0.02-0.07,0.04-0.1c0.01-0.04,0.02-0.08,0.04-0.11c0.01-0.04,0.03-0.09,0.04-0.13c0.01-0.05,0.03-0.1,0.04-0.15
		c0.01-0.06,0.03-0.13,0.04-0.19c0.02-0.09,0.03-0.19,0.04-0.29c0.01-0.09,0.01-0.19,0.01-0.28V3.68h-0.01v0h-0.04H40h-0.04h-0.04
		h-0.04h-0.04h-0.04h-0.04h-0.04h-0.04h-0.04h-0.04H39.6h-0.04h-0.04h-0.04h-0.04h-0.04h-0.04h-0.04h-0.04h-0.04h-0.04H39.2h-0.04
		h-0.04h-0.04h-0.04h-0.04h-0.04h-0.04h-0.04h-0.04h-0.04H38.8h-0.04h-0.04h-0.04h-0.04h-0.04h-0.04h-0.04h-0.04h-0.04h-0.04H38.4
		h-0.04h-0.04h-0.04h-0.04h-0.04h-0.04h-0.04h-0.04h-0.04h-0.04H38h-0.04h-0.04h-0.04h-0.04h-0.04h-0.04h-0.04h-0.04h-0.04h-0.04
		H37.6h-0.04h-0.04h-0.04h-0.04h-0.04h-0.04h-0.04h-0.04h-0.04h-0.04H37.2h-0.04h-0.04h-0.04h-0.04h-0.04h-0.04h-0.04h-0.04h-0.04
		h-0.04H36.8h-0.04h-0.04h-0.04h-0.04h-0.04h-0.04h-0.04h-0.04h-0.04h-0.04H36.4h-0.04h-0.04h-0.04h-0.04h-0.04h-0.04h-0.04h-0.04
		h-0.04h-0.04H36h-0.04h-0.04h-0.04h-0.04h-0.04h-0.04h-0.04h-0.04h-0.04h-0.04H35.6h-0.04h-0.04h-0.04h-0.04h-0.04h-0.04h-0.04
		h-0.04h-0.04h-0.04H35.2h-0.04h-0.04h-0.04h-0.04h-0.04h-0.04h-0.04h-0.04h-0.04h-0.04H34.8h-0.04h-0.04h-0.04h-0.04h-0.04h-0.04
		h-0.03l-0.01,0c-0.01,0-0.02,0-0.04,0c-0.01,0-0.02,0-0.04,0c-0.01,0-0.02,0-0.04,0l-0.04,0c-0.01,0-0.02,0-0.04,0
		c-0.01,0-0.02,0-0.04,0c-0.01,0-0.02,0-0.04,0l-0.04,0l-0.04,0c-0.01,0-0.02,0-0.04,0c-0.01,0-0.02,0-0.04,0l-0.04,0
		c-0.01,0-0.02,0-0.04,0c-0.01,0-0.02,0-0.04,0.01c-0.01,0-0.02,0-0.04,0.01c-0.01,0-0.02,0-0.04,0.01l-0.04,0.01
		c-0.01,0-0.02,0-0.04,0.01c-0.01,0-0.02,0-0.04,0.01c-0.01,0-0.02,0-0.04,0.01l-0.04,0.01l-0.04,0.01c-0.01,0-0.02,0.01-0.04,0.01
		c-0.01,0-0.02,0.01-0.04,0.01c-0.01,0-0.02,0.01-0.04,0.01l-0.04,0.01c-0.01,0-0.02,0.01-0.04,0.01c-0.01,0-0.02,0.01-0.04,0.01
		c-0.01,0-0.02,0.01-0.04,0.01c-0.01,0-0.02,0.01-0.04,0.01c-0.01,0-0.02,0.01-0.04,0.01l-0.04,0.01c-0.01,0-0.02,0.01-0.04,0.01
		c-0.01,0-0.02,0.01-0.04,0.01c-0.01,0-0.02,0.01-0.04,0.01c-0.01,0-0.02,0.01-0.04,0.01l-0.04,0.01l-0.04,0.01
		c-0.01,0-0.02,0.01-0.04,0.01c-0.01,0.01-0.02,0.01-0.04,0.02C33.07,3.99,33.06,3.99,33.05,4C33.04,4,33.02,4.01,33.01,4.01
		C33,4.02,32.99,4.02,32.98,4.03c-0.01,0.01-0.02,0.01-0.04,0.02L32.9,4.06c-0.01,0.01-0.02,0.01-0.04,0.02
		c-0.01,0.01-0.02,0.01-0.04,0.02c-0.01,0.01-0.02,0.01-0.04,0.02c-0.01,0.01-0.02,0.01-0.04,0.02c-0.01,0.01-0.02,0.01-0.04,0.02
		c-0.01,0.01-0.02,0.01-0.04,0.02c-0.01,0.01-0.02,0.01-0.04,0.02c-0.01,0.01-0.02,0.01-0.04,0.02c-0.01,0.01-0.02,0.01-0.04,0.02
		l-0.04,0.02c-0.01,0.01-0.02,0.02-0.04,0.02l-0.04,0.02l-0.04,0.02c-0.01,0.01-0.02,0.02-0.04,0.03l-0.04,0.03
		c-0.01,0.01-0.02,0.02-0.04,0.03c-0.01,0.01-0.02,0.02-0.04,0.03l-0.04,0.03L32.21,4.5c-0.01,0.01-0.02,0.02-0.04,0.03
		c-0.01,0.01-0.02,0.02-0.04,0.03c-0.01,0.01-0.02,0.02-0.04,0.03c-0.01,0.01-0.02,0.02-0.04,0.03c-0.01,0.01-0.02,0.02-0.04,0.03
		C32.02,4.67,32,4.68,31.99,4.69c-0.01,0.01-0.02,0.02-0.04,0.03c-0.01,0.01-0.02,0.02-0.04,0.04c-0.01,0.01-0.02,0.02-0.04,0.04
		c-0.01,0.01-0.02,0.02-0.04,0.04c-0.01,0.01-0.02,0.03-0.04,0.04c-0.01,0.01-0.02,0.03-0.04,0.04c-0.01,0.01-0.02,0.03-0.04,0.04
		c-0.01,0.01-0.02,0.03-0.04,0.04C31.69,5,31.68,5.02,31.66,5.03c-0.01,0.01-0.02,0.03-0.04,0.04c-0.01,0.02-0.02,0.03-0.04,0.05
		c-0.01,0.02-0.02,0.03-0.04,0.05c-0.01,0.02-0.02,0.03-0.04,0.05c-0.01,0.02-0.02,0.03-0.04,0.05c-0.01,0.02-0.02,0.03-0.04,0.05
		c-0.01,0.02-0.02,0.04-0.04,0.05c-0.01,0.02-0.02,0.04-0.04,0.06c-0.01,0.02-0.02,0.04-0.04,0.06c-0.01,0.02-0.02,0.04-0.04,0.06
		c-0.01,0.02-0.02,0.04-0.04,0.06c-0.01,0.02-0.02,0.04-0.04,0.07c-0.01,0.02-0.02,0.05-0.04,0.07c-0.01,0.02-0.02,0.05-0.04,0.07
		c-0.01,0.03-0.02,0.05-0.04,0.08c-0.01,0.03-0.02,0.06-0.04,0.08c-0.01,0.03-0.02,0.06-0.04,0.09c-0.01,0.03-0.02,0.06-0.04,0.1
		C31,6.21,30.98,6.24,30.97,6.28c-0.01,0.04-0.02,0.08-0.04,0.12c-0.01,0.04-0.03,0.09-0.04,0.13c-0.01,0.05-0.03,0.11-0.04,0.16
		c-0.05,0.24-0.08,0.49-0.08,0.74v3.95h0.08h0.04h0.04h0.04h0.04h0.04h0.04h0.04h0.04h0.04h0.04h0.04h0.04h0.04h0.04h0.04h0.04h0.04
		h0.04h0.04h0.04h0.04h0.04h0.04h0.04h0.04h0.04h0.04h0.04h0.04h0.04h0.04h0.04h0.04h0.04h0.04h0.04h0.04h0.04h0.04h0.04h0.04h0.04
		h0.04h0.04h0.04h0.04h0.04h0.04h0.04h0.04h0.04h0.04h0.04h0.04h0.04h0.04h0.04h0.04h0.04h0.04h0.04h0.04h0.04h0.04h0.04h0.04h0.04
		h0.04h0.04h0.04h0.04h0.04h0.04h0.04h0.04h0.04h0.04h0.04h0.04h0.04h0.04h0.04h0.04h0.04h0.04H34h0.04h0.04h0.04h0.04h0.04h0.04
		h0.04h0.04h0.04h0.04h0.04h0.04h0.04h0.04h0.04h0.04h0.04h0.04h0.04h0.04h0.04h0.04h0.04h0.04h0.04h0.04h0.04h0.04h0.04h0.04h0.04
		h0.04h0.04h0.04h0.04h0.04h0.04h0.04h0.04h0.04h0.04h0.04h0.04h0.04h0.04h0.04h0.04h0.04h0.04h0.04h0.04h0.04h0.04h0.04H36h0.04
		h0.04h0.04h0.02l0.02,0l0.04,0l0.04,0l0.04,0l0.04,0l0.04,0l0.04,0l0.04,0l0.04,0l0.04,0l0.02,0l0.01,0l0.04,0l0.04,0l0.04,0
		l0.04,0l0.04,0l0.04,0l0.04,0l0.04,0l0.04,0.01l0.04,0.01c0.01,0,0.02,0,0.04,0.01l0.04,0.01c0.01,0,0.02,0,0.04,0.01
		c0.01,0,0.02,0,0.04,0.01l0.04,0.01c0.01,0,0.02,0.01,0.04,0.01c0.01,0,0.02,0.01,0.04,0.01l0.04,0.01c0.01,0,0.02,0.01,0.04,0.01
		c0.01,0,0.02,0.01,0.04,0.01c0.01,0,0.02,0.01,0.04,0.01c0.01,0,0.02,0.01,0.04,0.01c0.01,0,0.02,0.01,0.04,0.01
		c0.01,0,0.02,0.01,0.04,0.01c0.01,0,0.02,0.01,0.04,0.01c0.01,0,0.02,0.01,0.04,0.01c0.01,0,0.02,0.01,0.04,0.01
		c0.01,0,0.02,0.01,0.04,0.02c0.01,0.01,0.02,0.01,0.04,0.02c0.01,0.01,0.02,0.01,0.04,0.02c0.01,0.01,0.02,0.01,0.04,0.02
		c0.01,0.01,0.02,0.01,0.04,0.02c0.01,0.01,0.02,0.01,0.04,0.02c0.01,0.01,0.02,0.01,0.04,0.02c0.01,0.01,0.02,0.01,0.04,0.02
		c0.01,0.01,0.02,0.01,0.04,0.02c0.01,0.01,0.02,0.02,0.04,0.02c0.01,0.01,0.02,0.02,0.04,0.02c0.01,0.01,0.02,0.02,0.04,0.03
		c0.01,0.01,0.02,0.02,0.04,0.03c0.01,0.01,0.02,0.02,0.04,0.03c0.01,0.01,0.02,0.02,0.04,0.03c0.01,0.01,0.02,0.02,0.04,0.03
		c0.01,0.01,0.02,0.02,0.04,0.03c0.01,0.01,0.02,0.02,0.04,0.04c0.01,0.01,0.02,0.03,0.04,0.04c0.01,0.01,0.02,0.03,0.04,0.04
		c0.01,0.01,0.02,0.03,0.04,0.04c0.01,0.02,0.02,0.03,0.04,0.05c0.01,0.02,0.02,0.03,0.04,0.05c0.01,0.02,0.02,0.04,0.04,0.06
		c0.01,0.02,0.02,0.04,0.04,0.06c0.01,0.02,0.02,0.05,0.04,0.07c0.01,0.03,0.03,0.05,0.04,0.08c0.01,0.03,0.03,0.07,0.04,0.1
		c0.01,0.04,0.03,0.09,0.04,0.13c0.02,0.07,0.03,0.14,0.04,0.22c0.01,0.06,0.01,0.12,0.01,0.18c0,0.06,0,0.12-0.01,0.18
		c-0.01,0.07-0.02,0.15-0.04,0.22c-0.01,0.04-0.02,0.09-0.04,0.13c-0.01,0.03-0.02,0.07-0.04,0.1c-0.01,0.03-0.02,0.06-0.04,0.08
		c-0.01,0.02-0.02,0.05-0.04,0.07c-0.01,0.02-0.02,0.04-0.04,0.06c-0.01,0.02-0.02,0.04-0.04,0.06c-0.01,0.02-0.02,0.04-0.04,0.05
		c-0.01,0.02-0.02,0.03-0.04,0.05c-0.01,0.02-0.02,0.03-0.04,0.05c-0.01,0.01-0.02,0.03-0.04,0.04c-0.01,0.01-0.02,0.03-0.04,0.04
		c-0.01,0.01-0.02,0.02-0.04,0.04c-0.01,0.01-0.02,0.02-0.04,0.03c-0.01,0.01-0.02,0.02-0.04,0.03c-0.01,0.01-0.02,0.02-0.04,0.03
		c-0.01,0.01-0.02,0.02-0.04,0.03c-0.01,0.01-0.02,0.02-0.04,0.03c-0.01,0.01-0.02,0.02-0.04,0.03c-0.01,0.01-0.02,0.02-0.04,0.03
		c-0.01,0.01-0.02,0.02-0.04,0.02c-0.01,0.01-0.02,0.02-0.04,0.02c-0.01,0.01-0.02,0.01-0.04,0.02c-0.01,0.01-0.02,0.01-0.04,0.02
		c-0.01,0.01-0.02,0.01-0.04,0.02c-0.01,0.01-0.02,0.01-0.04,0.02c-0.01,0.01-0.02,0.01-0.04,0.02c-0.01,0.01-0.02,0.01-0.04,0.02
		c-0.01,0.01-0.02,0.01-0.04,0.02c-0.01,0.01-0.02,0.01-0.04,0.02c-0.01,0-0.02,0.01-0.04,0.01c-0.01,0-0.02,0.01-0.04,0.01
		c-0.01,0-0.02,0.01-0.04,0.01c-0.01,0-0.02,0.01-0.04,0.01c-0.01,0-0.02,0.01-0.04,0.01c-0.01,0-0.02,0.01-0.04,0.01
		c-0.01,0-0.02,0.01-0.04,0.01c-0.01,0-0.02,0.01-0.04,0.01c-0.01,0-0.02,0.01-0.04,0.01c-0.01,0-0.02,0.01-0.04,0.01
		c-0.01,0-0.02,0.01-0.04,0.01l-0.04,0.01c-0.01,0-0.02,0.01-0.04,0.01l-0.04,0.01c-0.01,0-0.02,0-0.04,0.01l-0.04,0.01l-0.03,0.01
		l0,0.04l0.03,0l0.04,0l0.04,0l0.04,0l0.04,0l0.04,0l0.04,0c0.01,0,0.02,0,0.04,0.01l0.04,0.01c0.01,0,0.02,0,0.04,0.01l0.04,0.01
		l0.04,0.01c0.01,0,0.02,0,0.04,0.01c0.01,0,0.02,0.01,0.04,0.01c0.01,0,0.02,0.01,0.04,0.01c0.01,0,0.02,0.01,0.04,0.01
		c0.01,0,0.02,0.01,0.04,0.01c0.01,0,0.02,0.01,0.04,0.01c0.01,0,0.02,0.01,0.04,0.01l0.04,0.01c0.01,0,0.02,0.01,0.04,0.01
		c0.01,0,0.02,0.01,0.04,0.01c0.01,0,0.02,0.01,0.04,0.01c0.01,0,0.02,0.01,0.04,0.01c0.01,0,0.02,0.01,0.04,0.01
		c0.01,0,0.02,0.01,0.04,0.01c0.01,0,0.02,0.01,0.04,0.01c0.01,0,0.02,0.01,0.04,0.02c0.01,0.01,0.02,0.01,0.04,0.02
		c0.01,0.01,0.02,0.01,0.04,0.02c0.01,0.01,0.02,0.01,0.04,0.02c0.01,0.01,0.02,0.01,0.04,0.02c0.01,0.01,0.02,0.01,0.04,0.02
		c0.01,0.01,0.02,0.01,0.04,0.02c0.01,0.01,0.02,0.01,0.04,0.02c0.01,0.01,0.02,0.01,0.04,0.02c0.01,0.01,0.02,0.01,0.04,0.02
		c0.01,0.01,0.02,0.02,0.04,0.02c0.01,0.01,0.02,0.02,0.04,0.02c0.01,0.01,0.02,0.02,0.04,0.03c0.01,0.01,0.02,0.02,0.04,0.03
		c0.01,0.01,0.02,0.02,0.04,0.03c0.01,0.01,0.02,0.02,0.04,0.03c0.01,0.01,0.02,0.02,0.04,0.03c0.01,0.01,0.02,0.02,0.04,0.03
		c0.01,0.01,0.02,0.02,0.04,0.03c0.01,0.01,0.02,0.02,0.04,0.04c0.01,0.01,0.02,0.03,0.04,0.04c0.01,0.01,0.02,0.03,0.04,0.04
		c0.01,0.01,0.02,0.03,0.04,0.04c0.01,0.02,0.02,0.03,0.04,0.05c0.01,0.02,0.02,0.03,0.04,0.05c0.01,0.02,0.02,0.04,0.04,0.06
		c0.01,0.02,0.02,0.04,0.04,0.06c0.01,0.02,0.02,0.05,0.04,0.07c0.01,0.03,0.03,0.05,0.04,0.08c0.01,0.03,0.03,0.06,0.04,0.09
		c0.01,0.04,0.03,0.08,0.04,0.12c0.02,0.06,0.03,0.12,0.04,0.18c0.01,0.08,0.02,0.16,0.02,0.24c0,0.08-0.01,0.16-0.02,0.24
		c-0.01,0.06-0.02,0.13-0.04,0.19c-0.01,0.04-0.02,0.08-0.04,0.12c-0.01,0.03-0.02,0.07-0.04,0.1c-0.01,0.03-0.02,0.06-0.04,0.08
		c-0.01,0.02-0.02,0.05-0.04,0.07c-0.01,0.02-0.02,0.04-0.04,0.06c-0.01,0.02-0.02,0.04-0.04,0.06c-0.01,0.02-0.02,0.04-0.04,0.05
		c-0.01,0.02-0.02,0.03-0.04,0.05c-0.01,0.02-0.02,0.03-0.04,0.05c-0.01,0.01-0.02,0.03-0.04,0.04c-0.01,0.01-0.02,0.03-0.04,0.04
		c-0.01,0.01-0.02,0.03-0.04,0.04c-0.01,0.01-0.02,0.02-0.04,0.04c-0.01,0.01-0.02,0.02-0.04,0.03c-0.01,0.01-0.02,0.02-0.04,0.03
		c-0.01,0.01-0.02,0.02-0.04,0.03c-0.01,0.01-0.02,0.02-0.04,0.03c-0.01,0.01-0.02,0.02-0.04,0.03c-0.01,0.01-0.02,0.02-0.04,0.03
		c-0.01,0.01-0.02,0.02-0.04,0.03c-0.01,0.01-0.02,0.02-0.04,0.02c-0.01,0.01-0.02,0.02-0.04,0.02c-0.01,0.01-0.02,0.01-0.04,0.02
		c-0.01,0.01-0.02,0.01-0.04,0.02c-0.01,0.01-0.02,0.01-0.04,0.02c-0.01,0.01-0.02,0.01-0.04,0.02c-0.01,0.01-0.02,0.01-0.04,0.02
		c-0.01,0.01-0.02,0.01-0.04,0.02c-0.01,0.01-0.02,0.01-0.04,0.02c-0.01,0.01-0.02,0.01-0.04,0.02c-0.01,0.01-0.02,0.01-0.04,0.02
		c-0.01,0.01-0.02,0.01-0.04,0.01c-0.01,0-0.02,0.01-0.04,0.01c-0.01,0-0.02,0.01-0.04,0.01c-0.01,0-0.02,0.01-0.04,0.01
		c-0.01,0-0.02,0.01-0.04,0.01c-0.01,0-0.02,0.01-0.04,0.01l-0.04,0.01c-0.01,0-0.02,0.01-0.04,0.01c-0.01,0-0.02,0.01-0.04,0.01
		c-0.01,0-0.02,0.01-0.04,0.01c-0.01,0-0.02,0.01-0.04,0.01c-0.01,0-0.02,0.01-0.04,0.01c-0.01,0-0.02,0.01-0.04,0.01l-0.04,0.01
		c-0.01,0-0.02,0.01-0.04,0.01c-0.01,0-0.02,0-0.04,0.01l-0.04,0.01l-0.04,0.01c-0.01,0-0.02,0-0.04,0.01c-0.01,0-0.02,0-0.04,0.01
		c-0.01,0-0.02,0-0.04,0l-0.04,0c-0.01,0-0.02,0-0.04,0c-0.01,0-0.02,0-0.04,0l-0.04,0l-0.04,0l-0.04,0l-0.04,0l-0.04,0
		c-0.01,0-0.02,0-0.04,0c-0.01,0-0.02,0-0.04,0l-0.04,0l-0.04,0l-0.02,0h-0.02h-0.04h-0.04h-0.04h-0.04h-0.04H36.4h-0.04h-0.04
		h-0.04h-0.04h-0.04h-0.04h-0.04h-0.04h-0.04h-0.04H36h-0.04h-0.04h-0.04h-0.04h-0.04h-0.04h-0.04h-0.04h-0.04h-0.04H35.6h-0.04
		h-0.04h-0.04h-0.04h-0.04h-0.04h-0.04h-0.04h-0.04h-0.04H35.2h-0.04h-0.04h-0.04h-0.04h-0.04h-0.04h-0.04h-0.04h-0.04h-0.04H34.8
		h-0.04h-0.04h-0.04h-0.04h-0.04h-0.04h-0.04h-0.04h-0.04h-0.04H34.4h-0.04h-0.04h-0.04h-0.04h-0.04h-0.04h-0.04H34.1h-0.04h-0.04
		H34h-0.04h-0.04h-0.04h-0.04h-0.04h-0.04h-0.04H33.7h-0.04h-0.04h-0.04h-0.04h-0.04h-0.04h-0.04h-0.04h-0.04h-0.04H33.3h-0.04
		h-0.04h-0.04h-0.04h-0.04h-0.04h-0.04h-0.04h-0.04h-0.04H32.9h-0.04h-0.04h-0.04h-0.04h-0.04h-0.04h-0.04h-0.04h-0.04h-0.04H32.5
		h-0.04h-0.04h-0.04h-0.04h-0.04h-0.04h-0.04h-0.04h-0.04h-0.04H32.1h-0.04h-0.04h-0.04h-0.04h-0.04h-0.04h-0.04h-0.04h-0.04h-0.04
		H31.7h-0.04h-0.04h-0.04h-0.04h-0.04h-0.04h-0.04h-0.04h-0.04h-0.04H31.3h-0.04h-0.04h-0.04h-0.04h-0.04h-0.04h-0.04h-0.04h-0.04
		h-0.04H30.9h-0.04h-0.08V26.32L30.78,26.32z M35.56,13.21c0.01,0.07,0.02,0.14,0.02,0.21c0,0.07-0.01,0.15-0.02,0.21
		c-0.01,0.04-0.02,0.08-0.04,0.12c-0.01,0.03-0.02,0.06-0.04,0.08c-0.01,0.02-0.02,0.04-0.04,0.07c-0.01,0.02-0.02,0.04-0.04,0.05
		c-0.01,0.02-0.02,0.03-0.04,0.05c-0.01,0.01-0.02,0.03-0.04,0.04c-0.01,0.01-0.02,0.02-0.04,0.04c-0.01,0.01-0.02,0.02-0.04,0.03
		c-0.01,0.01-0.02,0.02-0.04,0.03c-0.01,0.01-0.02,0.02-0.04,0.03c-0.01,0.01-0.02,0.02-0.04,0.02c-0.01,0.01-0.02,0.01-0.04,0.02
		c-0.01,0.01-0.02,0.01-0.04,0.02c-0.01,0.01-0.02,0.01-0.04,0.02c-0.01,0.01-0.02,0.01-0.04,0.02c-0.01,0-0.02,0.01-0.04,0.01
		c-0.01,0-0.02,0.01-0.04,0.01c-0.01,0-0.02,0.01-0.04,0.01c-0.01,0-0.02,0.01-0.04,0.01c-0.01,0-0.02,0-0.04,0.01l-0.01,0
		c-0.01,0-0.02,0-0.03,0c-0.01,0-0.02,0-0.04,0c-0.01,0-0.02,0-0.04,0c-0.01,0-0.02,0-0.04,0c-0.01,0-0.02,0-0.04,0
		c-0.01,0-0.02,0-0.04,0l-0.01,0h-0.03h-0.04h-0.04h-0.04h-0.04H34.4h-0.04h-0.04h-0.04h-0.04h-0.04h-0.04h-0.04h-0.04h-0.04h-0.04
		H34h-0.04h-0.04h-0.04h-0.04h-0.04h-0.04h-0.04H33.7h-0.04h-0.04H33.6h-0.04h-0.04h-0.04h-0.04h-0.04h-0.04h-0.04H33.3h-0.04h-0.04
		h-0.04h-0.04h-0.04h-0.04h-0.04h-0.04h-0.04h-0.04H32.9h-0.04h-0.04h-0.04h-0.04h-0.04h-0.04h-0.04h-0.02V12.5h0.02h0.04h0.04h0.04
		h0.04h0.04h0.04h0.04h0.04h0.04h0.04h0.04h0.04h0.04h0.04h0.04h0.04h0.04h0.04h0.04h0.04h0.04h0.04h0.04h0.04h0.04h0.04h0.04h0.04
		h0.04h0.04h0.04h0.04h0.04h0.04h0.04h0.04H34h0.04h0.04h0.04h0.04h0.04h0.04h0.04h0.04h0.04h0.04h0.04h0.04h0.04h0.04h0.04h0.04
		h0.04h0.02l0.02,0c0.01,0,0.02,0,0.04,0c0.01,0,0.02,0,0.04,0c0.01,0,0.02,0,0.04,0c0.01,0,0.03,0,0.04,0c0.01,0,0.02,0,0.03,0
		l0.01,0c0.01,0,0.02,0,0.04,0.01c0.01,0,0.02,0.01,0.04,0.01c0.01,0,0.02,0.01,0.04,0.01c0.01,0,0.02,0.01,0.04,0.01
		c0.01,0,0.02,0.01,0.04,0.01c0.01,0,0.02,0.01,0.04,0.02c0.01,0.01,0.02,0.01,0.04,0.02c0.01,0.01,0.02,0.01,0.04,0.02
		c0.01,0.01,0.02,0.01,0.04,0.02c0.01,0.01,0.02,0.02,0.04,0.02c0.01,0.01,0.02,0.02,0.04,0.03c0.01,0.01,0.02,0.02,0.04,0.03
		c0.01,0.01,0.02,0.02,0.04,0.03c0.01,0.01,0.02,0.02,0.04,0.04c0.01,0.01,0.02,0.03,0.04,0.04c0.01,0.02,0.02,0.03,0.04,0.05
		c0.01,0.02,0.02,0.04,0.04,0.05c0.01,0.02,0.03,0.04,0.04,0.07c0.01,0.03,0.03,0.05,0.04,0.08C35.54,13.12,35.55,13.16,35.56,13.21
		z"></path>
	<path class="st24" d="M9.99,16.81c-0.03-0.01-0.05-0.02-0.08-0.04V7.46c0-0.26,0.03-0.52,0.08-0.77c0.01-0.05,0.02-0.11,0.04-0.16
		c0.01-0.04,0.02-0.09,0.04-0.13c0.01-0.04,0.02-0.08,0.04-0.12c0.01-0.04,0.02-0.07,0.04-0.11c0.01-0.03,0.02-0.06,0.04-0.1
		c0.01-0.03,0.02-0.06,0.04-0.09c0.01-0.03,0.02-0.06,0.04-0.08c0.01-0.03,0.02-0.05,0.04-0.08c0.01-0.02,0.02-0.05,0.04-0.07
		c0.01-0.02,0.02-0.05,0.04-0.07c0.01-0.02,0.02-0.04,0.04-0.07c0.01-0.02,0.02-0.04,0.04-0.06c0.01-0.02,0.02-0.04,0.04-0.06
		c0.01-0.02,0.02-0.04,0.04-0.06c0.01-0.02,0.02-0.04,0.04-0.06c0.01-0.02,0.02-0.04,0.04-0.05c0.01-0.02,0.02-0.04,0.04-0.05
		c0.01-0.02,0.02-0.03,0.04-0.05c0.01-0.02,0.02-0.03,0.04-0.05c0.01-0.02,0.02-0.03,0.04-0.05c0.01-0.02,0.02-0.03,0.04-0.05
		c0.01-0.01,0.02-0.03,0.04-0.04c0.01-0.01,0.02-0.03,0.04-0.04c0.01-0.01,0.02-0.03,0.04-0.04c0.01-0.01,0.02-0.03,0.04-0.04
		c0.01-0.01,0.02-0.03,0.04-0.04c0.01-0.01,0.02-0.03,0.04-0.04C10.98,4.82,10.99,4.81,11,4.8c0.01-0.01,0.02-0.02,0.04-0.04
		c0.01-0.01,0.02-0.02,0.04-0.04c0.01-0.01,0.02-0.02,0.04-0.03c0.01-0.01,0.02-0.02,0.04-0.03c0.01-0.01,0.02-0.02,0.04-0.03
		c0.01-0.01,0.02-0.02,0.04-0.03c0.01-0.01,0.02-0.02,0.04-0.03c0.01-0.01,0.02-0.02,0.04-0.03c0.01-0.01,0.02-0.02,0.04-0.03
		c0.01-0.01,0.02-0.02,0.04-0.03c0.01-0.01,0.02-0.02,0.04-0.03c0.01-0.01,0.02-0.02,0.04-0.03l0.04-0.03
		c0.01-0.01,0.02-0.02,0.04-0.03c0.01-0.01,0.02-0.02,0.04-0.03c0.01-0.01,0.02-0.02,0.04-0.02c0.01-0.01,0.02-0.02,0.04-0.02
		c0.01-0.01,0.02-0.02,0.04-0.02c0.01-0.01,0.02-0.02,0.04-0.02c0.01-0.01,0.02-0.02,0.04-0.02c0.01-0.01,0.02-0.01,0.04-0.02
		c0.01-0.01,0.02-0.01,0.04-0.02c0.01-0.01,0.02-0.01,0.04-0.02c0.01-0.01,0.02-0.01,0.04-0.02c0.01-0.01,0.02-0.01,0.04-0.02
		c0.01-0.01,0.02-0.01,0.04-0.02c0.01-0.01,0.02-0.01,0.04-0.02l0.04-0.02c0.01-0.01,0.02-0.01,0.04-0.02
		c0.01-0.01,0.02-0.01,0.04-0.02c0.01-0.01,0.02-0.01,0.04-0.02C12.14,4.01,12.16,4,12.17,4c0.01-0.01,0.02-0.01,0.04-0.02
		c0.01-0.01,0.02-0.01,0.04-0.02l0.04-0.01l0.04-0.01l0.04-0.01c0.01,0,0.02-0.01,0.04-0.01c0.01,0,0.02-0.01,0.04-0.01
		c0.01,0,0.02-0.01,0.04-0.01l0.04-0.01l0.04-0.01c0.01,0,0.02-0.01,0.04-0.01c0.01,0,0.02-0.01,0.04-0.01
		c0.01,0,0.02-0.01,0.04-0.01c0.01,0,0.02-0.01,0.04-0.01l0.04-0.01c0.01,0,0.02-0.01,0.04-0.01c0.01,0,0.02-0.01,0.04-0.01
		c0.01,0,0.02-0.01,0.04-0.01c0.01,0,0.02-0.01,0.04-0.01l0.04-0.01c0.01,0,0.02-0.01,0.04-0.01c0.01,0,0.02,0,0.04-0.01
		c0.01,0,0.02,0,0.04-0.01c0.01,0,0.02,0,0.04-0.01l0.04-0.01c0.01,0,0.02,0,0.04-0.01c0.01,0,0.02,0,0.04-0.01
		c0.01,0,0.02,0,0.04-0.01l0.04,0l0.04,0c0.01,0,0.02,0,0.04,0c0.01,0,0.02,0,0.04,0l0.04,0c0.01,0,0.02,0,0.04,0
		c0.01,0,0.02,0,0.04,0c0.01,0,0.02,0,0.04,0c0.01,0,0.02,0,0.04,0l0.04,0c0.01,0,0.02,0,0.04,0c0.01,0,0.02,0,0.04,0
		c0.01,0,0.02,0,0.04,0l0.02,0h0.02h0.04h0.04h0.04h0.04h0.04h0.04h0.04h0.04h0.04h0.04h0.04h0.04h0.04h0.04h0.04h0.04h0.04h0.04
		h0.04h0.04h0.04h0.04h0.04h0.04h0.04h0.04h0.04h0.04h0.04h0.04h0.04h0.04h0.04h0.04h0.04H15h0.04h0.04h0.04h0.04h0.04h0.04h0.04
		h0.04h0.04h0.04h0.04h0.04h0.04h0.04h0.04h0.04h0.04h0.04h0.04h0.04h0.04h0.04h0.04h0.04h0.04h0.04h0.04h0.04h0.04h0.04h0.04h0.04
		h0.04h0.04h0.04h0.04h0.04h0.04h0.04h0.04h0.04h0.04h0.04h0.04h0.04h0.04h0.04h0.04h0.04h0.04h0.04h0.04h0.04h0.04H17h0.04h0.04
		h0.04h0.04h0.04h0.04h0.04h0.04h0.04h0.04h0.04h0.04h0.04h0.04h0.04h0.04h0.04h0.04h0.04h0.04h0.04h0.04h0.04h0.04h0.04h0.04h0.04
		h0.04h0.04h0.04h0.04h0.04h0.04h0.04h0.04h0.04h0.04h0.04h0.04h0.04h0.04h0.04h0.04h0.04h0.04h0.04h0.04h0.04h0.04h0.04h0.04h0.04
		h0.04h0.04H19h0.04h0.04h0.04h0.04h0.04h0.03v18.87c0,0.16-0.01,0.33-0.03,0.48c-0.01,0.08-0.02,0.15-0.04,0.23
		c-0.01,0.06-0.02,0.11-0.04,0.17c-0.01,0.05-0.02,0.09-0.04,0.14c-0.01,0.04-0.02,0.08-0.04,0.12c-0.01,0.04-0.02,0.07-0.04,0.11
		c-0.01,0.03-0.02,0.07-0.04,0.1c-0.01,0.03-0.02,0.06-0.04,0.09c-0.01,0.03-0.02,0.06-0.04,0.08c-0.01,0.03-0.02,0.05-0.04,0.08
		c-0.01,0.03-0.02,0.05-0.04,0.07c-0.01,0.02-0.02,0.05-0.04,0.07c-0.01,0.02-0.02,0.05-0.04,0.07c-0.01,0.02-0.02,0.04-0.04,0.06
		c-0.01,0.02-0.02,0.04-0.04,0.06c-0.01,0.02-0.02,0.04-0.04,0.06c-0.01,0.02-0.02,0.04-0.04,0.06c-0.01,0.02-0.02,0.04-0.04,0.05
		c-0.01,0.02-0.02,0.04-0.04,0.05c-0.01,0.02-0.02,0.03-0.04,0.05c-0.01,0.02-0.02,0.03-0.04,0.05c-0.01,0.02-0.02,0.03-0.04,0.05
		c-0.01,0.02-0.02,0.03-0.04,0.05c-0.01,0.02-0.02,0.03-0.04,0.04c-0.01,0.01-0.02,0.03-0.04,0.04c-0.01,0.01-0.02,0.03-0.04,0.04
		c-0.01,0.01-0.02,0.03-0.04,0.04c-0.01,0.01-0.02,0.03-0.04,0.04c-0.01,0.01-0.02,0.03-0.04,0.04c-0.01,0.01-0.02,0.02-0.04,0.04
		c-0.01,0.01-0.02,0.02-0.04,0.04c-0.01,0.01-0.02,0.02-0.04,0.04c-0.01,0.01-0.02,0.02-0.04,0.03c-0.01,0.01-0.02,0.02-0.04,0.03
		c-0.01,0.01-0.02,0.02-0.04,0.03c-0.01,0.01-0.02,0.02-0.04,0.03c-0.01,0.01-0.02,0.02-0.04,0.03c-0.01,0.01-0.02,0.02-0.04,0.03
		c-0.01,0.01-0.02,0.02-0.04,0.03c-0.01,0.01-0.02,0.02-0.04,0.03c-0.01,0.01-0.02,0.02-0.04,0.03c-0.01,0.01-0.02,0.02-0.04,0.03
		c-0.01,0.01-0.02,0.02-0.04,0.03c-0.01,0.01-0.02,0.02-0.04,0.03c-0.01,0.01-0.02,0.02-0.04,0.03c-0.01,0.01-0.02,0.02-0.04,0.03
		c-0.01,0.01-0.02,0.02-0.04,0.02c-0.01,0.01-0.02,0.02-0.04,0.02c-0.01,0.01-0.02,0.02-0.04,0.02c-0.01,0.01-0.02,0.02-0.04,0.02
		c-0.01,0.01-0.02,0.01-0.04,0.02c-0.01,0.01-0.02,0.01-0.04,0.02c-0.01,0.01-0.02,0.01-0.04,0.02c-0.01,0.01-0.02,0.01-0.04,0.02
		c-0.01,0.01-0.02,0.01-0.04,0.02l-0.04,0.02c-0.01,0.01-0.02,0.01-0.04,0.02c-0.01,0.01-0.02,0.01-0.04,0.02
		c-0.01,0.01-0.02,0.01-0.04,0.02c-0.01,0.01-0.02,0.01-0.04,0.02c-0.01,0.01-0.02,0.01-0.04,0.02c-0.01,0.01-0.02,0.01-0.04,0.02
		l-0.04,0.02l-0.04,0.02c-0.01,0.01-0.02,0.01-0.04,0.01c-0.01,0-0.02,0.01-0.04,0.01c-0.01,0-0.02,0.01-0.04,0.01
		c-0.01,0-0.02,0.01-0.04,0.01c-0.01,0-0.02,0.01-0.04,0.01l-0.04,0.01l-0.04,0.01c-0.01,0-0.02,0.01-0.04,0.01
		c-0.01,0-0.02,0.01-0.04,0.01c-0.01,0-0.02,0.01-0.04,0.01l-0.04,0.01l-0.04,0.01c-0.01,0-0.02,0.01-0.04,0.01
		c-0.01,0-0.02,0.01-0.04,0.01c-0.01,0-0.02,0.01-0.04,0.01c-0.01,0-0.02,0.01-0.04,0.01l-0.04,0.01l-0.04,0.01
		c-0.01,0-0.02,0.01-0.04,0.01c-0.01,0-0.02,0-0.04,0.01c-0.01,0-0.02,0-0.04,0.01l-0.04,0.01c-0.01,0-0.02,0-0.04,0.01
		c-0.01,0-0.02,0-0.04,0.01c-0.01,0-0.02,0-0.04,0.01l-0.04,0.01c-0.01,0-0.02,0-0.04,0c-0.01,0-0.02,0-0.04,0
		c-0.01,0-0.02,0-0.04,0c-0.01,0-0.02,0-0.04,0l-0.04,0c-0.01,0-0.02,0-0.04,0c-0.01,0-0.02,0-0.04,0l-0.04,0l-0.04,0
		c-0.01,0-0.02,0-0.04,0c-0.01,0-0.02,0-0.04,0c-0.01,0-0.02,0-0.04,0l-0.04,0c-0.01,0-0.02,0-0.03,0h0H15.4h-0.04h-0.04h-0.04
		h-0.04h-0.04h-0.04h-0.04h-0.04h-0.04h-0.04H15h-0.04h-0.04h-0.04h-0.04h-0.04h-0.04h-0.04h-0.04h-0.04h-0.04H14.6h-0.04h-0.04
		h-0.04h-0.04h-0.04h-0.04h-0.04h-0.04h-0.04h-0.04H14.2h-0.04h-0.04h-0.04h-0.04h-0.04h-0.04h-0.04h-0.04h-0.04h-0.04H13.8h-0.04
		h-0.04h-0.04h-0.04h-0.04h-0.04h-0.04h-0.04h-0.04h-0.04H13.4h-0.04h-0.04h-0.04h-0.04h-0.04h-0.04h-0.04h-0.04h-0.04h-0.04H13
		h-0.04h-0.04h-0.04h-0.04h-0.04h-0.04h-0.04h-0.04h-0.04h-0.04H12.6h-0.04h-0.04h-0.04h-0.04h-0.04h-0.04h-0.04h-0.04h-0.04h-0.04
		H12.2h-0.04h-0.04H12.1h-0.04h-0.04h-0.04h-0.04h-0.04h-0.04h-0.04H11.8h-0.04h-0.04H11.7h-0.04h-0.04h-0.04h-0.04h-0.04h-0.04
		h-0.04H11.4h-0.04h-0.04H11.3h-0.04h-0.04h-0.04h-0.04h-0.04h-0.04h-0.04H11h-0.04h-0.04H10.9h-0.04h-0.04h-0.04h-0.04h-0.04h-0.04
		h-0.04H10.6h-0.04h-0.04H10.5h-0.04h-0.04h-0.04h-0.04h-0.04h-0.04h-0.04H10.2h-0.04h-0.04H10.1h-0.04h-0.04H9.99H9.91v-7.95
		c0,0,0.03,0.01,0.08,0.02l0.04,0.01l0.04,0.01l0.04,0.01l0.04,0.01l0.04,0.01l0.04,0.01l0.04,0.01l0.04,0.01l0.04,0.01l0.04,0.01
		l0.04,0.01l0.04,0.01l0.04,0.01l0.04,0.01l0.04,0.01l0.04,0.01l0.04,0.01l0.04,0.01l0.04,0.01l0.04,0.01l0.04,0.01l0.04,0.01
		l0.04,0.01l0.04,0.01l0.04,0.01l0.04,0.01l0.04,0.01L11,18.6l0.04,0.01l0.04,0.01l0.04,0.01l0.04,0.01l0.04,0.01l0.04,0.01
		l0.04,0.01l0.04,0.01l0.04,0.01l0.04,0.01l0.04,0.01l0.04,0.01l0.04,0.01l0.04,0.01l0.04,0l0.04,0l0.04,0l0.04,0l0.04,0l0.04,0
		l0.04,0l0.04,0l0.04,0l0.04,0l0.04,0l0.04,0l0.04,0l0.04,0l0.04,0l0.04,0l0.04,0l0.04,0l0.04,0l0.04,0l0.04,0l0.04,0l0.04,0l0.04,0
		l0.04,0l0.04,0l0.04,0l0.04,0l0.04,0l0.04,0l0.04,0l0.04,0l0.04,0l0.04,0l0.04,0l0.04,0l0.04,0l0.04,0l0.04,0l0.04,0l0.04,0l0.04,0
		l0.04,0l0.04,0l0.04,0l0.04,0l0.04,0l0.04,0l0.04,0l0.04,0l0.04,0l0.04,0l0.04,0l0.04,0l0.04,0l0.04,0l0.04,0l0.04,0l0.04,0l0.04,0
		l0.04,0l0.04,0l0.01,0l0.02,0l0.04,0l0.04,0l0.04,0l0.04,0l0.04,0l0.04,0l0.04,0l0.04,0l0.04,0l0.04,0l0.04,0l0.04,0l0.04,0l0.04,0
		l0.04,0l0.04,0l0.04,0l0.04,0l0.04,0l0.04,0l0.04,0l0.04,0l0.04,0l0.04,0l0.04,0l0.04,0l0.04,0l0.04,0l0.04,0l0.04,0l0.04,0l0.04,0
		l0.04,0l0.04,0l0.04,0l0.04,0l0.04,0l0.04,0l0.04,0l0.04,0l0.04,0c0.01,0,0.02,0,0.04-0.01l0.04-0.01l0.04-0.01l0.04-0.01
		c0.01,0,0.02,0,0.04-0.01l0.04-0.01c0.01,0,0.02,0,0.04-0.01c0.01,0,0.02,0,0.04-0.01l0.04-0.01l0.04-0.01l0.04-0.01
		c0.01,0,0.02,0,0.04-0.01l0.04-0.01l0.04-0.01c0.01,0,0.02-0.01,0.04-0.01l0.04-0.01c0.01,0,0.02-0.01,0.04-0.01
		c0.01,0,0.02-0.01,0.04-0.01l0.04-0.01c0.01,0,0.02-0.01,0.04-0.01c0.01,0,0.02-0.01,0.04-0.01l0.04-0.01
		c0.01,0,0.02-0.01,0.04-0.01c0.01,0,0.02-0.01,0.04-0.01l0.04-0.01c0.01,0,0.02-0.01,0.04-0.01l0.04-0.01l0.04-0.01
		c0.01,0,0.02-0.01,0.04-0.01l0.04-0.01l0.04-0.01c0.01,0,0.02-0.01,0.04-0.01c0.01,0,0.02-0.01,0.04-0.01l0.04-0.01
		c0.01,0,0.02-0.01,0.04-0.01c0.01,0,0.02-0.01,0.04-0.01c0.01,0,0.02-0.01,0.04-0.01l0.04-0.01l0.04-0.02
		c0.01-0.01,0.02-0.01,0.04-0.02c0.01-0.01,0.02-0.01,0.04-0.02l0.04-0.02l0.04-0.02c0.01-0.01,0.02-0.01,0.04-0.02
		c0.01-0.01,0.02-0.01,0.04-0.02c0.01-0.01,0.02-0.01,0.04-0.02c0.01-0.01,0.02-0.01,0.04-0.02c0.01-0.01,0.02-0.01,0.04-0.02
		c0.01-0.01,0.02-0.01,0.04-0.02c0.01-0.01,0.02-0.01,0.04-0.02c0.01-0.01,0.02-0.01,0.04-0.02c0.01-0.01,0.02-0.01,0.04-0.02
		c0.01-0.01,0.02-0.02,0.04-0.02c0.01-0.01,0.02-0.02,0.04-0.02c0.01-0.01,0.02-0.02,0.04-0.02c0.01-0.01,0.02-0.02,0.04-0.02
		c0.01-0.01,0.02-0.02,0.04-0.03c0.01-0.01,0.02-0.02,0.04-0.03c0.01-0.01,0.02-0.02,0.04-0.03c0.01-0.01,0.02-0.02,0.04-0.03
		c0.01-0.01,0.02-0.02,0.04-0.03c0.01-0.01,0.02-0.02,0.04-0.03c0.01-0.01,0.02-0.02,0.04-0.03c0.01-0.01,0.02-0.02,0.04-0.03
		c0.01-0.01,0.02-0.02,0.04-0.03c0.01-0.01,0.02-0.02,0.04-0.04c0.01-0.01,0.02-0.02,0.04-0.04c0.01-0.01,0.02-0.03,0.04-0.04
		c0.01-0.01,0.02-0.03,0.04-0.04c0.01-0.01,0.02-0.03,0.04-0.04c0.01-0.01,0.02-0.03,0.04-0.04c0.01-0.02,0.02-0.03,0.04-0.05
		c0.01-0.02,0.02-0.03,0.04-0.05c0.01-0.02,0.02-0.03,0.04-0.05c0.01-0.02,0.02-0.04,0.04-0.05c0.01-0.02,0.02-0.04,0.04-0.06
		c0.01-0.02,0.02-0.04,0.04-0.06c0.01-0.02,0.02-0.04,0.04-0.07c0.01-0.02,0.02-0.05,0.04-0.07c0.01-0.03,0.02-0.05,0.04-0.08
		c0.01-0.03,0.02-0.06,0.04-0.09c0.01-0.03,0.02-0.07,0.04-0.1c0.01-0.04,0.03-0.08,0.04-0.11c0.01-0.04,0.03-0.09,0.04-0.13
		c0.01-0.06,0.03-0.11,0.04-0.17c0.02-0.09,0.03-0.17,0.04-0.26c0.01-0.12,0.02-0.25,0.02-0.38v-4.38h-0.02h-0.04h-0.04h-0.04h-0.04
		h-0.04H18.2h-0.04h-0.04h-0.04h-0.04h-0.04h-0.04h-0.04h-0.04h-0.04h-0.04H17.8h-0.04h-0.04h-0.04h-0.04h-0.04h-0.04h-0.04h-0.04
		h-0.04h-0.04H17.4h-0.04h-0.04h-0.04h-0.04h-0.04h-0.04h-0.04h-0.04h-0.04h-0.04H17h-0.04h-0.04h-0.04h-0.04h-0.04h-0.04h-0.04
		h-0.04h-0.04h-0.04H16.6h-0.04h-0.04h-0.04h-0.04h-0.04h-0.04h-0.04h-0.04h-0.04h-0.04H16.2h-0.04h-0.04h-0.04h-0.04h-0.04h-0.04
		h-0.04h-0.04h-0.04h-0.04H15.8h-0.04h-0.04h-0.04h-0.04h-0.04h-0.04h-0.04h-0.04h-0.04h-0.04H15.4h-0.04h-0.04h-0.04h-0.04h-0.04
		h-0.03v4.38c0,0.07,0,0.14-0.01,0.2c-0.01,0.08-0.02,0.17-0.04,0.25c-0.01,0.05-0.02,0.1-0.04,0.15c-0.01,0.04-0.02,0.08-0.04,0.11
		c-0.01,0.03-0.02,0.06-0.04,0.09c-0.01,0.03-0.02,0.05-0.04,0.08c-0.01,0.02-0.02,0.05-0.04,0.07c-0.01,0.02-0.02,0.04-0.04,0.06
		c-0.01,0.02-0.02,0.04-0.04,0.06c-0.01,0.02-0.02,0.04-0.04,0.05c-0.01,0.02-0.02,0.03-0.04,0.05c-0.01,0.02-0.02,0.03-0.04,0.04
		c-0.01,0.01-0.02,0.03-0.04,0.04c-0.01,0.01-0.02,0.03-0.04,0.04c-0.01,0.01-0.02,0.02-0.04,0.04c-0.01,0.01-0.02,0.02-0.04,0.03
		c-0.01,0.01-0.02,0.02-0.04,0.03c-0.01,0.01-0.02,0.02-0.04,0.03c-0.01,0.01-0.02,0.02-0.04,0.03c-0.01,0.01-0.02,0.02-0.04,0.03
		c-0.01,0.01-0.02,0.02-0.04,0.03c-0.01,0.01-0.02,0.02-0.04,0.02c-0.01,0.01-0.02,0.02-0.04,0.02c-0.01,0.01-0.02,0.01-0.04,0.02
		c-0.01,0.01-0.02,0.01-0.04,0.02c-0.01,0.01-0.02,0.01-0.04,0.02c-0.01,0.01-0.02,0.01-0.04,0.02c-0.01,0.01-0.02,0.01-0.04,0.02
		c-0.01,0.01-0.02,0.01-0.04,0.02c-0.01,0.01-0.02,0.01-0.04,0.02c-0.01,0.01-0.02,0.01-0.04,0.01c-0.01,0-0.02,0.01-0.04,0.01
		c-0.01,0-0.02,0.01-0.04,0.01c-0.01,0-0.02,0.01-0.04,0.01c-0.01,0-0.02,0.01-0.04,0.01c-0.01,0-0.02,0.01-0.04,0.01
		c-0.01,0-0.02,0.01-0.04,0.01c-0.01,0-0.02,0.01-0.04,0.01c-0.01,0-0.02,0.01-0.04,0.01c-0.01,0-0.02,0.01-0.04,0.01
		c-0.01,0-0.02,0.01-0.04,0.01c-0.01,0-0.02,0-0.04,0.01c-0.01,0-0.02,0-0.04,0.01c-0.01,0-0.02,0-0.04,0.01l-0.04,0.01
		c-0.01,0-0.02,0-0.04,0c-0.01,0-0.02,0-0.04,0l-0.04,0c-0.01,0-0.02,0-0.04,0c-0.01,0-0.02,0-0.04,0c-0.01,0-0.02,0-0.04,0
		c-0.01,0-0.02,0-0.04,0c-0.01,0-0.02,0-0.04,0c-0.01,0-0.02,0-0.04,0l-0.04,0c-0.01,0-0.02,0-0.04,0l-0.01,0l-0.02,0l-0.04,0
		l-0.04,0l-0.04,0l-0.04,0l-0.04,0l-0.04,0l-0.04,0l-0.04,0l-0.04,0l-0.04,0l-0.04,0l-0.04,0l-0.04,0l-0.04,0l-0.04,0l-0.04,0
		l-0.04,0l-0.04,0l-0.04,0l-0.04,0l-0.04,0l-0.04-0.01l-0.04-0.01l-0.04-0.01l-0.04-0.01l-0.04-0.01l-0.04-0.01l-0.04-0.01
		l-0.04-0.01l-0.04-0.01l-0.04-0.01l-0.04-0.01l-0.04-0.01l-0.04-0.01l-0.04-0.01l-0.04-0.01l-0.04-0.01l-0.04-0.01l-0.04-0.01
		l-0.04-0.01l-0.04-0.01l-0.04-0.01l-0.04-0.01l-0.04-0.01l-0.04-0.01l-0.04-0.01l-0.04-0.01l-0.04-0.01l-0.04-0.01l-0.04-0.01
		l-0.04-0.01l-0.04-0.01l-0.04-0.01l-0.04-0.01l-0.04-0.01l-0.04-0.01l-0.04-0.01l-0.04-0.01L11,17.23l-0.04-0.01l-0.04-0.01
		l-0.04-0.01l-0.04-0.01l-0.04-0.01l-0.04-0.01l-0.04-0.01l-0.04-0.01l-0.04-0.01l-0.04-0.01l-0.04-0.01l-0.04-0.01l-0.04-0.01
		l-0.04-0.01l-0.04-0.02l-0.04-0.02l-0.04-0.02l-0.04-0.02l-0.04-0.02l-0.04-0.02l-0.04-0.02l-0.04-0.02l-0.04-0.02l-0.04-0.02
		l-0.04-0.02l-0.04-0.02l-0.04-0.02L9.99,16.81L9.99,16.81z"></path>
	<linearGradient id="SVGID_3_" gradientUnits="userSpaceOnUse" x1="9.9076" y1="15.0003" x2="19.3777" y2="15.0003">
		<stop offset="0" style="stop-color:#2B234B"></stop>
		<stop offset="0.2184" style="stop-color:#34305E"></stop>
		<stop offset="0.7328" style="stop-color:#464B86"></stop>
		<stop offset="1" style="stop-color:#4D5695"></stop>
	</linearGradient>
	<path style="fill-rule:evenodd;clip-rule:evenodd;fill:url(#SVGID_3_);" d="M9.91,26.32h5.64h0h0h0h0h0h0l0,0c0.01,0,0.02,0,0.04,0
		c0.01,0,0.02,0,0.04,0l0.04,0l0.04,0c0.01,0,0.02,0,0.04,0c0.01,0,0.02,0,0.04,0l0.04,0c0.01,0,0.02,0,0.04,0c0.01,0,0.02,0,0.04,0
		c0.01,0,0.02,0,0.04,0c0.01,0,0.02,0,0.04,0l0.04-0.01c0.01,0,0.02,0,0.04-0.01c0.01,0,0.02,0,0.04-0.01c0.01,0,0.02,0,0.04-0.01
		l0.04-0.01c0.01,0,0.02,0,0.04-0.01c0.01,0,0.02,0,0.04-0.01c0.01,0,0.02-0.01,0.04-0.01l0.04-0.01l0.04-0.01
		c0.01,0,0.02-0.01,0.04-0.01c0.01,0,0.02-0.01,0.04-0.01c0.01,0,0.02-0.01,0.04-0.01c0.01,0,0.02-0.01,0.04-0.01l0.04-0.01
		l0.04-0.01c0.01,0,0.02-0.01,0.04-0.01c0.01,0,0.02-0.01,0.04-0.01c0.01,0,0.02-0.01,0.04-0.01l0.04-0.01l0.04-0.01
		c0.01,0,0.02-0.01,0.04-0.01c0.01,0,0.02-0.01,0.04-0.01c0.01,0,0.02-0.01,0.04-0.01c0.01,0,0.02-0.01,0.04-0.01
		c0.01,0,0.02-0.01,0.04-0.01l0.04-0.02L16.97,26c0.01-0.01,0.02-0.01,0.04-0.02c0.01-0.01,0.02-0.01,0.04-0.02
		c0.01-0.01,0.02-0.01,0.04-0.02c0.01-0.01,0.02-0.01,0.04-0.02c0.01-0.01,0.02-0.01,0.04-0.02c0.01-0.01,0.02-0.01,0.04-0.02
		l0.04-0.02c0.01-0.01,0.02-0.01,0.04-0.02c0.01-0.01,0.02-0.01,0.04-0.02c0.01-0.01,0.02-0.01,0.04-0.02
		c0.01-0.01,0.02-0.01,0.04-0.02c0.01-0.01,0.02-0.01,0.04-0.02c0.01-0.01,0.02-0.02,0.04-0.02c0.01-0.01,0.02-0.01,0.04-0.02
		c0.01-0.01,0.02-0.02,0.04-0.02c0.01-0.01,0.02-0.02,0.04-0.02c0.01-0.01,0.02-0.02,0.04-0.03c0.01-0.01,0.02-0.02,0.04-0.03
		c0.01-0.01,0.02-0.02,0.04-0.03c0.01-0.01,0.02-0.02,0.04-0.03c0.01-0.01,0.02-0.02,0.04-0.03c0.01-0.01,0.02-0.02,0.04-0.03
		c0.01-0.01,0.02-0.02,0.04-0.03c0.01-0.01,0.02-0.02,0.04-0.03c0.01-0.01,0.02-0.02,0.04-0.03c0.01-0.01,0.02-0.02,0.04-0.03
		c0.01-0.01,0.02-0.02,0.04-0.03c0.01-0.01,0.02-0.02,0.04-0.03c0.01-0.01,0.02-0.02,0.04-0.03c0.01-0.01,0.02-0.02,0.04-0.03
		c0.01-0.01,0.02-0.02,0.04-0.04c0.01-0.01,0.02-0.02,0.04-0.04c0.01-0.01,0.02-0.02,0.04-0.04c0.01-0.01,0.02-0.03,0.04-0.04
		c0.01-0.01,0.02-0.03,0.04-0.04c0.01-0.01,0.02-0.03,0.04-0.04c0.01-0.01,0.02-0.03,0.04-0.04c0.01-0.01,0.02-0.03,0.04-0.04
		c0.01-0.01,0.02-0.03,0.04-0.04c0.01-0.02,0.02-0.03,0.04-0.05c0.01-0.02,0.02-0.03,0.04-0.05c0.01-0.02,0.02-0.03,0.04-0.05
		c0.01-0.02,0.02-0.03,0.04-0.05c0.01-0.02,0.02-0.03,0.04-0.05c0.01-0.02,0.02-0.04,0.04-0.05c0.01-0.02,0.02-0.04,0.04-0.06
		c0.01-0.02,0.02-0.04,0.04-0.06c0.01-0.02,0.02-0.04,0.04-0.06c0.01-0.02,0.02-0.04,0.04-0.06c0.01-0.02,0.02-0.04,0.04-0.07
		c0.01-0.02,0.02-0.05,0.04-0.07c0.01-0.02,0.02-0.05,0.04-0.07c0.01-0.03,0.02-0.05,0.04-0.08c0.01-0.03,0.02-0.06,0.04-0.08
		c0.01-0.03,0.02-0.06,0.04-0.09c0.01-0.03,0.02-0.07,0.04-0.1c0.01-0.04,0.02-0.07,0.04-0.11c0.01-0.04,0.02-0.08,0.04-0.12
		c0.01-0.05,0.03-0.09,0.04-0.14c0.01-0.06,0.03-0.11,0.04-0.17c0.01-0.07,0.03-0.15,0.04-0.23c0.02-0.14,0.03-0.27,0.03-0.41V3.68
		h-0.03h-0.04h-0.04h-0.04h-0.04H19h-0.04h-0.04h-0.04h-0.04h-0.04h-0.04h-0.04h-0.04h-0.04h-0.04H18.6h-0.04h-0.04h-0.04h-0.04
		h-0.04h-0.04h-0.04h-0.04h-0.04h-0.04H18.2h-0.04h-0.04h-0.04h-0.04h-0.04h-0.04h-0.04h-0.04h-0.04h-0.04H17.8h-0.04h-0.04h-0.04
		h-0.04h-0.04h-0.04h-0.04h-0.04h-0.04h-0.04H17.4h-0.04h-0.04h-0.04h-0.04h-0.04h-0.04h-0.04h-0.04h-0.04h-0.04H17h-0.04h-0.04
		h-0.04h-0.04h-0.04h-0.04h-0.04h-0.04h-0.04h-0.04H16.6h-0.04h-0.04h-0.04h-0.04h-0.04h-0.04h-0.04h-0.04h-0.04h-0.04H16.2h-0.04
		h-0.04h-0.04h-0.04h-0.04h-0.04h-0.04h-0.04h-0.04h-0.04H15.8h-0.04h-0.04h-0.04h-0.04h-0.04h-0.04h-0.04h-0.04h-0.04h-0.04H15.4
		h-0.04h-0.04h-0.04h-0.04h-0.04h-0.04h-0.04h-0.04h-0.04h-0.04H15h-0.04h-0.04h-0.04h-0.04h-0.04h-0.04h-0.04h-0.04h-0.04h-0.04
		H14.6h-0.04h-0.04h-0.04h-0.04h-0.04h-0.04h-0.04h-0.04h-0.04h-0.04H14.2h-0.04h-0.04h-0.04h-0.04h-0.04h-0.04h-0.04h-0.04h-0.04
		h-0.04H13.8h-0.04h-0.04h-0.04h-0.02l-0.02,0c-0.01,0-0.02,0-0.04,0c-0.01,0-0.02,0-0.04,0c-0.01,0-0.02,0-0.04,0l-0.04,0
		c-0.01,0-0.02,0-0.04,0c-0.01,0-0.02,0-0.04,0c-0.01,0-0.02,0-0.04,0c-0.01,0-0.02,0-0.04,0l-0.04,0c-0.01,0-0.02,0-0.04,0
		c-0.01,0-0.02,0-0.04,0l-0.04,0l-0.04,0c-0.01,0-0.02,0-0.04,0.01c-0.01,0-0.02,0-0.04,0.01c-0.01,0-0.02,0-0.04,0.01l-0.04,0.01
		c-0.01,0-0.02,0-0.04,0.01c-0.01,0-0.02,0-0.04,0.01c-0.01,0-0.02,0-0.04,0.01c-0.01,0-0.02,0.01-0.04,0.01l-0.04,0.01
		c-0.01,0-0.02,0.01-0.04,0.01c-0.01,0-0.02,0.01-0.04,0.01c-0.01,0-0.02,0.01-0.04,0.01c-0.01,0-0.02,0.01-0.04,0.01l-0.04,0.01
		c-0.01,0-0.02,0.01-0.04,0.01c-0.01,0-0.02,0.01-0.04,0.01c-0.01,0-0.02,0.01-0.04,0.01c-0.01,0-0.02,0.01-0.04,0.01l-0.04,0.01
		l-0.04,0.01c-0.01,0-0.02,0.01-0.04,0.01c-0.01,0-0.02,0.01-0.04,0.01c-0.01,0-0.02,0.01-0.04,0.01l-0.04,0.01l-0.04,0.01
		l-0.04,0.01c-0.01,0-0.02,0.01-0.04,0.02C12.19,3.99,12.18,3.99,12.17,4C12.16,4,12.14,4.01,12.13,4.01
		c-0.01,0.01-0.02,0.01-0.04,0.02c-0.01,0.01-0.02,0.01-0.04,0.02c-0.01,0.01-0.02,0.01-0.04,0.02l-0.04,0.02
		c-0.01,0.01-0.02,0.01-0.04,0.02c-0.01,0.01-0.02,0.01-0.04,0.02c-0.01,0.01-0.02,0.01-0.04,0.02c-0.01,0.01-0.02,0.01-0.04,0.02
		c-0.01,0.01-0.02,0.01-0.04,0.02c-0.01,0.01-0.02,0.01-0.04,0.02c-0.01,0.01-0.02,0.01-0.04,0.02c-0.01,0.01-0.02,0.01-0.04,0.02
		c-0.01,0.01-0.02,0.02-0.04,0.02c-0.01,0.01-0.02,0.02-0.04,0.02c-0.01,0.01-0.02,0.02-0.04,0.02c-0.01,0.01-0.02,0.02-0.04,0.02
		c-0.01,0.01-0.02,0.02-0.04,0.03c-0.01,0.01-0.02,0.02-0.04,0.03l-0.04,0.03c-0.01,0.01-0.02,0.02-0.04,0.03
		c-0.01,0.01-0.02,0.02-0.04,0.03c-0.01,0.01-0.02,0.02-0.04,0.03c-0.01,0.01-0.02,0.02-0.04,0.03c-0.01,0.01-0.02,0.02-0.04,0.03
		c-0.01,0.01-0.02,0.02-0.04,0.03c-0.01,0.01-0.02,0.02-0.04,0.03c-0.01,0.01-0.02,0.02-0.04,0.03c-0.01,0.01-0.02,0.02-0.04,0.03
		c-0.01,0.01-0.02,0.02-0.04,0.03c-0.01,0.01-0.02,0.02-0.04,0.04C11.03,4.77,11.02,4.78,11,4.8c-0.01,0.01-0.02,0.02-0.04,0.04
		c-0.01,0.01-0.02,0.03-0.04,0.04c-0.01,0.01-0.02,0.03-0.04,0.04c-0.01,0.01-0.02,0.03-0.04,0.04c-0.01,0.01-0.02,0.03-0.04,0.04
		c-0.01,0.01-0.02,0.03-0.04,0.04c-0.01,0.01-0.02,0.03-0.04,0.04c-0.01,0.02-0.02,0.03-0.04,0.05c-0.01,0.02-0.02,0.03-0.04,0.05
		c-0.01,0.02-0.02,0.03-0.04,0.05c-0.01,0.02-0.02,0.03-0.04,0.05c-0.01,0.02-0.02,0.03-0.04,0.05c-0.01,0.02-0.02,0.04-0.04,0.05
		c-0.01,0.02-0.02,0.04-0.04,0.06c-0.01,0.02-0.02,0.04-0.04,0.06c-0.01,0.02-0.02,0.04-0.04,0.06c-0.01,0.02-0.02,0.04-0.04,0.06
		c-0.01,0.02-0.02,0.04-0.04,0.07c-0.01,0.02-0.02,0.05-0.04,0.07c-0.01,0.02-0.02,0.05-0.04,0.07c-0.01,0.03-0.02,0.05-0.04,0.08
		c-0.01,0.03-0.02,0.06-0.04,0.08c-0.01,0.03-0.02,0.06-0.04,0.09c-0.01,0.03-0.02,0.06-0.04,0.1c-0.01,0.04-0.02,0.07-0.04,0.11
		c-0.01,0.04-0.02,0.08-0.04,0.12c-0.01,0.04-0.03,0.09-0.04,0.13C10.01,6.58,10,6.64,9.99,6.69c-0.05,0.25-0.08,0.5-0.08,0.77v9.32
		c0.03,0.01,0.05,0.03,0.08,0.04l0,0l0.04,0.02l0.04,0.02l0.04,0.02l0.04,0.02l0.04,0.02l0.04,0.02l0.04,0.02l0.04,0.02l0.04,0.02
		l0.04,0.02l0.04,0.02l0.04,0.02l0.04,0.02l0.04,0.02l0.04,0.01l0.04,0.01l0.04,0.01l0.04,0.01l0.04,0.01l0.04,0.01l0.04,0.01
		l0.04,0.01l0.04,0.01l0.04,0.01l0.04,0.01l0.04,0.01l0.04,0.01L11,17.23l0.04,0.01l0.04,0.01l0.04,0.01l0.04,0.01l0.04,0.01
		l0.04,0.01l0.04,0.01l0.04,0.01l0.04,0.01l0.04,0.01l0.04,0.01l0.04,0.01l0.04,0.01l0.04,0.01l0.04,0.01l0.04,0.01l0.04,0.01
		l0.04,0.01l0.04,0.01l0.04,0.01l0.04,0.01l0.04,0.01l0.04,0.01l0.04,0.01l0.04,0.01l0.04,0.01l0.04,0.01l0.04,0.01l0.04,0.01
		l0.04,0.01l0.04,0.01l0.04,0.01l0.04,0.01l0.04,0.01l0.04,0.01l0.04,0.01l0.04,0.01l0.04,0.01l0.04,0l0.04,0l0.04,0l0.04,0l0.04,0
		l0.04,0l0.04,0l0.04,0l0.04,0l0.04,0l0.04,0l0.04,0l0.04,0l0.04,0l0.04,0l0.04,0l0.04,0l0.04,0l0.04,0l0.04,0l0.04,0l0.02,0l0.01,0
		c0.01,0,0.02,0,0.04,0l0.04,0c0.01,0,0.02,0,0.04,0c0.01,0,0.02,0,0.04,0c0.01,0,0.02,0,0.04,0c0.01,0,0.02,0,0.04,0
		c0.01,0,0.02,0,0.04,0c0.01,0,0.02,0,0.04,0l0.04,0c0.01,0,0.02,0,0.04,0c0.01,0,0.02,0,0.04,0l0.04-0.01c0.01,0,0.02,0,0.04-0.01
		c0.01,0,0.02,0,0.04-0.01c0.01,0,0.02,0,0.04-0.01c0.01,0,0.02-0.01,0.04-0.01c0.01,0,0.02-0.01,0.04-0.01
		c0.01,0,0.02-0.01,0.04-0.01c0.01,0,0.02-0.01,0.04-0.01c0.01,0,0.02-0.01,0.04-0.01c0.01,0,0.02-0.01,0.04-0.01
		c0.01,0,0.02-0.01,0.04-0.01c0.01,0,0.02-0.01,0.04-0.01c0.01,0,0.02-0.01,0.04-0.01c0.01,0,0.02-0.01,0.04-0.01
		c0.01,0,0.02-0.01,0.04-0.01c0.01-0.01,0.02-0.01,0.04-0.02c0.01-0.01,0.02-0.01,0.04-0.02c0.01-0.01,0.02-0.01,0.04-0.02
		c0.01-0.01,0.02-0.01,0.04-0.02c0.01-0.01,0.02-0.01,0.04-0.02c0.01-0.01,0.02-0.01,0.04-0.02c0.01-0.01,0.02-0.01,0.04-0.02
		c0.01-0.01,0.02-0.02,0.04-0.02c0.01-0.01,0.02-0.02,0.04-0.02c0.01-0.01,0.02-0.02,0.04-0.03c0.01-0.01,0.02-0.02,0.04-0.03
		c0.01-0.01,0.02-0.02,0.04-0.03c0.01-0.01,0.02-0.02,0.04-0.03c0.01-0.01,0.02-0.02,0.04-0.03c0.01-0.01,0.02-0.02,0.04-0.03
		c0.01-0.01,0.02-0.02,0.04-0.04c0.01-0.01,0.02-0.03,0.04-0.04c0.01-0.01,0.02-0.03,0.04-0.04c0.01-0.01,0.02-0.03,0.04-0.04
		c0.01-0.02,0.02-0.03,0.04-0.05c0.01-0.02,0.02-0.03,0.04-0.05c0.01-0.02,0.02-0.04,0.04-0.06c0.01-0.02,0.02-0.04,0.04-0.06
		c0.01-0.02,0.02-0.05,0.04-0.07c0.01-0.03,0.02-0.05,0.04-0.08c0.01-0.03,0.03-0.06,0.04-0.09c0.01-0.04,0.03-0.07,0.04-0.11
		c0.01-0.05,0.03-0.1,0.04-0.15c0.02-0.08,0.03-0.16,0.04-0.25c0.01-0.07,0.01-0.13,0.01-0.2v-4.38h0.03h0.04h0.04h0.04h0.04h0.04
		h0.04h0.04h0.04h0.04h0.04h0.04h0.04h0.04h0.04h0.04h0.04h0.04h0.04h0.04h0.04h0.04h0.04h0.04h0.04h0.04h0.04h0.04h0.04h0.04h0.04
		h0.04h0.04h0.04h0.04h0.04h0.04h0.04h0.04h0.04h0.04h0.04h0.04h0.04h0.04h0.04h0.04h0.04h0.04H17h0.04h0.04h0.04h0.04h0.04h0.04
		h0.04h0.04h0.04h0.04h0.04h0.04h0.04h0.04h0.04h0.04h0.04h0.04h0.04h0.04h0.04h0.04h0.04h0.04h0.04h0.04h0.04h0.04h0.04h0.04h0.04
		h0.04h0.04h0.04h0.04h0.04h0.04h0.04h0.04h0.02v4.38c0,0.13-0.01,0.25-0.02,0.38c-0.01,0.09-0.02,0.18-0.04,0.26
		c-0.01,0.06-0.02,0.11-0.04,0.17c-0.01,0.05-0.02,0.09-0.04,0.13c-0.01,0.04-0.02,0.08-0.04,0.11c-0.01,0.03-0.02,0.07-0.04,0.1
		c-0.01,0.03-0.02,0.06-0.04,0.09c-0.01,0.03-0.02,0.05-0.04,0.08c-0.01,0.02-0.02,0.05-0.04,0.07c-0.01,0.02-0.02,0.04-0.04,0.07
		c-0.01,0.02-0.02,0.04-0.04,0.06c-0.01,0.02-0.02,0.04-0.04,0.06c-0.01,0.02-0.02,0.04-0.04,0.05c-0.01,0.02-0.02,0.03-0.04,0.05
		c-0.01,0.02-0.02,0.03-0.04,0.05c-0.01,0.02-0.02,0.03-0.04,0.05c-0.01,0.01-0.02,0.03-0.04,0.04c-0.01,0.01-0.02,0.03-0.04,0.04
		c-0.01,0.01-0.02,0.03-0.04,0.04c-0.01,0.01-0.02,0.03-0.04,0.04c-0.01,0.01-0.02,0.02-0.04,0.04c-0.01,0.01-0.02,0.02-0.04,0.04
		c-0.01,0.01-0.02,0.02-0.04,0.03c-0.01,0.01-0.02,0.02-0.04,0.03c-0.01,0.01-0.02,0.02-0.04,0.03c-0.01,0.01-0.02,0.02-0.04,0.03
		c-0.01,0.01-0.02,0.02-0.04,0.03c-0.01,0.01-0.02,0.02-0.04,0.03c-0.01,0.01-0.02,0.02-0.04,0.03c-0.01,0.01-0.02,0.02-0.04,0.03
		c-0.01,0.01-0.02,0.02-0.04,0.03c-0.01,0.01-0.02,0.02-0.04,0.02c-0.01,0.01-0.02,0.02-0.04,0.02c-0.01,0.01-0.02,0.02-0.04,0.02
		c-0.01,0.01-0.02,0.02-0.04,0.02c-0.01,0.01-0.02,0.01-0.04,0.02c-0.01,0.01-0.02,0.01-0.04,0.02c-0.01,0.01-0.02,0.01-0.04,0.02
		c-0.01,0.01-0.02,0.01-0.04,0.02c-0.01,0.01-0.02,0.01-0.04,0.02c-0.01,0.01-0.02,0.01-0.04,0.02c-0.01,0.01-0.02,0.01-0.04,0.02
		c-0.01,0.01-0.02,0.01-0.04,0.02c-0.01,0.01-0.02,0.01-0.04,0.02l-0.04,0.02l-0.04,0.02c-0.01,0.01-0.02,0.01-0.04,0.02
		c-0.01,0.01-0.02,0.01-0.04,0.02l-0.04,0.02l-0.04,0.01c-0.01,0-0.02,0.01-0.04,0.01c-0.01,0-0.02,0.01-0.04,0.01
		c-0.01,0-0.02,0.01-0.04,0.01l-0.04,0.01c-0.01,0-0.02,0.01-0.04,0.01c-0.01,0-0.02,0.01-0.04,0.01l-0.04,0.01l-0.04,0.01
		c-0.01,0-0.02,0.01-0.04,0.01l-0.04,0.01l-0.04,0.01c-0.01,0-0.02,0.01-0.04,0.01l-0.04,0.01c-0.01,0-0.02,0.01-0.04,0.01
		c-0.01,0-0.02,0.01-0.04,0.01l-0.04,0.01c-0.01,0-0.02,0.01-0.04,0.01c-0.01,0-0.02,0.01-0.04,0.01l-0.04,0.01
		c-0.01,0-0.02,0.01-0.04,0.01c-0.01,0-0.02,0.01-0.04,0.01l-0.04,0.01c-0.01,0-0.02,0.01-0.04,0.01l-0.04,0.01l-0.04,0.01
		c-0.01,0-0.02,0.01-0.04,0.01l-0.04,0.01l-0.04,0.01l-0.04,0.01c-0.01,0-0.02,0-0.04,0.01c-0.01,0-0.02,0-0.04,0.01l-0.04,0.01
		c-0.01,0-0.02,0-0.04,0.01l-0.04,0.01l-0.04,0.01l-0.04,0.01c-0.01,0-0.02,0-0.04,0.01l-0.04,0l-0.04,0l-0.04,0l-0.04,0l-0.04,0
		l-0.04,0l-0.04,0l-0.04,0l-0.04,0l-0.04,0l-0.04,0l-0.04,0l-0.04,0l-0.04,0l-0.04,0l-0.04,0l-0.04,0l-0.04,0l-0.04,0l-0.04,0
		l-0.04,0l-0.04,0l-0.04,0l-0.04,0l-0.04,0l-0.04,0l-0.04,0l-0.04,0l-0.04,0l-0.04,0l-0.04,0l-0.04,0l-0.04,0l-0.04,0l-0.04,0
		l-0.04,0l-0.04,0l-0.04,0l-0.04,0l-0.04,0l-0.04,0l-0.02,0l-0.01,0l-0.04,0l-0.04,0l-0.04,0l-0.04,0l-0.04,0l-0.04,0l-0.04,0
		l-0.04,0l-0.04,0l-0.04,0l-0.04,0l-0.04,0l-0.04,0l-0.04,0l-0.04,0l-0.04,0l-0.04,0l-0.04,0l-0.04,0l-0.04,0l-0.04,0l-0.04,0
		l-0.04,0l-0.04,0l-0.04,0l-0.04,0l-0.04,0l-0.04,0l-0.04,0l-0.04,0l-0.04,0l-0.04,0l-0.04,0l-0.04,0l-0.04,0l-0.04,0l-0.04,0
		l-0.04,0l-0.04,0l-0.04,0l-0.04,0l-0.04,0l-0.04,0l-0.04,0l-0.04,0l-0.04,0l-0.04,0l-0.04,0l-0.04,0l-0.04,0l-0.04,0l-0.04,0
		l-0.04,0l-0.04,0l-0.04,0l-0.04,0l-0.04,0l-0.04,0l-0.04,0l-0.04,0l-0.04,0l-0.04,0l-0.04-0.01l-0.04-0.01l-0.04-0.01l-0.04-0.01
		l-0.04-0.01l-0.04-0.01l-0.04-0.01l-0.04-0.01l-0.04-0.01l-0.04-0.01l-0.04-0.01l-0.04-0.01l-0.04-0.01L11,18.6l-0.04-0.01
		l-0.04-0.01l-0.04-0.01l-0.04-0.01l-0.04-0.01l-0.04-0.01l-0.04-0.01l-0.04-0.01l-0.04-0.01l-0.04-0.01l-0.04-0.01l-0.04-0.01
		l-0.04-0.01L10.5,18.5l-0.04-0.01l-0.04-0.01l-0.04-0.01l-0.04-0.01l-0.04-0.01l-0.04-0.01l-0.04-0.01l-0.04-0.01l-0.04-0.01
		l-0.04-0.01l-0.04-0.01l-0.04-0.01l-0.04-0.01l-0.04-0.01c-0.05-0.01-0.08-0.02-0.08-0.02V26.32z"></path>
</g>
</svg>