<svg version="1.1" id="Camada_1" xmlns="http://www.w3.org/2000/svg" xmlns:xlink="http://www.w3.org/1999/xlink" x="0px" y="0px" viewBox="0 0 50 30" style="enable-background:new 0 0 50 30;" xml:space="preserve">
<style type="text/css">
	.st0{fill-rule:evenodd;clip-rule:evenodd;fill:#FFFFFF;}
	.st1{fill:#161615;}
	.st2{fill:#9B3F1E;}
	.st3{fill:#A96425;}
	.st4{fill:#BF9731;}
	.st5{fill-rule:evenodd;clip-rule:evenodd;fill:#016FD0;}
	.st6{fill-rule:evenodd;clip-rule:evenodd;fill:#161615;}
	.st7{fill:#2C387D;}
	.st8{fill:#FFFFFF;}
	.st9{fill-rule:evenodd;clip-rule:evenodd;fill:#050013;stroke:#231F20;stroke-width:0.5669;stroke-miterlimit:22.9256;}
	.st10{fill-rule:evenodd;clip-rule:evenodd;fill:#009DD7;}
	.st11{fill-rule:evenodd;clip-rule:evenodd;fill:#FFF200;}
	.st12{fill-rule:evenodd;clip-rule:evenodd;fill:#E33206;}
	.st13{fill:url(#SVGID_1_);}
	.st14{fill:url(#SVGID_2_);}
	.st15{fill:url(#SVGID_3_);}
	.st16{fill:url(#SVGID_4_);}
	.st17{fill-rule:evenodd;clip-rule:evenodd;fill:#322466;}
	.st18{fill-rule:evenodd;clip-rule:evenodd;fill:#E7E740;}
	.st19{fill-rule:evenodd;clip-rule:evenodd;fill:#9A3E1C;}
	.st20{fill-rule:evenodd;clip-rule:evenodd;fill:#322466;stroke:#322466;stroke-width:0.216;stroke-miterlimit:22.9256;}
	.st21{fill-rule:evenodd;clip-rule:evenodd;fill:#FFFFFF;stroke:#161615;stroke-width:0.216;stroke-miterlimit:22.9256;}
	.st22{fill-rule:evenodd;clip-rule:evenodd;fill:url(#SVGID_5_);}
	.st23{fill-rule:evenodd;clip-rule:evenodd;fill:url(#SVGID_6_);}
	.st24{fill-rule:evenodd;clip-rule:evenodd;fill:none;stroke:#161615;stroke-width:0.216;stroke-miterlimit:22.9256;}
	.st25{fill-rule:evenodd;clip-rule:evenodd;fill:url(#SVGID_7_);}
</style>
<rect y="0" class="st0" width="50" height="30"></rect>
<g>
	<g>
		<path class="st1" d="M14.85,24.54c-0.09-0.09-0.19-0.16-0.32-0.21c-0.12-0.05-0.25-0.07-0.4-0.07c-0.08,0-0.16,0.01-0.24,0.02
			c-0.08,0.01-0.16,0.04-0.24,0.07c-0.08,0.03-0.15,0.08-0.23,0.14c-0.07,0.06-0.13,0.13-0.19,0.22c-0.09-0.14-0.2-0.25-0.35-0.33
			c-0.15-0.08-0.31-0.12-0.5-0.12c-0.06,0-0.13,0.01-0.2,0.02c-0.07,0.01-0.13,0.03-0.2,0.06c-0.07,0.03-0.13,0.07-0.19,0.11
			c-0.06,0.05-0.12,0.11-0.16,0.18v-0.31h-0.53v2.53h0.54v-1.4c0-0.11,0.02-0.2,0.05-0.29c0.03-0.08,0.08-0.15,0.14-0.21
			c0.06-0.06,0.12-0.1,0.2-0.13c0.08-0.03,0.16-0.04,0.25-0.04c0.18,0,0.32,0.06,0.42,0.17c0.1,0.11,0.15,0.28,0.15,0.49v1.41h0.54
			v-1.4c0-0.11,0.02-0.2,0.05-0.29c0.03-0.08,0.08-0.15,0.14-0.21c0.06-0.06,0.12-0.1,0.2-0.13c0.08-0.03,0.16-0.04,0.25-0.04
			c0.18,0,0.32,0.06,0.42,0.17c0.1,0.11,0.15,0.28,0.15,0.49v1.41h0.54v-1.59c0-0.15-0.02-0.28-0.07-0.41
			C15.01,24.74,14.94,24.63,14.85,24.54z"></path>
		<path class="st1" d="M17.68,24.63c-0.09-0.11-0.2-0.2-0.33-0.27c-0.13-0.07-0.29-0.1-0.47-0.1c-0.18,0-0.34,0.03-0.5,0.1
			c-0.15,0.07-0.29,0.16-0.4,0.28c-0.11,0.12-0.2,0.26-0.27,0.42c-0.07,0.16-0.1,0.34-0.1,0.53c0,0.19,0.03,0.37,0.1,0.53
			c0.07,0.16,0.15,0.3,0.27,0.42c0.11,0.12,0.25,0.21,0.4,0.28c0.15,0.07,0.32,0.1,0.5,0.1c0.18,0,0.34-0.03,0.47-0.1
			c0.13-0.07,0.24-0.16,0.33-0.27v0.3h0.55v-2.53h-0.55V24.63z M17.65,25.91c-0.04,0.1-0.09,0.18-0.16,0.26
			c-0.07,0.07-0.15,0.13-0.24,0.17c-0.09,0.04-0.2,0.06-0.31,0.06c-0.12,0-0.23-0.02-0.32-0.06c-0.09-0.04-0.17-0.1-0.24-0.17
			c-0.07-0.07-0.12-0.16-0.15-0.26c-0.04-0.1-0.05-0.2-0.05-0.31c0-0.11,0.02-0.22,0.05-0.31c0.04-0.1,0.09-0.18,0.15-0.26
			c0.07-0.07,0.14-0.13,0.24-0.17c0.09-0.04,0.2-0.06,0.32-0.06c0.11,0,0.22,0.02,0.31,0.06c0.09,0.04,0.17,0.1,0.24,0.17
			c0.07,0.07,0.12,0.16,0.16,0.26c0.04,0.1,0.06,0.21,0.06,0.32S17.69,25.81,17.65,25.91z"></path>
		<path class="st1" d="M20.76,25.59c-0.15-0.12-0.37-0.2-0.65-0.24l-0.26-0.04c-0.06-0.01-0.11-0.02-0.16-0.03
			c-0.05-0.01-0.09-0.03-0.13-0.05c-0.04-0.02-0.07-0.04-0.09-0.07c-0.02-0.03-0.03-0.07-0.03-0.11c0-0.09,0.04-0.16,0.13-0.22
			c0.08-0.06,0.2-0.08,0.35-0.08c0.08,0,0.16,0.01,0.23,0.02c0.08,0.01,0.15,0.03,0.22,0.05c0.07,0.02,0.13,0.04,0.19,0.07
			c0.06,0.03,0.1,0.05,0.14,0.07l0.24-0.43c-0.13-0.08-0.29-0.15-0.46-0.2c-0.18-0.05-0.36-0.07-0.56-0.07
			c-0.16,0-0.31,0.02-0.44,0.06c-0.13,0.04-0.24,0.09-0.33,0.16c-0.09,0.07-0.16,0.15-0.21,0.25c-0.05,0.1-0.07,0.21-0.07,0.34
			c0,0.2,0.07,0.37,0.22,0.49c0.15,0.13,0.36,0.21,0.64,0.25l0.26,0.03c0.15,0.02,0.26,0.05,0.33,0.1c0.07,0.05,0.11,0.11,0.11,0.18
			c0,0.09-0.05,0.17-0.15,0.23c-0.1,0.06-0.24,0.08-0.43,0.08c-0.1,0-0.2-0.01-0.28-0.02c-0.08-0.01-0.16-0.03-0.22-0.06
			c-0.07-0.02-0.13-0.05-0.18-0.08c-0.05-0.03-0.1-0.06-0.15-0.1l-0.26,0.41c0.09,0.07,0.19,0.12,0.29,0.17
			c0.1,0.04,0.2,0.08,0.3,0.1c0.1,0.02,0.19,0.04,0.27,0.05c0.09,0.01,0.16,0.01,0.23,0.01c0.18,0,0.34-0.02,0.49-0.06
			c0.14-0.04,0.26-0.1,0.36-0.17c0.1-0.07,0.17-0.16,0.22-0.26c0.05-0.1,0.08-0.21,0.08-0.33C20.99,25.88,20.91,25.71,20.76,25.59z"></path>
		<path class="st1" d="M25.92,24.63c-0.1-0.12-0.23-0.21-0.38-0.27c-0.15-0.06-0.31-0.1-0.48-0.1c-0.19,0-0.36,0.03-0.51,0.1
			c-0.15,0.06-0.29,0.15-0.4,0.27c-0.11,0.12-0.2,0.26-0.26,0.42c-0.06,0.16-0.09,0.34-0.09,0.54c0,0.2,0.03,0.38,0.09,0.55
			c0.06,0.16,0.15,0.3,0.27,0.42c0.11,0.12,0.25,0.21,0.41,0.27c0.16,0.06,0.33,0.09,0.52,0.09c0.19,0,0.37-0.03,0.55-0.08
			c0.17-0.05,0.34-0.15,0.49-0.28l-0.27-0.39c-0.11,0.08-0.22,0.15-0.35,0.2c-0.13,0.05-0.25,0.07-0.38,0.07
			c-0.09,0-0.18-0.01-0.26-0.04c-0.08-0.02-0.16-0.06-0.22-0.11c-0.07-0.05-0.12-0.12-0.17-0.2c-0.05-0.08-0.08-0.18-0.1-0.29h1.87
			c0-0.03,0.01-0.06,0.01-0.1c0-0.04,0-0.07,0-0.11c0-0.2-0.03-0.38-0.09-0.54C26.11,24.89,26.02,24.75,25.92,24.63z M24.38,25.38
			c0.01-0.09,0.04-0.18,0.07-0.25c0.04-0.08,0.08-0.14,0.14-0.2c0.06-0.06,0.12-0.1,0.2-0.13c0.08-0.03,0.16-0.04,0.26-0.04
			c0.18,0,0.32,0.05,0.43,0.16c0.11,0.11,0.18,0.26,0.21,0.46H24.38z"></path>
		<path class="st1" d="M33.24,24.63c-0.09-0.11-0.2-0.2-0.33-0.27c-0.13-0.07-0.29-0.1-0.47-0.1c-0.18,0-0.34,0.03-0.5,0.1
			c-0.15,0.07-0.29,0.16-0.4,0.28c-0.11,0.12-0.2,0.26-0.27,0.42c-0.07,0.16-0.1,0.34-0.1,0.53c0,0.19,0.03,0.37,0.1,0.53
			c0.06,0.16,0.15,0.3,0.27,0.42c0.11,0.12,0.25,0.21,0.4,0.28c0.15,0.07,0.32,0.1,0.5,0.1c0.18,0,0.34-0.03,0.47-0.1
			c0.13-0.07,0.24-0.16,0.33-0.27v0.3h0.55v-2.53h-0.55V24.63z M33.22,25.91c-0.04,0.1-0.09,0.18-0.16,0.26
			c-0.07,0.07-0.15,0.13-0.24,0.17c-0.09,0.04-0.2,0.06-0.31,0.06c-0.12,0-0.23-0.02-0.32-0.06c-0.09-0.04-0.17-0.1-0.24-0.17
			c-0.07-0.07-0.12-0.16-0.15-0.26c-0.04-0.1-0.05-0.2-0.05-0.31c0-0.11,0.02-0.22,0.05-0.31c0.04-0.1,0.09-0.18,0.15-0.26
			c0.07-0.07,0.14-0.13,0.24-0.17c0.09-0.04,0.2-0.06,0.32-0.06c0.11,0,0.22,0.02,0.31,0.06c0.09,0.04,0.17,0.1,0.24,0.17
			c0.07,0.07,0.12,0.16,0.16,0.26c0.04,0.1,0.06,0.21,0.06,0.32S33.26,25.81,33.22,25.91z"></path>
		<path class="st1" d="M23.12,26.35c-0.09,0.03-0.18,0.05-0.26,0.05c-0.06,0-0.11-0.01-0.16-0.03c-0.05-0.02-0.09-0.05-0.13-0.08
			c-0.04-0.04-0.06-0.09-0.09-0.15c-0.02-0.06-0.03-0.13-0.03-0.22v-1.1h0.89v-0.5h-0.89v-0.76h-0.55v0.76h-0.5v0.5h0.5v1.11
			c0,0.34,0.08,0.58,0.24,0.74c0.16,0.16,0.38,0.24,0.67,0.24c0.16,0,0.3-0.02,0.43-0.07c0.08-0.03,0.16-0.07,0.24-0.11l-0.19-0.46
			C23.24,26.3,23.18,26.33,23.12,26.35z"></path>
		<path class="st1" d="M28.1,24.26c-0.15,0-0.29,0.03-0.42,0.08c-0.12,0.06-0.23,0.19-0.31,0.31v-0.33h-0.5v2.53h0.51v-1.39
			c0-0.11,0.01-0.2,0.04-0.29c0.03-0.08,0.07-0.16,0.12-0.21c0.05-0.06,0.12-0.1,0.19-0.13c0.07-0.03,0.15-0.04,0.24-0.04
			c0.07,0,0.14,0.01,0.22,0.02c0.04,0.01,0.08,0.02,0.11,0.03l0.16-0.53c-0.04-0.01-0.09-0.03-0.14-0.03
			C28.26,24.27,28.18,24.26,28.1,24.26z"></path>
		<path class="st1" d="M35.76,24.26c-0.15,0-0.29,0.03-0.42,0.08c-0.12,0.06-0.23,0.19-0.31,0.31v-0.33h-0.5v2.53h0.51v-1.39
			c0-0.11,0.01-0.2,0.04-0.29c0.03-0.08,0.07-0.16,0.12-0.21c0.05-0.06,0.12-0.1,0.19-0.13c0.07-0.03,0.15-0.04,0.24-0.04
			c0.07,0,0.14,0.01,0.22,0.02c0.04,0.01,0.08,0.02,0.11,0.03l0.16-0.53c-0.04-0.01-0.09-0.03-0.14-0.03
			C35.92,24.27,35.84,24.26,35.76,24.26z"></path>
		<path class="st1" d="M38.33,23.3v1.33c-0.09-0.11-0.2-0.2-0.33-0.27c-0.13-0.07-0.29-0.1-0.47-0.1c-0.18,0-0.34,0.03-0.5,0.1
			c-0.15,0.07-0.29,0.16-0.4,0.28c-0.11,0.12-0.2,0.26-0.27,0.42c-0.07,0.16-0.1,0.34-0.1,0.53c0,0.19,0.03,0.37,0.1,0.53
			c0.06,0.16,0.15,0.3,0.27,0.42c0.11,0.12,0.25,0.21,0.4,0.28c0.15,0.07,0.32,0.1,0.5,0.1c0.18,0,0.34-0.03,0.47-0.1
			c0.13-0.07,0.24-0.16,0.33-0.27v0.3h0.55V23.3H38.33z M38.31,25.91c-0.04,0.1-0.09,0.18-0.16,0.26c-0.07,0.07-0.15,0.13-0.24,0.17
			c-0.09,0.04-0.2,0.06-0.31,0.06c-0.12,0-0.23-0.02-0.32-0.06c-0.09-0.04-0.17-0.1-0.24-0.17c-0.06-0.07-0.12-0.16-0.15-0.26
			c-0.04-0.1-0.05-0.2-0.05-0.31c0-0.11,0.02-0.22,0.05-0.31c0.04-0.1,0.09-0.18,0.15-0.26c0.07-0.07,0.14-0.13,0.24-0.17
			c0.09-0.04,0.2-0.06,0.32-0.06c0.11,0,0.22,0.02,0.31,0.06c0.09,0.04,0.17,0.1,0.24,0.17c0.07,0.07,0.12,0.16,0.16,0.26
			c0.04,0.1,0.06,0.21,0.06,0.32S38.35,25.81,38.31,25.91z"></path>
		<path class="st1" d="M29.42,25.01c0.07-0.07,0.15-0.13,0.25-0.17c0.1-0.04,0.2-0.06,0.31-0.06v0c0.12,0,0.24,0.02,0.35,0.06
			c0.1,0.04,0.19,0.09,0.27,0.16l0.27-0.44c-0.1-0.08-0.21-0.14-0.34-0.2c-0.17-0.07-0.35-0.1-0.54-0.1c-0.2,0-0.38,0.03-0.54,0.1
			c-0.17,0.07-0.31,0.16-0.43,0.28c-0.12,0.12-0.21,0.26-0.28,0.42c-0.07,0.16-0.1,0.34-0.1,0.53c0,0.19,0.03,0.37,0.1,0.53
			c0.07,0.16,0.16,0.3,0.28,0.42c0.12,0.12,0.26,0.21,0.43,0.28c0.17,0.07,0.35,0.1,0.54,0.1c0.2,0,0.38-0.03,0.54-0.1
			c0.12-0.05,0.24-0.12,0.34-0.2l-0.27-0.44c-0.08,0.07-0.16,0.12-0.27,0.16c-0.11,0.04-0.22,0.06-0.35,0.06v0
			c-0.11,0-0.22-0.02-0.31-0.06c-0.1-0.04-0.18-0.09-0.25-0.17c-0.07-0.07-0.13-0.16-0.17-0.26c-0.04-0.1-0.06-0.21-0.06-0.33
			c0-0.12,0.02-0.23,0.06-0.33C29.29,25.16,29.35,25.08,29.42,25.01z"></path>
	</g>
	<g>
		<path class="st1" d="M40.05,26.48c0.04,0,0.07,0.01,0.1,0.02c0.03,0.01,0.06,0.03,0.08,0.06c0.02,0.02,0.04,0.05,0.06,0.08
			c0.01,0.03,0.02,0.06,0.02,0.1c0,0.04-0.01,0.07-0.02,0.1c-0.01,0.03-0.03,0.06-0.06,0.08c-0.02,0.02-0.05,0.04-0.08,0.06
			c-0.03,0.01-0.07,0.02-0.1,0.02c-0.04,0-0.07-0.01-0.1-0.02c-0.03-0.01-0.06-0.03-0.08-0.06c-0.02-0.02-0.04-0.05-0.06-0.08
			c-0.01-0.03-0.02-0.06-0.02-0.1c0-0.04,0.01-0.07,0.02-0.1c0.01-0.03,0.03-0.06,0.06-0.08c0.02-0.02,0.05-0.04,0.08-0.06
			C39.97,26.49,40.01,26.48,40.05,26.48z M40.05,26.93c0.03,0,0.05,0,0.07-0.01c0.02-0.01,0.04-0.02,0.06-0.04
			c0.02-0.02,0.03-0.04,0.04-0.06c0.01-0.02,0.01-0.05,0.01-0.07c0-0.03,0-0.05-0.01-0.07c-0.01-0.02-0.02-0.04-0.04-0.06
			c-0.02-0.02-0.04-0.03-0.06-0.04c-0.02-0.01-0.05-0.01-0.07-0.01c-0.03,0-0.05,0-0.07,0.01c-0.02,0.01-0.04,0.02-0.06,0.04
			c-0.02,0.02-0.03,0.04-0.04,0.06c-0.01,0.02-0.01,0.05-0.01,0.07c0,0.03,0,0.05,0.01,0.07c0.01,0.02,0.02,0.04,0.04,0.06
			c0.02,0.02,0.04,0.03,0.06,0.04C39.99,26.92,40.02,26.93,40.05,26.93z M40.06,26.63c0.03,0,0.06,0.01,0.07,0.02
			c0.02,0.01,0.02,0.03,0.02,0.06c0,0.02-0.01,0.03-0.02,0.05c-0.01,0.01-0.03,0.02-0.05,0.02l0.07,0.08h-0.08l-0.06-0.08h-0.01
			v0.08h-0.06v-0.23H40.06z M40.01,26.68v0.04h0.05c0.01,0,0.02,0,0.02,0c0.01,0,0.01-0.01,0.01-0.02c0-0.01,0-0.01-0.01-0.02
			c-0.01,0-0.01-0.01-0.02-0.01H40.01z"></path>
	</g>
	<g>
		<path class="st2" d="M21.37,12.52c0-3.03,1.41-5.72,3.62-7.46C23.36,3.77,21.31,3,19.08,3c-5.26,0-9.52,4.26-9.52,9.52
			s4.26,9.52,9.52,9.52c2.23,0,4.28-0.77,5.91-2.06C22.78,18.24,21.37,15.55,21.37,12.52z"></path>
		<ellipse class="st3" cx="24.98" cy="12.52" rx="3.62" ry="7.46"></ellipse>
		<path class="st4" d="M39.76,17.67v-0.28h-0.11v-0.08h0.31v0.08h-0.11v0.28H39.76z M40.36,17.67v-0.25l-0.08,0.21h-0.09l-0.08-0.21
			v0.25h-0.08v-0.36h0.12l0.09,0.23l0.09-0.23h0.12v0.36H40.36z"></path>
		<path class="st4" d="M30.89,3c-2.23,0-4.28,0.77-5.91,2.06c2.2,1.74,3.62,4.44,3.62,7.46s-1.41,5.72-3.62,7.46
			c1.62,1.29,3.67,2.06,5.91,2.06c5.26,0,9.52-4.26,9.52-9.52S36.15,3,30.89,3z"></path>
	</g>
</g>
</svg>