<svg id="Camada_1" data-name="Camada 1" xmlns="http://www.w3.org/2000/svg" viewBox="0 0 600 600"><defs><style>.cls-1{fill:#a9ca49;}.cls-2,.cls-6{fill:#fff;}.cls-2{fill-rule:evenodd;}.cls-3{fill:#34b0df;}.cls-4{fill:#e83092;}.cls-5{fill:#f09229;}</style></defs><rect class="cls-1" x="40.49" y="349.16" width="124.82" height="124.81"/><path class="cls-2" d="M102.9,360.28c-12.49,0-25.9,3-34.08,10.81S57.7,391.62,57.7,401.87c0,12.21,10.91,18.74,23,22a28.08,28.08,0,0,0-4.81,7c-3.39,7-3.68,15.4,5.92,15.79v8.15c0,8.75,14.39,10.27,18.14,4.91a3.82,3.82,0,0,1,6,0c3.74,5.36,18.14,3.84,18.14-4.91v-8.15c9.6-.39,9.31-8.79,5.91-15.79a28,28,0,0,0-4.82-7.05c12-3.26,23-9.79,23-22,0-10.25-2.95-22.94-11.13-30.78s-21.59-10.81-34.07-10.81m30.18,53c1.07-2.23.28-3.17-1.9-4.28-5.29-2.71-16.78-4.06-28.28-4.06s-23,1.35-28.28,4.06c-2.19,1.12-3,2-1.91,4.29,1.3,2.71,3.92,5.21,6.9,7.22,6.08,4.09,14.69,6.14,23.29,6.14s17.22-2.05,23.3-6.15c3-2,5.59-4.51,6.88-7.22"/><rect class="cls-3" x="171.63" y="349.16" width="124.81" height="124.81"/><path class="cls-2" d="M234,360.28c-12.48,0-25.89,3-34.08,10.81s-11.12,20.53-11.12,30.78c0,12.21,10.91,18.74,23,22a28.35,28.35,0,0,0-4.81,7c-3.39,7-3.68,15.4,5.92,15.79v8.15c0,8.75,14.39,10.27,18.15,4.91a3.81,3.81,0,0,1,6,0c3.74,5.36,18.14,3.84,18.14-4.91v-8.15c9.6-.39,9.31-8.79,5.92-15.79a28.32,28.32,0,0,0-4.83-7.05c12.06-3.26,23-9.79,23-22,0-10.25-2.94-22.94-11.13-30.78S246.51,360.28,234,360.28m30.19,53c1.06-2.23.27-3.17-1.91-4.28C257,406.33,245.53,405,234,405s-23,1.35-28.28,4.06c-2.19,1.12-3,2-1.9,4.29,1.3,2.71,3.91,5.21,6.89,7.22,6.08,4.09,14.69,6.14,23.3,6.14s17.21-2.05,23.29-6.15c3-2,5.59-4.51,6.89-7.22"/><rect class="cls-4" x="302.76" y="349.16" width="124.81" height="124.81"/><path class="cls-2" d="M365.16,360.28c-12.48,0-25.89,3-34.07,10.81S320,391.62,320,401.87c0,12.21,10.92,18.74,23,22a28.35,28.35,0,0,0-4.81,7c-3.39,7-3.68,15.4,5.92,15.79v8.15c0,8.75,14.4,10.27,18.15,4.91a3.81,3.81,0,0,1,6,0c3.75,5.36,18.14,3.84,18.14-4.91v-8.15c9.6-.39,9.31-8.79,5.92-15.79a28.05,28.05,0,0,0-4.83-7.05c12.06-3.26,23-9.79,23-22,0-10.25-2.94-22.94-11.12-30.78s-21.59-10.81-34.08-10.81m30.19,53c1.07-2.23.28-3.17-1.91-4.28-5.28-2.71-16.78-4.06-28.28-4.06s-23,1.35-28.28,4.06c-2.18,1.12-3,2-1.9,4.29,1.3,2.71,3.91,5.21,6.89,7.22,6.08,4.09,14.69,6.14,23.3,6.14s17.21-2.05,23.29-6.15c3-2,5.59-4.51,6.89-7.22"/><rect class="cls-5" x="433.89" y="349.16" width="124.81" height="124.81"/><path class="cls-2" d="M496.3,360.28c-12.49,0-25.91,3-34.08,10.81s-11.13,20.53-11.13,30.78c0,12.21,10.92,18.74,23,22a28.62,28.62,0,0,0-4.81,7c-3.39,7-3.68,15.4,5.92,15.79v8.15c0,8.75,14.4,10.27,18.15,4.91a3.81,3.81,0,0,1,6,0c3.75,5.36,18.14,3.84,18.14-4.91v-8.15c9.6-.39,9.31-8.79,5.92-15.79a28.28,28.28,0,0,0-4.82-7.05c12.05-3.26,23-9.79,23-22,0-10.25-2.94-22.94-11.12-30.78s-21.6-10.81-34.07-10.81m30.18,53c1.07-2.23.27-3.17-1.9-4.28-5.29-2.71-16.79-4.06-28.28-4.06s-23,1.35-28.29,4.06c-2.18,1.12-3,2-1.9,4.29,1.3,2.71,3.92,5.21,6.89,7.22,6.09,4.09,14.69,6.14,23.3,6.14s17.21-2.05,23.29-6.15c3-2,5.59-4.51,6.89-7.22"/><path class="cls-2" d="M503.6,149.64a55.12,55.12,0,0,1,55.1,54.93c0,30.27-24.89,54.81-55.1,54.81a54.87,54.87,0,0,1,0-109.74m0,81.6c14.86,0,25.88-12,25.88-26.67s-10.94-26.79-25.88-26.79S478,190,478,204.57s10.88,26.67,25.64,26.67"/><path class="cls-2" d="M383.1,214.91H372.65V186.77H383.1v-8.1c0-28.59,23.34-52.64,52.09-52.64h5.22v27.88l-5,.22c-13.48.61-23.1,11.21-23.1,24.54v8.1H428.1v28.14H412.32V258H383.1Z"/><path class="cls-2" d="M297,149.64A55.1,55.1,0,0,1,352,204.57c0,30.25-24.87,54.81-55.06,54.81a54.87,54.87,0,1,1,0-109.74m0,81.6c14.84,0,25.84-12.06,25.84-26.67S311.88,177.78,297,177.78,271.27,190,271.27,204.57s10.91,26.67,25.69,26.67"/><path class="cls-2" d="M131.06,165.78a51.36,51.36,0,0,1,37.69-16.14c29.58,0,52.68,22.24,52.68,52.08V258H192.17V201.72c0-12.76-10.75-23.94-23.59-23.94-13.22,0-22.33,12.14-22.33,24.69V258H117V202.47c0-13.21-11.25-24.69-24.48-24.69S69.68,188.5,69.68,201.6V258H40.49V202.94c0-29.43,22.53-53.3,52.2-53.3,15.38,0,28.12,4.93,38.37,16.14"/><path class="cls-6" d="M84.73,270.5v53.72H79.82v-6.67a21.47,21.47,0,0,1-7,5.74,19.68,19.68,0,0,1-22.59-4,20,20,0,0,1-5.82-14.52,19.67,19.67,0,0,1,5.87-14.32,19.17,19.17,0,0,1,14.15-6,18.28,18.28,0,0,1,8.63,2,19.69,19.69,0,0,1,6.79,6.09V270.5ZM64.8,289.27a15.05,15.05,0,0,0-13.28,7.79,15.68,15.68,0,0,0,0,15.66,15.32,15.32,0,0,0,5.64,5.82,14.81,14.81,0,0,0,7.6,2.08,15.56,15.56,0,0,0,7.76-2.07A14.41,14.41,0,0,0,78.17,313a16,16,0,0,0,2-7.94,15.43,15.43,0,0,0-4.43-11.24,14.68,14.68,0,0,0-10.91-4.52"/><path class="cls-6" d="M132.38,311.36l4.21,2.2a23,23,0,0,1-4.78,6.56,19.09,19.09,0,0,1-6.1,3.79,21.22,21.22,0,0,1-7.66,1.3q-9.49,0-14.84-6.22a21,21,0,0,1-5.35-14.05,20.7,20.7,0,0,1,4.53-13.14,18.53,18.53,0,0,1,15.37-7.34A19.11,19.11,0,0,1,133.58,292a21,21,0,0,1,4.29,13.25H103a15.72,15.72,0,0,0,4.31,11.07,13.75,13.75,0,0,0,10.31,4.31,16.51,16.51,0,0,0,5.76-1,15,15,0,0,0,4.76-2.73,23.24,23.24,0,0,0,4.24-5.49m0-10.44a16.79,16.79,0,0,0-2.9-6.38,13.81,13.81,0,0,0-5-3.84,15.38,15.38,0,0,0-6.6-1.46A14.24,14.24,0,0,0,108,292.9a16.64,16.64,0,0,0-4.53,8Z"/><path class="cls-6" d="M170.37,289.7l-3.2,3.31q-4-3.88-7.82-3.88a5.93,5.93,0,0,0-4.17,1.6,5,5,0,0,0-1.73,3.74,5.56,5.56,0,0,0,1.43,3.6c1,1.16,3,2.53,6,4.09q5.56,2.89,7.56,5.56a10.14,10.14,0,0,1,2,6.09,10.92,10.92,0,0,1-3.36,8.09,11.43,11.43,0,0,1-8.38,3.31,14.59,14.59,0,0,1-6.41-1.46,13.84,13.84,0,0,1-5-4l3.13-3.57q3.83,4.32,8.11,4.31a7.29,7.29,0,0,0,5.1-1.92,5.92,5.92,0,0,0,2.11-4.52,5.76,5.76,0,0,0-1.39-3.81c-.93-1.1-3-2.47-6.29-4.14q-5.24-2.7-7.14-5.34a10.09,10.09,0,0,1-1.89-6,9.8,9.8,0,0,1,3-7.34,10.54,10.54,0,0,1,7.62-2.92c3.56,0,7.16,1.75,10.77,5.24"/><path class="cls-6" d="M184.66,269.5a4.11,4.11,0,1,1-2.88,1.21,4,4,0,0,1,2.88-1.21m-2.48,16h5v38.75h-5Z"/><path class="cls-6" d="M234.67,285.46h5v30.88q0,8.16-1.43,11.93a15.48,15.48,0,0,1-6.8,8.23,22.39,22.39,0,0,1-11.65,2.89,26.41,26.41,0,0,1-9-1.42,17.69,17.69,0,0,1-6.46-3.78,22.15,22.15,0,0,1-4.59-6.95h5.41a14.16,14.16,0,0,0,5.71,5.7,18.25,18.25,0,0,0,8.66,1.85,18,18,0,0,0,8.61-1.89,11.71,11.71,0,0,0,5-4.78c1-1.92,1.49-5,1.49-9.28v-2a19,19,0,0,1-6.88,5.47,20.38,20.38,0,0,1-18.68-.75,18.79,18.79,0,0,1-7.28-7.14,20.15,20.15,0,0,1,17.47-30,18.52,18.52,0,0,1,8.11,1.8,22.3,22.3,0,0,1,7.26,5.93ZM220,289.27a15.82,15.82,0,0,0-7.87,2.05,14.86,14.86,0,0,0-5.71,5.66,15.57,15.57,0,0,0-2.06,7.82,14.12,14.12,0,0,0,4.28,10.55,15.21,15.21,0,0,0,11.08,4.16q6.87,0,11-4.13a14.55,14.55,0,0,0,4.19-10.86A15.76,15.76,0,0,0,233,296.7a14.11,14.11,0,0,0-5.45-5.44,15.15,15.15,0,0,0-7.59-2"/><path class="cls-6" d="M254.07,285.46h5v6.94a20.92,20.92,0,0,1,6.62-6,16.26,16.26,0,0,1,7.91-2,13.74,13.74,0,0,1,7.71,2.21,13.14,13.14,0,0,1,5,5.95q1.61,3.75,1.6,11.65v19.94h-5V305.73a45.32,45.32,0,0,0-.56-8.94A9.7,9.7,0,0,0,279,291a10,10,0,0,0-6.41-1.94,12.28,12.28,0,0,0-8.1,3,14,14,0,0,0-4.72,7.41,51.92,51.92,0,0,0-.71,10.54v14.21h-5Z"/><path class="cls-6" d="M359.86,289.7l-3.2,3.31q-4-3.88-7.83-3.88a5.87,5.87,0,0,0-4.15,1.6,5,5,0,0,0-1.74,3.74,5.6,5.6,0,0,0,1.42,3.6c1,1.16,3,2.53,6,4.09q5.58,2.89,7.58,5.56a10.2,10.2,0,0,1,2,6.09,10.92,10.92,0,0,1-3.36,8.09,11.43,11.43,0,0,1-8.38,3.31,14.59,14.59,0,0,1-6.41-1.46,13.84,13.84,0,0,1-5-4l3.13-3.57q3.82,4.32,8.11,4.31a7.29,7.29,0,0,0,5.1-1.92,5.92,5.92,0,0,0,2.11-4.52,5.76,5.76,0,0,0-1.39-3.81c-.93-1.1-3-2.47-6.29-4.14q-5.24-2.7-7.14-5.34a10.15,10.15,0,0,1-1.88-6,9.79,9.79,0,0,1,3-7.34,10.52,10.52,0,0,1,7.62-2.92c3.56,0,7.16,1.75,10.77,5.24"/><polygon class="cls-6" points="376.77 271.07 381.75 271.07 381.75 285.46 389.66 285.46 389.66 289.77 381.75 289.77 381.75 324.21 376.77 324.21 376.77 289.77 369.96 289.77 369.96 285.46 376.77 285.46 376.77 271.07"/><path class="cls-6" d="M400.22,285.46h5v18.09a39,39,0,0,0,.71,9.12A10.2,10.2,0,0,0,410,318.3a12.4,12.4,0,0,0,7.19,2.07,12.15,12.15,0,0,0,7.08-2,10.35,10.35,0,0,0,4-5.3c.49-1.49.75-4.66.75-9.51V285.46h5.09v19q0,8-1.87,12.08a14.29,14.29,0,0,1-5.63,6.35,20.52,20.52,0,0,1-18.88,0,14.1,14.1,0,0,1-5.67-6.41q-1.86-4.11-1.87-12.38Z"/><path class="cls-6" d="M487.62,270.5v53.72h-4.91v-6.67a21.4,21.4,0,0,1-7,5.74,19.67,19.67,0,0,1-22.58-4,20,20,0,0,1-5.83-14.52,19.68,19.68,0,0,1,5.88-14.32,19.15,19.15,0,0,1,14.14-6,18.3,18.3,0,0,1,8.64,2,19.78,19.78,0,0,1,6.79,6.09V270.5Zm-19.93,18.77a15.05,15.05,0,0,0-13.28,7.79,15.68,15.68,0,0,0,0,15.66,15.32,15.32,0,0,0,5.64,5.82,14.8,14.8,0,0,0,7.59,2.08,15.6,15.6,0,0,0,7.77-2.07,14.39,14.39,0,0,0,5.63-5.58,15.94,15.94,0,0,0,2-7.94,15.43,15.43,0,0,0-4.43-11.24,14.68,14.68,0,0,0-10.91-4.52"/><path class="cls-6" d="M504.37,269.5a4.12,4.12,0,0,1,0,8.23,4.11,4.11,0,0,1-4.08-4.1,4,4,0,0,1,1.2-2.92,4,4,0,0,1,2.88-1.21m-2.48,16h5v38.75h-5Z"/><path class="cls-6" d="M539.31,284.46a19.22,19.22,0,0,1,14.85,6.48,20.81,20.81,0,0,1-.31,28.2,20.49,20.49,0,0,1-29.11,0,20.76,20.76,0,0,1-.31-28.16,19.21,19.21,0,0,1,14.88-6.52m0,4.88a14.36,14.36,0,0,0-10.68,4.6,15.35,15.35,0,0,0-4.47,11.11,15.79,15.79,0,0,0,2,7.84,14.47,14.47,0,0,0,5.5,5.61,15.7,15.7,0,0,0,15.23,0,14.57,14.57,0,0,0,5.51-5.61,15.88,15.88,0,0,0,2-7.84A15.29,15.29,0,0,0,550,293.94a14.39,14.39,0,0,0-10.67-4.6"/></svg>